{"glyphs":{"0":{"ha":833,"x_min":84,"x_max":748,"o":"m 748 458 q 664 107 748 229 q 414 -14 579 -14 q 167 107 250 -14 q 84 458 84 227 q 165 812 84 694 q 418 929 245 929 q 668 811 587 929 q 748 458 748 692 m 624 458 q 576 742 624 654 q 418 830 528 830 q 257 743 306 830 q 208 458 208 656 q 257 175 208 264 q 416 86 307 86 q 574 178 524 86 q 624 458 624 269 m 336 376 l 336 545 l 496 545 l 496 376 l 336 376 z "},"1":{"ha":833,"x_min":100,"x_max":766,"o":"m 106 0 l 106 98 l 404 98 l 404 791 q 285 699 379 738 q 100 659 191 659 l 100 760 q 290 804 201 760 q 414 915 379 848 l 527 915 l 527 98 l 766 98 l 766 0 l 106 0 z "},"2":{"ha":833,"x_min":98,"x_max":735,"o":"m 98 0 l 98 79 q 201 228 131 153 q 392 399 271 303 q 547 549 500 486 q 595 672 595 613 q 548 788 595 747 q 414 829 501 829 q 289 786 337 829 q 233 667 241 744 l 108 679 q 202 862 121 794 q 414 929 283 929 q 640 864 559 929 q 720 680 720 799 q 669 524 720 602 q 515 365 617 446 q 321 201 375 254 q 245 99 267 149 l 735 99 l 735 0 l 98 0 z "},"3":{"ha":833,"x_min":87,"x_max":745,"o":"m 745 251 q 660 56 745 125 q 421 -14 574 -14 q 189 52 276 -14 q 87 245 102 118 l 213 257 q 421 87 237 87 q 566 130 513 87 q 618 255 618 173 q 588 341 618 306 q 504 394 557 376 q 385 413 451 413 l 316 413 l 316 519 l 382 519 q 489 538 441 519 q 566 593 538 557 q 593 676 593 628 q 548 788 593 748 q 414 829 503 829 q 284 787 334 829 q 226 671 234 746 l 103 680 q 200 863 117 798 q 416 929 284 929 q 639 866 559 929 q 719 689 719 802 q 665 549 719 608 q 519 470 612 489 l 519 467 q 683 395 621 456 q 745 251 745 335 z "},"4":{"ha":833,"x_min":70,"x_max":763,"o":"m 635 216 l 635 0 l 513 0 l 513 216 l 70 216 l 70 311 l 500 915 l 635 915 l 635 313 l 763 313 l 763 216 l 635 216 m 513 783 l 174 313 l 513 313 l 513 783 z "},"5":{"ha":833,"x_min":87,"x_max":745,"o":"m 745 301 q 705 136 745 207 q 588 25 665 64 q 406 -14 511 -14 q 191 45 273 -14 q 87 214 109 103 l 210 228 q 409 86 249 86 q 562 143 505 86 q 618 298 618 200 q 562 436 618 382 q 412 490 506 490 q 319 474 362 490 q 234 421 277 458 l 115 421 l 146 915 l 690 915 l 690 817 l 259 817 l 239 528 q 437 589 319 589 q 660 510 575 589 q 745 301 745 430 z "},"6":{"ha":833,"x_min":102,"x_max":743,"o":"m 743 302 q 661 73 743 159 q 435 -14 578 -14 q 189 103 275 -14 q 102 435 102 220 q 192 800 102 671 q 444 929 281 929 q 717 734 661 929 l 600 713 q 443 830 564 830 q 281 736 339 830 q 224 471 224 642 q 317 565 257 533 q 456 597 378 597 q 665 517 586 597 q 743 302 743 437 m 619 297 q 567 449 619 395 q 427 503 515 503 q 332 480 376 503 q 261 417 287 458 q 236 326 236 377 q 291 154 236 223 q 431 85 345 85 q 568 142 517 85 q 619 297 619 199 z "},"7":{"ha":833,"x_min":107,"x_max":725,"o":"m 725 821 q 404 0 404 359 l 277 0 q 360 385 277 178 q 607 817 443 591 l 107 817 l 107 915 l 725 915 l 725 821 z "},"8":{"ha":833,"x_min":90,"x_max":742,"o":"m 742 256 q 657 59 742 132 q 416 -14 573 -14 q 177 58 263 -14 q 90 255 90 129 q 144 404 90 342 q 281 479 197 465 l 281 482 q 159 559 205 500 q 113 694 113 618 q 150 815 113 761 q 256 899 188 869 q 414 929 325 929 q 576 899 507 929 q 682 815 645 869 q 718 693 718 762 q 671 557 718 616 q 549 484 625 498 l 549 481 q 689 407 637 467 q 742 256 742 347 m 591 686 q 546 800 591 762 q 414 838 500 838 q 284 800 330 838 q 237 686 237 761 q 284 570 237 611 q 415 528 331 528 q 591 686 591 528 m 615 268 q 562 393 615 349 q 414 437 509 437 q 269 390 321 437 q 216 265 216 342 q 268 126 216 174 q 418 78 319 78 q 566 125 517 78 q 615 268 615 172 z "},"9":{"ha":833,"x_min":96,"x_max":737,"o":"m 737 477 q 647 114 737 242 q 391 -14 557 -14 q 212 34 279 -14 q 115 186 144 81 l 232 204 q 393 85 269 85 q 556 179 498 85 q 616 441 615 274 q 524 343 589 380 q 379 306 458 306 q 173 392 251 306 q 96 618 96 479 q 181 845 96 762 q 414 929 266 929 q 737 477 737 929 m 604 585 q 550 762 604 694 q 410 830 496 830 q 271 771 321 830 q 220 618 220 712 q 271 461 220 521 q 408 402 321 402 q 506 426 460 402 q 578 491 551 449 q 604 585 604 532 z "}," ":{"ha":833,"x_min":0,"x_max":0,"o":""},"!":{"ha":833,"x_min":349,"x_max":484,"o":"m 467 269 l 367 269 l 351 914 l 484 914 l 467 269 m 349 0 l 349 136 l 481 136 l 481 0 l 349 0 z "},"\"":{"ha":833,"x_min":188,"x_max":644,"o":"m 616 573 l 519 573 l 492 1006 l 644 1006 l 616 573 m 311 573 l 216 573 l 188 1006 l 340 1006 l 311 573 z "},"#":{"ha":833,"x_min":37,"x_max":789,"o":"m 631 565 l 585 350 l 762 350 l 762 277 l 570 277 l 510 0 l 435 0 l 494 277 l 248 277 l 191 0 l 116 0 l 173 277 l 37 277 l 37 350 l 189 350 l 235 565 l 71 565 l 71 638 l 250 638 l 310 915 l 385 915 l 325 638 l 571 638 l 631 915 l 705 915 l 646 638 l 789 638 l 789 565 l 631 565 m 311 565 l 264 350 l 510 350 l 555 565 l 311 565 z "},"$":{"ha":833,"x_min":45,"x_max":780,"o":"m 780 258 q 699 84 780 148 q 465 14 617 20 l 465 -96 l 378 -96 l 378 14 q 45 257 92 23 l 160 282 q 232 154 178 197 q 378 107 286 112 l 378 439 l 358 444 q 191 505 244 472 q 113 584 138 538 q 88 694 88 630 q 162 851 88 795 q 378 913 237 908 l 378 1001 l 465 1001 l 465 913 q 660 859 591 908 q 759 695 728 810 l 641 673 q 583 781 626 745 q 465 823 539 818 l 465 534 q 634 481 582 505 q 718 425 686 456 q 764 353 749 394 q 780 258 780 312 m 205 690 q 221 626 205 652 q 267 582 237 600 q 378 544 298 565 l 378 824 q 249 786 293 821 q 205 690 205 752 m 663 260 q 645 334 663 304 q 592 382 626 363 q 465 425 558 401 l 465 106 q 613 152 563 112 q 663 260 663 191 z "},"%":{"ha":833,"x_min":0,"x_max":834,"o":"m 150 0 l 52 0 l 684 918 l 783 918 l 150 0 m 197 923 q 389 695 389 923 q 340 523 389 582 q 195 464 290 464 q 50 522 99 464 q 0 695 0 581 q 47 866 0 808 q 197 923 95 923 m 290 695 q 268 813 290 776 q 197 850 247 850 q 122 814 144 850 q 100 695 100 778 q 122 578 100 616 q 196 541 144 541 q 267 578 244 541 q 290 695 290 616 m 642 451 q 834 223 834 451 q 785 51 834 110 q 640 -8 735 -8 q 494 50 544 -8 q 445 223 445 109 q 492 394 445 336 q 642 451 540 451 m 734 223 q 713 341 734 304 q 642 378 692 378 q 567 342 589 378 q 545 223 545 306 q 567 106 545 144 q 641 68 589 68 q 712 106 689 68 q 734 223 734 144 z "},"&":{"ha":833,"x_min":29,"x_max":804,"o":"m 727 -8 q 630 16 677 -8 q 548 79 582 39 q 313 -14 444 -14 q 103 54 178 -14 q 29 243 29 122 q 227 527 29 425 q 191 620 205 568 q 176 718 176 671 q 239 865 176 810 q 414 920 302 920 q 573 871 513 920 q 632 739 632 823 q 605 649 632 688 q 528 575 578 609 q 356 490 477 541 q 544 226 446 333 q 629 501 604 349 l 727 472 q 617 159 697 312 q 679 105 646 122 q 739 87 712 87 q 804 98 779 87 l 804 7 q 727 -8 771 -8 m 529 736 q 496 811 529 783 q 412 838 464 838 q 314 805 352 838 q 277 716 277 772 q 318 564 277 642 q 460 632 427 610 q 511 679 494 653 q 529 736 529 704 m 479 147 q 264 446 357 285 q 143 245 143 380 q 190 121 143 168 q 318 75 237 75 q 404 94 361 75 q 479 147 446 113 z "},"'":{"ha":833,"x_min":340,"x_max":492,"o":"m 464 573 l 368 573 l 340 1006 l 492 1006 l 464 573 z "},"(":{"ha":833,"x_min":232,"x_max":604,"o":"m 359 359 q 416 22 359 173 q 604 -288 474 -128 l 475 -288 q 289 22 345 -128 q 232 361 232 172 q 288 695 232 546 q 475 1006 343 844 l 604 1006 q 416 695 474 846 q 359 359 359 545 z "},")":{"ha":833,"x_min":228,"x_max":600,"o":"m 600 361 q 544 21 600 171 q 358 -288 488 -128 l 228 -288 q 418 26 361 -125 q 475 359 475 177 q 418 692 475 541 q 228 1006 361 843 l 358 1006 q 545 696 490 844 q 600 361 600 548 z "},"*":{"ha":833,"x_min":168,"x_max":665,"o":"m 455 806 l 634 876 l 665 786 l 473 736 l 599 567 l 518 518 l 416 693 l 311 519 l 230 568 l 358 736 l 168 786 l 199 877 l 380 804 l 372 1006 l 464 1006 l 455 806 z "},"+":{"ha":833,"x_min":79,"x_max":753,"o":"m 466 412 l 466 122 l 366 122 l 366 412 l 79 412 l 79 511 l 366 511 l 366 802 l 466 802 l 466 511 l 753 511 l 753 412 l 466 412 z "},",":{"ha":833,"x_min":176,"x_max":470,"o":"m 176 -246 l 290 203 l 470 203 l 259 -246 l 176 -246 z "},"-":{"ha":833,"x_min":227,"x_max":606,"o":"m 227 315 l 227 423 l 606 423 l 606 315 l 227 315 z "},".":{"ha":833,"x_min":336,"x_max":496,"o":"m 336 0 l 336 203 l 496 203 l 496 0 l 336 0 z "},"/":{"ha":833,"x_min":77,"x_max":755,"o":"m 77 -14 l 634 1006 l 755 1006 l 201 -14 l 77 -14 z "},":":{"ha":833,"x_min":336,"x_max":496,"o":"m 336 0 l 336 203 l 496 203 l 496 0 l 336 0 m 336 531 l 336 734 l 496 734 l 496 531 l 336 531 z "},";":{"ha":833,"x_min":239,"x_max":533,"o":"m 336 531 l 336 734 l 496 734 l 496 531 l 336 531 m 239 -246 l 353 203 l 533 203 l 322 -246 l 239 -246 z "},"<":{"ha":833,"x_min":79,"x_max":753,"o":"m 79 387 l 79 526 l 753 810 l 753 705 l 172 457 l 753 208 l 753 104 l 79 387 z "},"=":{"ha":833,"x_min":79,"x_max":753,"o":"m 79 581 l 79 681 l 753 681 l 753 581 l 79 581 m 79 233 l 79 334 l 753 334 l 753 233 l 79 233 z "},">":{"ha":833,"x_min":79,"x_max":753,"o":"m 79 104 l 79 208 l 661 457 l 79 705 l 79 810 l 753 526 l 753 387 l 79 104 z "},"?":{"ha":833,"x_min":64,"x_max":728,"o":"m 728 680 q 713 591 728 630 q 670 520 698 553 q 579 442 642 487 q 480 363 505 388 q 443 309 456 338 q 428 242 429 279 l 309 242 q 326 327 311 290 q 368 396 341 365 q 459 476 395 428 q 554 554 532 529 q 591 608 577 579 q 604 674 604 637 q 550 788 604 748 q 404 827 496 827 q 255 778 313 827 q 189 643 198 728 l 64 651 q 172 857 81 785 q 403 929 262 929 q 641 864 554 929 q 728 680 728 798 m 304 0 l 304 136 l 436 136 l 436 0 l 304 0 z "},"@":{"ha":833,"x_min":30,"x_max":806,"o":"m 806 512 q 750 190 806 310 q 600 71 694 71 q 503 177 503 71 l 503 182 l 504 203 l 500 203 q 435 107 477 143 q 340 71 393 71 q 228 138 269 71 q 188 332 188 206 q 221 538 188 441 q 310 691 254 635 q 437 747 367 747 q 516 719 485 747 q 562 629 547 690 l 565 629 l 587 732 l 665 732 l 598 388 q 571 199 571 245 q 604 140 571 140 q 691 241 657 140 q 724 511 724 342 q 650 812 724 696 q 454 928 576 928 q 277 855 354 928 q 157 650 199 782 q 115 349 115 517 q 194 14 115 139 q 410 -112 273 -112 q 532 -88 473 -112 q 660 -5 591 -64 l 708 -64 q 557 -161 630 -131 q 403 -192 484 -192 q 206 -126 291 -192 q 75 63 121 -60 q 30 349 30 187 q 82 693 30 543 q 231 925 134 843 q 456 1006 328 1006 q 642 945 563 1006 q 764 771 721 884 q 806 512 806 659 m 526 532 q 502 641 526 604 q 438 677 478 677 q 359 632 395 677 q 301 505 323 587 q 279 333 279 422 q 357 142 279 142 q 447 207 407 142 q 506 378 487 271 q 526 532 526 484 z "},"A":{"ha":833,"x_min":0,"x_max":833,"o":"m 701 0 l 608 259 l 226 259 l 133 0 l 0 0 l 346 915 l 493 915 l 833 0 l 701 0 m 418 817 l 410 791 l 363 647 l 260 360 l 574 360 l 457 699 l 418 817 z "},"B":{"ha":833,"x_min":110,"x_max":781,"o":"m 781 258 q 688 68 781 136 q 430 0 595 0 l 110 0 l 110 915 l 389 915 q 726 693 726 915 q 677 555 726 610 q 544 482 628 499 q 719 410 657 470 q 781 258 781 349 m 595 677 q 544 780 595 749 q 391 811 493 811 l 239 811 l 239 529 l 392 529 q 595 677 595 529 m 650 269 q 590 387 650 347 q 410 428 530 428 l 239 428 l 239 104 l 420 104 q 594 145 538 104 q 650 269 650 186 z "},"C":{"ha":833,"x_min":77,"x_max":774,"o":"m 213 462 q 271 184 213 277 q 448 92 329 92 q 572 138 517 92 q 667 283 628 184 l 774 239 q 447 -14 673 -14 q 173 109 269 -14 q 77 462 77 232 q 440 929 77 929 q 756 702 670 929 l 642 658 q 564 779 617 734 q 441 823 511 823 q 269 736 325 823 q 213 462 213 648 z "},"D":{"ha":833,"x_min":110,"x_max":763,"o":"m 763 467 q 659 121 763 242 q 361 0 555 0 l 110 0 l 110 915 l 321 915 q 653 803 544 915 q 763 467 763 692 m 633 467 q 558 727 633 646 q 321 809 484 809 l 239 809 l 239 106 l 349 106 q 563 196 493 106 q 633 467 633 286 z "},"E":{"ha":833,"x_min":110,"x_max":761,"o":"m 110 0 l 110 915 l 733 915 l 733 809 l 239 809 l 239 523 l 692 523 l 692 418 l 239 418 l 239 106 l 761 106 l 761 0 l 110 0 z "},"F":{"ha":833,"x_min":132,"x_max":736,"o":"m 261 809 l 261 474 l 720 474 l 720 367 l 261 367 l 261 0 l 132 0 l 132 915 l 736 915 l 736 809 l 261 809 z "},"G":{"ha":833,"x_min":77,"x_max":748,"o":"m 747 90 q 433 -14 591 -14 q 170 112 264 -14 q 77 462 77 238 q 166 813 77 697 q 435 929 256 929 q 748 705 670 929 l 632 667 q 437 823 578 823 q 268 738 322 823 q 213 462 213 652 q 444 92 213 92 q 540 106 490 92 q 621 142 589 120 l 621 370 l 422 370 l 422 478 l 747 478 l 747 90 z "},"H":{"ha":833,"x_min":110,"x_max":723,"o":"m 593 0 l 593 422 l 239 422 l 239 0 l 110 0 l 110 915 l 239 915 l 239 531 l 593 531 l 593 915 l 723 915 l 723 0 l 593 0 z "},"I":{"ha":833,"x_min":137,"x_max":695,"o":"m 137 915 l 695 915 l 695 809 l 481 809 l 481 106 l 695 106 l 695 0 l 137 0 l 137 106 l 351 106 l 351 809 l 137 809 l 137 915 z "},"J":{"ha":833,"x_min":119,"x_max":669,"o":"m 669 285 q 597 65 669 143 q 397 -14 526 -14 q 212 47 281 -14 q 119 237 143 107 l 246 258 q 298 135 258 178 q 398 92 338 92 q 540 282 540 92 l 540 809 l 329 809 l 329 915 l 669 915 l 669 285 z "},"K":{"ha":833,"x_min":110,"x_max":832,"o":"m 680 0 l 350 433 l 239 318 l 239 0 l 110 0 l 110 915 l 239 915 l 239 458 l 627 915 l 780 915 l 438 527 l 832 0 l 680 0 z "},"L":{"ha":833,"x_min":161,"x_max":746,"o":"m 161 0 l 161 915 l 290 915 l 290 106 l 746 106 l 746 0 l 161 0 z "},"M":{"ha":833,"x_min":87,"x_max":745,"o":"m 635 0 l 635 589 q 637 725 635 680 l 640 793 q 575 595 596 653 l 464 298 l 371 298 l 258 595 q 193 793 246 627 l 196 589 l 196 0 l 87 0 l 87 915 l 248 915 l 374 583 q 420 427 388 547 l 437 488 l 467 583 l 593 915 l 745 915 l 745 0 l 635 0 z "},"N":{"ha":833,"x_min":110,"x_max":723,"o":"m 567 0 l 214 766 q 225 594 225 650 l 225 0 l 110 0 l 110 915 l 260 915 l 618 143 q 606 329 606 241 l 606 915 l 723 915 l 723 0 l 567 0 z "},"O":{"ha":833,"x_min":69,"x_max":764,"o":"m 764 462 q 674 110 764 233 q 416 -14 584 -14 q 158 108 247 -14 q 69 462 69 229 q 157 810 69 690 q 417 929 245 929 q 674 811 585 929 q 764 462 764 694 m 627 462 q 417 823 627 823 q 205 462 205 823 q 259 185 205 279 q 416 92 313 92 q 577 186 527 92 q 627 462 627 281 z "},"P":{"ha":833,"x_min":110,"x_max":759,"o":"m 759 641 q 719 490 759 556 q 603 386 678 423 q 430 349 528 349 l 239 349 l 239 0 l 110 0 l 110 915 l 422 915 q 671 843 583 915 q 759 641 759 770 m 629 639 q 406 811 629 811 l 239 811 l 239 451 l 412 451 q 571 500 513 451 q 629 639 629 550 z "},"Q":{"ha":833,"x_min":69,"x_max":771,"o":"m 764 462 q 697 146 764 265 q 506 -3 630 27 q 579 -127 534 -88 q 693 -165 625 -165 q 771 -157 730 -165 l 771 -248 q 650 -262 708 -262 q 483 -205 549 -262 q 374 -11 416 -148 q 147 124 225 4 q 69 462 69 245 q 157 810 69 690 q 417 929 245 929 q 674 811 585 929 q 764 462 764 694 m 627 462 q 417 823 627 823 q 205 462 205 823 q 259 185 205 279 q 416 92 313 92 q 577 186 527 92 q 627 462 627 281 z "},"R":{"ha":833,"x_min":110,"x_max":798,"o":"m 649 0 l 401 390 l 239 390 l 239 0 l 110 0 l 110 915 l 437 915 q 677 849 595 915 q 760 662 760 784 q 697 492 760 561 q 527 405 633 422 l 798 0 l 649 0 m 630 660 q 424 811 630 811 l 239 811 l 239 492 l 429 492 q 578 536 526 492 q 630 660 630 579 z "},"S":{"ha":833,"x_min":54,"x_max":765,"o":"m 765 251 q 674 56 765 126 q 414 -14 583 -14 q 54 229 104 -14 l 179 254 q 258 127 198 167 q 417 87 317 87 q 581 130 525 87 q 637 249 637 172 q 615 326 637 296 q 557 375 593 356 q 476 406 521 394 q 385 429 431 418 q 229 480 275 458 q 155 531 182 503 q 113 597 127 560 q 98 685 98 635 q 181 866 98 802 q 417 929 263 929 q 637 879 561 929 q 743 709 713 829 l 615 687 q 550 797 599 763 q 416 831 501 831 q 224 687 224 831 q 242 621 224 646 q 291 579 260 595 q 363 551 322 562 q 451 528 404 541 q 587 489 545 505 q 660 452 628 473 q 715 404 692 432 q 752 339 739 376 q 765 251 765 302 z "},"T":{"ha":833,"x_min":52,"x_max":781,"o":"m 481 809 l 481 0 l 352 0 l 352 809 l 52 809 l 52 915 l 781 915 l 781 809 l 481 809 z "},"U":{"ha":833,"x_min":96,"x_max":736,"o":"m 736 332 q 659 69 736 151 q 410 -14 581 -14 q 171 66 245 -14 q 96 320 96 146 l 96 915 l 226 915 l 226 338 q 266 145 226 199 q 410 92 305 92 q 563 147 519 92 q 607 347 607 203 l 607 915 l 736 915 l 736 332 z "},"V":{"ha":833,"x_min":7,"x_max":826,"o":"m 484 0 l 349 0 l 7 915 l 143 915 l 360 303 q 417 114 381 245 q 474 303 444 215 l 690 915 l 826 915 l 484 0 z "},"W":{"ha":833,"x_min":0,"x_max":833,"o":"m 690 0 l 549 0 q 473 285 499 187 q 418 513 447 382 q 381 359 398 428 q 284 0 365 291 l 143 0 l 0 915 l 128 915 l 202 349 q 224 114 213 260 q 261 269 246 208 q 358 631 275 330 l 477 631 q 550 361 524 460 q 610 114 577 263 l 634 349 l 705 915 l 833 915 l 690 0 z "},"X":{"ha":833,"x_min":24,"x_max":809,"o":"m 416 567 l 642 915 l 781 915 l 486 478 l 809 0 l 670 0 l 416 389 l 163 0 l 24 0 l 347 478 l 52 915 l 191 915 l 416 567 z "},"Y":{"ha":833,"x_min":24,"x_max":808,"o":"m 480 396 l 480 0 l 353 0 l 353 396 l 24 915 l 163 915 l 417 500 l 669 915 l 808 915 l 480 396 z "},"Z":{"ha":833,"x_min":50,"x_max":783,"o":"m 783 0 l 50 0 l 50 97 l 604 809 l 99 809 l 99 915 l 751 915 l 751 821 l 197 106 l 783 106 l 783 0 z "},"[":{"ha":833,"x_min":278,"x_max":649,"o":"m 278 -288 l 278 1006 l 649 1006 l 649 912 l 400 912 l 400 -194 l 649 -194 l 649 -288 l 278 -288 z "},"\\":{"ha":833,"x_min":78,"x_max":755,"o":"m 632 -14 l 78 1006 l 199 1006 l 755 -14 l 632 -14 z "},"]":{"ha":833,"x_min":183,"x_max":554,"o":"m 183 -288 l 183 -194 l 432 -194 l 432 912 l 183 912 l 183 1006 l 554 1006 l 554 -288 l 183 -288 z "},"^":{"ha":833,"x_min":90,"x_max":742,"o":"m 637 300 l 414 844 l 193 300 l 90 300 l 347 915 l 484 915 l 742 300 l 637 300 z "},"_":{"ha":833,"x_min":-3,"x_max":836,"o":"m -3 -149 l -3 -84 l 836 -84 l 836 -149 l -3 -149 z "},"`":{"ha":833,"x_min":273,"x_max":560,"o":"m 476 814 l 273 970 l 273 990 l 406 990 l 560 828 l 560 814 l 476 814 z "},"a":{"ha":833,"x_min":87,"x_max":787,"o":"m 747 75 q 787 80 764 75 l 787 4 q 692 -7 741 -7 q 594 29 625 -7 q 559 140 563 64 l 555 140 q 451 22 511 58 q 302 -14 391 -14 q 141 45 195 -14 q 87 205 87 103 q 395 445 87 441 l 555 448 l 555 488 q 519 615 555 576 q 404 654 483 654 q 289 626 324 654 q 247 538 254 597 l 119 549 q 406 747 151 747 q 610 684 542 747 q 678 500 678 621 l 678 184 q 692 103 678 130 q 747 75 707 75 m 334 79 q 449 111 399 79 q 527 194 499 142 q 555 302 555 246 l 555 362 l 426 359 q 304 342 346 358 q 238 292 262 326 q 215 203 215 258 q 245 113 215 147 q 334 79 275 79 z "},"b":{"ha":833,"x_min":121,"x_max":739,"o":"m 739 370 q 670 82 739 178 q 473 -14 602 -14 q 247 111 308 -14 l 245 111 q 243 43 245 79 q 239 0 241 8 l 121 0 q 125 151 125 37 l 125 1006 l 248 1006 l 248 720 q 245 613 248 675 l 248 613 q 474 749 309 749 q 739 370 739 749 m 613 366 q 571 586 613 518 q 441 654 530 654 q 294 580 340 654 q 248 355 248 506 q 292 145 248 214 q 439 77 337 77 q 572 148 531 77 q 613 366 613 218 z "},"c":{"ha":833,"x_min":88,"x_max":732,"o":"m 88 368 q 176 649 88 551 q 429 747 263 747 q 632 688 552 747 q 731 528 712 629 l 601 519 q 547 616 590 581 q 423 652 503 652 q 266 585 316 652 q 216 370 216 519 q 266 150 216 220 q 422 81 316 81 q 544 117 496 81 q 604 227 592 153 l 732 218 q 683 100 724 153 q 576 17 643 47 q 428 -14 510 -14 q 175 84 262 -14 q 88 368 88 182 z "},"d":{"ha":833,"x_min":94,"x_max":711,"o":"m 585 118 q 496 15 551 47 q 359 -18 441 -18 q 158 77 222 -18 q 94 361 94 171 q 359 745 94 745 q 497 715 441 745 q 585 620 552 686 l 587 620 l 585 722 l 585 1006 l 707 1006 l 707 151 q 711 0 707 37 l 595 0 q 590 50 592 10 q 588 118 588 89 l 585 118 m 220 365 q 260 145 220 214 q 391 77 300 77 q 538 148 490 77 q 585 376 585 220 q 539 588 585 522 q 393 654 494 654 q 260 585 301 654 q 220 365 220 515 z "},"e":{"ha":833,"x_min":90,"x_max":742,"o":"m 218 341 q 273 148 218 218 q 422 78 328 78 q 545 108 492 78 q 615 191 597 138 l 722 160 q 613 31 692 76 q 422 -14 533 -14 q 176 86 262 -14 q 90 372 90 186 q 175 650 90 553 q 418 747 259 747 q 660 650 578 747 q 742 357 742 553 l 742 341 l 218 341 m 420 657 q 276 598 329 657 q 220 435 223 538 l 616 435 q 420 657 597 657 z "},"f":{"ha":833,"x_min":94,"x_max":745,"o":"m 393 637 l 393 0 l 271 0 l 271 637 l 94 637 l 94 734 l 271 734 l 271 751 q 337 948 271 890 q 555 1006 402 1006 q 660 1002 604 1006 q 745 992 717 998 l 745 894 q 663 901 725 897 q 569 905 601 905 q 463 890 498 905 q 410 839 427 874 q 393 741 393 804 l 393 734 l 726 734 l 726 637 l 393 637 z "},"g":{"ha":833,"x_min":97,"x_max":715,"o":"m 417 -288 q 234 -241 303 -288 q 146 -106 165 -194 l 271 -90 q 320 -168 282 -140 q 421 -195 359 -195 q 589 18 589 -195 l 589 150 l 588 150 q 496 44 555 80 q 355 8 437 8 q 159 96 221 8 q 97 372 97 184 q 163 655 97 564 q 368 745 230 745 q 502 710 445 745 q 589 608 558 674 l 591 608 q 593 677 591 629 q 599 734 596 726 l 715 734 q 711 582 711 697 l 711 22 q 639 -210 711 -132 q 417 -288 567 -288 m 589 374 q 538 579 589 505 q 399 654 488 654 q 264 590 306 654 q 223 374 223 525 q 240 212 223 271 q 294 125 258 153 q 397 98 331 98 q 498 131 454 98 q 566 225 542 163 q 589 374 589 287 z "},"h":{"ha":833,"x_min":125,"x_max":711,"o":"m 125 1006 l 248 1006 l 248 742 q 242 608 248 702 l 244 608 q 474 747 315 747 q 711 489 711 747 l 711 0 l 589 0 l 589 471 q 553 608 589 564 q 439 653 517 653 q 301 592 355 653 q 248 425 248 530 l 248 0 l 125 0 l 125 1006 z "},"i":{"ha":833,"x_min":97,"x_max":763,"o":"m 505 96 l 763 96 l 763 0 l 97 0 l 97 96 l 383 96 l 383 637 l 167 637 l 167 734 l 505 734 l 505 96 m 370 876 l 370 1006 l 505 1006 l 505 876 l 370 876 z "},"j":{"ha":833,"x_min":79,"x_max":567,"o":"m 567 -19 q 491 -217 567 -146 q 275 -288 415 -288 q 165 -279 221 -288 q 79 -259 110 -271 l 79 -164 q 264 -187 181 -187 q 398 -142 351 -187 q 445 -17 445 -98 l 445 637 l 169 637 l 169 734 l 567 734 l 567 -19 m 431 876 l 431 1006 l 567 1006 l 567 876 l 431 876 z "},"k":{"ha":833,"x_min":160,"x_max":763,"o":"m 620 0 l 372 338 l 282 272 l 282 0 l 160 0 l 160 1006 l 282 1006 l 282 378 l 604 734 l 747 734 l 450 418 l 763 0 l 620 0 z "},"l":{"ha":833,"x_min":91,"x_max":757,"o":"m 499 96 l 757 96 l 757 0 l 91 0 l 91 96 l 377 96 l 377 910 l 181 910 l 181 1006 l 499 1006 l 499 96 z "},"m":{"ha":833,"x_min":67,"x_max":762,"o":"m 360 0 l 360 465 q 343 611 360 570 q 283 653 327 653 q 213 588 239 653 q 186 412 186 523 l 186 0 l 71 0 l 71 577 q 67 734 71 705 l 168 734 l 172 648 l 172 615 l 174 615 q 232 716 197 684 q 320 747 267 747 q 409 715 380 747 q 452 614 439 682 l 453 614 q 518 717 480 686 q 613 747 555 747 q 728 689 693 747 q 762 489 762 631 l 762 0 l 648 0 l 648 465 q 632 611 648 570 q 571 653 615 653 q 500 596 526 653 q 474 425 474 539 l 474 0 l 360 0 z "},"n":{"ha":833,"x_min":121,"x_max":711,"o":"m 589 0 l 589 471 q 553 608 589 564 q 439 653 517 653 q 301 592 355 653 q 248 425 248 530 l 248 0 l 125 0 l 125 577 q 121 734 125 705 l 237 734 q 238 715 237 730 q 240 681 239 701 q 242 608 241 662 l 244 608 q 479 747 315 747 q 654 684 596 747 q 711 489 711 621 l 711 0 l 589 0 z "},"o":{"ha":833,"x_min":88,"x_max":744,"o":"m 744 368 q 659 84 744 182 q 413 -14 574 -14 q 172 85 256 -14 q 88 368 88 184 q 174 652 88 557 q 417 747 260 747 q 663 653 583 747 q 744 368 744 559 m 616 368 q 569 585 616 513 q 419 657 523 657 q 265 584 314 657 q 216 368 216 511 q 265 151 216 225 q 412 77 314 77 q 568 149 519 77 q 616 368 616 222 z "},"p":{"ha":833,"x_min":121,"x_max":739,"o":"m 739 370 q 473 -14 739 -14 q 249 111 307 -14 l 245 111 q 248 -1 248 106 l 248 -288 l 125 -288 l 125 582 q 121 734 125 697 l 240 734 q 242 714 241 731 q 245 663 243 696 q 247 613 247 629 l 250 613 q 336 716 283 684 q 473 749 389 749 q 673 656 608 749 q 739 370 739 564 m 613 370 q 572 589 613 524 q 441 654 530 654 q 294 580 339 654 q 248 355 248 506 q 294 144 248 211 q 440 77 339 77 q 572 145 530 77 q 613 370 613 214 z "},"q":{"ha":833,"x_min":94,"x_max":712,"o":"m 359 745 q 498 714 446 745 q 584 620 551 684 l 585 620 q 588 683 585 640 q 593 734 590 726 l 712 734 q 708 543 708 698 l 708 -288 l 585 -288 l 585 9 l 588 123 l 587 123 q 497 17 551 51 q 359 -18 444 -18 q 158 78 222 -18 q 94 361 94 173 q 359 745 94 745 m 585 376 q 539 587 585 519 q 393 654 493 654 q 261 585 302 654 q 220 365 220 516 q 261 146 220 215 q 391 77 302 77 q 538 151 491 77 q 585 376 585 224 z "},"r":{"ha":833,"x_min":164,"x_max":709,"o":"m 709 623 q 565 635 633 635 q 389 553 456 635 q 321 345 321 471 l 321 0 l 199 0 l 199 475 q 190 597 199 527 q 164 734 181 667 l 280 734 q 313 564 307 640 l 316 564 q 382 676 350 640 q 460 729 415 711 q 569 747 505 747 q 709 736 640 747 l 709 623 z "},"s":{"ha":833,"x_min":113,"x_max":719,"o":"m 719 210 q 640 46 719 105 q 421 -14 561 -14 q 209 30 281 -14 q 113 168 136 74 l 221 189 q 276 104 234 131 q 421 77 319 77 q 604 193 604 77 q 571 263 604 237 q 469 307 538 290 q 242 376 290 351 q 168 439 194 401 q 142 533 142 477 q 214 689 142 633 q 422 745 286 745 q 613 700 542 745 q 702 569 684 655 l 592 555 q 544 629 585 604 q 422 654 503 654 q 256 552 256 654 q 284 487 256 511 q 375 448 313 463 l 456 427 q 615 373 566 399 q 691 307 663 347 q 719 210 719 267 z "},"t":{"ha":833,"x_min":129,"x_max":690,"o":"m 129 637 l 129 734 l 244 734 l 283 925 l 365 925 l 365 734 l 658 734 l 658 637 l 365 637 l 365 195 q 394 116 365 142 q 488 90 422 90 q 690 113 579 90 l 690 20 q 463 -11 575 -11 q 298 36 353 -11 q 243 182 243 82 l 243 637 l 129 637 z "},"u":{"ha":833,"x_min":125,"x_max":715,"o":"m 248 734 l 248 269 q 281 122 248 163 q 399 81 314 81 q 538 140 487 81 q 589 309 589 200 l 589 734 l 711 734 l 711 157 q 715 0 711 28 l 600 0 q 599 18 600 3 q 597 53 598 33 q 595 125 596 72 l 593 125 q 495 18 551 50 q 358 -14 440 -14 q 181 46 237 -14 q 125 245 125 106 l 125 734 l 248 734 z "},"v":{"ha":833,"x_min":47,"x_max":786,"o":"m 485 0 l 340 0 l 47 734 l 184 734 l 366 256 l 377 220 l 412 96 l 436 175 l 463 255 l 650 734 l 786 734 l 485 0 z "},"w":{"ha":833,"x_min":14,"x_max":819,"o":"m 690 0 l 552 0 l 455 319 l 416 456 l 390 362 l 276 0 l 138 0 l 14 734 l 135 734 l 198 322 q 220 101 220 143 q 260 246 247 210 l 351 534 l 482 534 l 570 245 q 608 101 592 174 q 610 152 608 121 q 617 215 613 182 q 625 276 621 247 q 631 322 629 305 l 700 734 l 819 734 l 690 0 z "},"x":{"ha":833,"x_min":64,"x_max":768,"o":"m 632 0 l 414 301 l 195 0 l 64 0 l 345 377 l 76 734 l 211 734 l 414 448 l 616 734 l 753 734 l 484 378 l 768 0 l 632 0 z "},"y":{"ha":833,"x_min":45,"x_max":787,"o":"m 198 -288 q 114 -281 148 -288 l 114 -189 q 171 -193 140 -193 q 272 -153 224 -193 q 351 -26 319 -113 l 363 7 l 45 734 l 175 734 l 354 298 q 420 126 416 146 l 448 201 l 659 734 l 787 734 l 478 0 q 353 -224 418 -159 q 198 -288 288 -288 z "},"z":{"ha":833,"x_min":100,"x_max":724,"o":"m 100 0 l 100 93 l 562 640 l 127 640 l 127 734 l 699 734 l 699 641 l 237 94 l 724 94 l 724 0 l 100 0 z "},"{":{"ha":833,"x_min":154,"x_max":720,"o":"m 540 -288 q 396 -231 452 -288 q 340 -83 340 -174 l 340 155 q 291 269 340 228 q 154 313 241 309 l 154 406 q 291 450 242 409 q 340 562 340 492 l 340 801 q 395 950 340 894 q 540 1006 450 1006 l 720 1006 l 720 912 l 575 912 q 486 882 513 912 q 459 780 459 852 l 459 545 q 416 428 459 479 q 302 361 372 378 l 302 359 q 415 293 372 343 q 459 174 459 243 l 459 -62 q 486 -164 459 -134 q 575 -194 513 -194 l 720 -194 l 720 -288 l 540 -288 z "},"|":{"ha":833,"x_min":360,"x_max":473,"o":"m 360 -288 l 360 1006 l 473 1006 l 473 -288 l 360 -288 z "},"}":{"ha":833,"x_min":113,"x_max":679,"o":"m 113 -288 l 113 -194 l 258 -194 q 347 -164 319 -194 q 374 -62 374 -134 l 374 174 q 418 293 374 243 q 530 359 461 343 l 530 361 q 418 429 461 378 q 374 545 374 479 l 374 780 q 347 882 374 851 q 258 912 320 912 l 113 912 l 113 1006 l 293 1006 q 438 950 383 1006 q 492 801 492 894 l 492 562 q 542 450 492 491 q 679 406 591 409 l 679 313 q 542 268 591 309 q 492 155 492 227 l 492 -83 q 437 -231 492 -174 q 293 -288 381 -288 l 113 -288 z "},"~":{"ha":833,"x_min":73,"x_max":760,"o":"m 252 547 q 411 516 321 547 q 540 475 511 481 q 594 468 570 468 q 760 530 682 468 l 760 429 q 680 388 719 401 q 583 375 641 375 q 487 390 536 375 q 389 422 438 405 q 241 453 301 453 q 157 439 196 453 q 73 393 117 425 l 73 490 q 252 547 149 547 z "},"Ä":{"ha":833,"x_min":0,"x_max":833,"o":"m 701 0 l 608 259 l 226 259 l 133 0 l 0 0 l 346 915 l 493 915 l 833 0 l 701 0 m 418 817 l 410 791 l 363 647 l 260 360 l 574 360 l 457 699 l 418 817 m 494 980 l 494 1105 l 605 1105 l 605 980 l 494 980 m 227 980 l 227 1105 l 339 1105 l 339 980 l 227 980 z "},"Å":{"ha":833,"x_min":0,"x_max":833,"o":"m 701 0 l 608 259 l 226 259 l 133 0 l 0 0 l 346 915 l 493 915 l 833 0 l 701 0 m 418 817 l 410 791 l 363 647 l 260 360 l 574 360 l 457 699 l 418 817 m 583 972 q 538 874 583 913 q 418 836 494 836 q 298 874 342 836 q 254 972 254 913 q 299 1069 254 1032 q 418 1107 345 1107 q 538 1069 494 1107 q 583 972 583 1031 m 500 972 q 478 1013 500 997 q 418 1028 456 1028 q 358 1013 381 1028 q 336 972 336 997 q 358 930 336 946 q 418 915 381 915 q 478 930 456 915 q 500 972 500 946 z "},"Ç":{"ha":833,"x_min":77,"x_max":774,"o":"m 213 462 q 271 184 213 277 q 448 92 329 92 q 572 138 517 92 q 667 283 628 184 l 774 239 q 447 -14 673 -14 q 173 109 269 -14 q 77 462 77 232 q 440 929 77 929 q 756 702 670 929 l 642 658 q 564 779 617 734 q 441 823 511 823 q 269 736 325 823 q 213 462 213 648 m 568 -175 q 382 -301 568 -301 q 321 -298 343 -301 l 321 -232 q 379 -236 355 -236 q 479 -178 479 -236 q 458 -136 479 -151 q 389 -122 437 -122 q 350 -123 359 -122 l 394 0 l 467 0 l 440 -68 q 536 -98 504 -70 q 568 -175 568 -126 z "},"É":{"ha":833,"x_min":110,"x_max":761,"o":"m 110 0 l 110 915 l 733 915 l 733 809 l 239 809 l 239 523 l 692 523 l 692 418 l 239 418 l 239 106 l 761 106 l 761 0 l 110 0 m 334 980 l 334 994 l 488 1156 l 622 1156 l 622 1136 l 418 980 l 334 980 z "},"Ñ":{"ha":833,"x_min":110,"x_max":723,"o":"m 567 0 l 214 766 q 225 594 225 650 l 225 0 l 110 0 l 110 915 l 260 915 l 618 143 q 606 329 606 241 l 606 915 l 723 915 l 723 0 l 567 0 m 522 981 q 465 993 494 981 q 410 1021 437 1006 q 356 1049 382 1036 q 307 1061 330 1061 q 279 1055 290 1061 q 262 1036 269 1048 q 248 981 256 1024 l 173 981 q 196 1079 180 1046 q 240 1131 212 1112 q 311 1149 268 1149 q 369 1136 340 1149 q 425 1108 397 1124 q 477 1081 452 1093 q 524 1068 502 1068 q 563 1084 549 1068 q 583 1149 576 1100 l 659 1149 q 615 1018 648 1055 q 522 981 581 981 z "},"Ö":{"ha":833,"x_min":69,"x_max":764,"o":"m 764 462 q 674 110 764 233 q 416 -14 584 -14 q 158 108 247 -14 q 69 462 69 229 q 157 810 69 690 q 417 929 245 929 q 674 811 585 929 q 764 462 764 694 m 627 462 q 417 823 627 823 q 205 462 205 823 q 259 185 205 279 q 416 92 313 92 q 577 186 527 92 q 627 462 627 281 m 496 980 l 496 1105 l 607 1105 l 607 980 l 496 980 m 229 980 l 229 1105 l 341 1105 l 341 980 l 229 980 z "},"Ü":{"ha":833,"x_min":96,"x_max":736,"o":"m 736 332 q 659 69 736 151 q 410 -14 581 -14 q 171 66 245 -14 q 96 320 96 146 l 96 915 l 226 915 l 226 338 q 266 145 226 199 q 410 92 305 92 q 563 147 519 92 q 607 347 607 203 l 607 915 l 736 915 l 736 332 m 494 980 l 494 1105 l 605 1105 l 605 980 l 494 980 m 227 980 l 227 1105 l 339 1105 l 339 980 l 227 980 z "},"á":{"ha":833,"x_min":87,"x_max":787,"o":"m 747 75 q 787 80 764 75 l 787 4 q 692 -7 741 -7 q 594 29 625 -7 q 559 140 563 64 l 555 140 q 451 22 511 58 q 302 -14 391 -14 q 141 45 195 -14 q 87 205 87 103 q 395 445 87 441 l 555 448 l 555 488 q 519 615 555 576 q 404 654 483 654 q 289 626 324 654 q 247 538 254 597 l 119 549 q 406 747 151 747 q 610 684 542 747 q 678 500 678 621 l 678 184 q 692 103 678 130 q 747 75 707 75 m 334 79 q 449 111 399 79 q 527 194 499 142 q 555 302 555 246 l 555 362 l 426 359 q 304 342 346 358 q 238 292 262 326 q 215 203 215 258 q 245 113 215 147 q 334 79 275 79 m 325 814 l 325 828 l 479 990 l 612 990 l 612 970 l 409 814 l 325 814 z "},"à":{"ha":833,"x_min":87,"x_max":787,"o":"m 747 75 q 787 80 764 75 l 787 4 q 692 -7 741 -7 q 594 29 625 -7 q 559 140 563 64 l 555 140 q 451 22 511 58 q 302 -14 391 -14 q 141 45 195 -14 q 87 205 87 103 q 395 445 87 441 l 555 448 l 555 488 q 519 615 555 576 q 404 654 483 654 q 289 626 324 654 q 247 538 254 597 l 119 549 q 406 747 151 747 q 610 684 542 747 q 678 500 678 621 l 678 184 q 692 103 678 130 q 747 75 707 75 m 334 79 q 449 111 399 79 q 527 194 499 142 q 555 302 555 246 l 555 362 l 426 359 q 304 342 346 358 q 238 292 262 326 q 215 203 215 258 q 245 113 215 147 q 334 79 275 79 m 399 814 l 195 970 l 195 990 l 329 990 l 483 828 l 483 814 l 399 814 z "},"â":{"ha":833,"x_min":87,"x_max":787,"o":"m 747 75 q 787 80 764 75 l 787 4 q 692 -7 741 -7 q 594 29 625 -7 q 559 140 563 64 l 555 140 q 451 22 511 58 q 302 -14 391 -14 q 141 45 195 -14 q 87 205 87 103 q 395 445 87 441 l 555 448 l 555 488 q 519 615 555 576 q 404 654 483 654 q 289 626 324 654 q 247 538 254 597 l 119 549 q 406 747 151 747 q 610 684 542 747 q 678 500 678 621 l 678 184 q 692 103 678 130 q 747 75 707 75 m 334 79 q 449 111 399 79 q 527 194 499 142 q 555 302 555 246 l 555 362 l 426 359 q 304 342 346 358 q 238 292 262 326 q 215 203 215 258 q 245 113 215 147 q 334 79 275 79 m 629 828 l 629 814 l 557 814 l 409 908 l 408 908 l 250 814 l 180 814 l 180 828 l 352 990 l 463 990 l 629 828 z "},"ä":{"ha":833,"x_min":87,"x_max":787,"o":"m 747 75 q 787 80 764 75 l 787 4 q 692 -7 741 -7 q 594 29 625 -7 q 559 140 563 64 l 555 140 q 451 22 511 58 q 302 -14 391 -14 q 141 45 195 -14 q 87 205 87 103 q 395 445 87 441 l 555 448 l 555 488 q 519 615 555 576 q 404 654 483 654 q 289 626 324 654 q 247 538 254 597 l 119 549 q 406 747 151 747 q 610 684 542 747 q 678 500 678 621 l 678 184 q 692 103 678 130 q 747 75 707 75 m 334 79 q 449 111 399 79 q 527 194 499 142 q 555 302 555 246 l 555 362 l 426 359 q 304 342 346 358 q 238 292 262 326 q 215 203 215 258 q 245 113 215 147 q 334 79 275 79 m 484 827 l 484 951 l 594 951 l 594 827 l 484 827 m 216 827 l 216 951 l 328 951 l 328 827 l 216 827 z "},"ã":{"ha":833,"x_min":87,"x_max":787,"o":"m 747 75 q 787 80 764 75 l 787 4 q 692 -7 741 -7 q 594 29 625 -7 q 559 140 563 64 l 555 140 q 451 22 511 58 q 302 -14 391 -14 q 141 45 195 -14 q 87 205 87 103 q 395 445 87 441 l 555 448 l 555 488 q 519 615 555 576 q 404 654 483 654 q 289 626 324 654 q 247 538 254 597 l 119 549 q 406 747 151 747 q 610 684 542 747 q 678 500 678 621 l 678 184 q 692 103 678 130 q 747 75 707 75 m 334 79 q 449 111 399 79 q 527 194 499 142 q 555 302 555 246 l 555 362 l 426 359 q 304 342 346 358 q 238 292 262 326 q 215 203 215 258 q 245 113 215 147 q 334 79 275 79 m 517 814 q 460 827 488 814 q 404 855 431 840 q 351 883 377 870 q 301 895 325 895 q 274 889 284 895 q 257 870 264 882 q 243 814 250 858 l 168 814 q 191 913 175 880 q 235 964 207 946 q 305 983 262 983 q 363 970 335 983 q 419 942 392 958 q 471 915 446 927 q 519 902 496 902 q 557 918 544 902 q 578 983 571 934 l 654 983 q 609 852 643 889 q 517 814 576 814 z "},"å":{"ha":833,"x_min":87,"x_max":787,"o":"m 747 75 q 787 80 764 75 l 787 4 q 692 -7 741 -7 q 594 29 625 -7 q 559 140 563 64 l 555 140 q 451 22 511 58 q 302 -14 391 -14 q 141 45 195 -14 q 87 205 87 103 q 395 445 87 441 l 555 448 l 555 488 q 519 615 555 576 q 404 654 483 654 q 289 626 324 654 q 247 538 254 597 l 119 549 q 406 747 151 747 q 610 684 542 747 q 678 500 678 621 l 678 184 q 692 103 678 130 q 747 75 707 75 m 334 79 q 449 111 399 79 q 527 194 499 142 q 555 302 555 246 l 555 362 l 426 359 q 304 342 346 358 q 238 292 262 326 q 215 203 215 258 q 245 113 215 147 q 334 79 275 79 m 575 914 q 531 817 575 855 q 411 779 486 779 q 291 817 335 779 q 247 914 247 855 q 292 1012 247 975 q 411 1049 337 1049 q 531 1011 486 1049 q 575 914 575 974 m 493 914 q 471 955 493 939 q 411 970 449 970 q 351 955 374 970 q 328 914 328 939 q 351 873 328 888 q 411 857 374 857 q 471 873 449 857 q 493 914 493 888 z "},"ç":{"ha":833,"x_min":88,"x_max":732,"o":"m 88 368 q 176 649 88 551 q 429 747 263 747 q 632 688 552 747 q 731 528 712 629 l 601 519 q 547 616 590 581 q 423 652 503 652 q 266 585 316 652 q 216 370 216 519 q 266 150 216 220 q 422 81 316 81 q 544 117 496 81 q 604 227 592 153 l 732 218 q 683 100 724 153 q 576 17 643 47 q 428 -14 510 -14 q 175 84 262 -14 q 88 368 88 182 m 556 -175 q 370 -301 556 -301 q 309 -298 332 -301 l 309 -232 q 368 -236 343 -236 q 467 -178 467 -236 q 447 -136 467 -151 q 377 -122 426 -122 q 338 -123 348 -122 l 382 0 l 455 0 l 429 -68 q 524 -98 492 -70 q 556 -175 556 -126 z "},"é":{"ha":833,"x_min":90,"x_max":742,"o":"m 218 341 q 273 148 218 218 q 422 78 328 78 q 545 108 492 78 q 615 191 597 138 l 722 160 q 613 31 692 76 q 422 -14 533 -14 q 176 86 262 -14 q 90 372 90 186 q 175 650 90 553 q 418 747 259 747 q 660 650 578 747 q 742 357 742 553 l 742 341 l 218 341 m 420 657 q 276 598 329 657 q 220 435 223 538 l 616 435 q 420 657 597 657 m 348 814 l 348 828 l 502 990 l 635 990 l 635 970 l 432 814 l 348 814 z "},"è":{"ha":833,"x_min":90,"x_max":742,"o":"m 218 341 q 273 148 218 218 q 422 78 328 78 q 545 108 492 78 q 615 191 597 138 l 722 160 q 613 31 692 76 q 422 -14 533 -14 q 176 86 262 -14 q 90 372 90 186 q 175 650 90 553 q 418 747 259 747 q 660 650 578 747 q 742 357 742 553 l 742 341 l 218 341 m 420 657 q 276 598 329 657 q 220 435 223 538 l 616 435 q 420 657 597 657 m 422 814 l 219 970 l 219 990 l 353 990 l 507 828 l 507 814 l 422 814 z "},"ê":{"ha":833,"x_min":90,"x_max":742,"o":"m 218 341 q 273 148 218 218 q 422 78 328 78 q 545 108 492 78 q 615 191 597 138 l 722 160 q 613 31 692 76 q 422 -14 533 -14 q 176 86 262 -14 q 90 372 90 186 q 175 650 90 553 q 418 747 259 747 q 660 650 578 747 q 742 357 742 553 l 742 341 l 218 341 m 420 657 q 276 598 329 657 q 220 435 223 538 l 616 435 q 420 657 597 657 m 646 828 l 646 814 l 574 814 l 426 908 l 425 908 l 267 814 l 197 814 l 197 828 l 369 990 l 480 990 l 646 828 z "},"ë":{"ha":833,"x_min":90,"x_max":742,"o":"m 218 341 q 273 148 218 218 q 422 78 328 78 q 545 108 492 78 q 615 191 597 138 l 722 160 q 613 31 692 76 q 422 -14 533 -14 q 176 86 262 -14 q 90 372 90 186 q 175 650 90 553 q 418 747 259 747 q 660 650 578 747 q 742 357 742 553 l 742 341 l 218 341 m 420 657 q 276 598 329 657 q 220 435 223 538 l 616 435 q 420 657 597 657 m 500 827 l 500 951 l 610 951 l 610 827 l 500 827 m 233 827 l 233 951 l 345 951 l 345 827 l 233 827 z "},"í":{"ha":833,"x_min":97,"x_max":763,"o":"m 505 96 l 763 96 l 763 0 l 97 0 l 97 96 l 383 96 l 383 637 l 167 637 l 167 734 l 505 734 l 505 96 m 343 814 l 343 828 l 497 990 l 631 990 l 631 970 l 427 814 l 343 814 z "},"ì":{"ha":833,"x_min":97,"x_max":763,"o":"m 505 96 l 763 96 l 763 0 l 97 0 l 97 96 l 383 96 l 383 637 l 167 637 l 167 734 l 505 734 l 505 96 m 431 814 l 227 970 l 227 990 l 361 990 l 515 828 l 515 814 l 431 814 z "},"î":{"ha":833,"x_min":97,"x_max":763,"o":"m 505 96 l 763 96 l 763 0 l 97 0 l 97 96 l 383 96 l 383 637 l 167 637 l 167 734 l 505 734 l 505 96 m 648 828 l 648 814 l 576 814 l 428 908 l 427 908 l 269 814 l 199 814 l 199 828 l 371 990 l 482 990 l 648 828 z "},"ï":{"ha":833,"x_min":97,"x_max":763,"o":"m 505 96 l 763 96 l 763 0 l 97 0 l 97 96 l 383 96 l 383 637 l 167 637 l 167 734 l 505 734 l 505 96 m 522 827 l 522 951 l 633 951 l 633 827 l 522 827 m 255 827 l 255 951 l 367 951 l 367 827 l 255 827 z "},"ñ":{"ha":833,"x_min":121,"x_max":711,"o":"m 589 0 l 589 471 q 553 608 589 564 q 439 653 517 653 q 301 592 355 653 q 248 425 248 530 l 248 0 l 125 0 l 125 577 q 121 734 125 705 l 237 734 q 238 715 237 730 q 240 681 239 701 q 242 608 241 662 l 244 608 q 479 747 315 747 q 654 684 596 747 q 711 489 711 621 l 711 0 l 589 0 m 529 814 q 472 827 500 814 q 416 855 444 840 q 363 883 389 870 q 313 895 337 895 q 286 889 296 895 q 269 870 276 882 q 255 814 262 858 l 180 814 q 203 913 187 880 q 247 964 219 946 q 317 983 275 983 q 376 970 347 983 q 431 942 404 958 q 484 915 458 927 q 531 902 509 902 q 570 918 556 902 q 590 983 583 934 l 666 983 q 622 852 655 889 q 529 814 588 814 z "},"ó":{"ha":833,"x_min":88,"x_max":744,"o":"m 744 368 q 659 84 744 182 q 413 -14 574 -14 q 172 85 256 -14 q 88 368 88 184 q 174 652 88 557 q 417 747 260 747 q 663 653 583 747 q 744 368 744 559 m 616 368 q 569 585 616 513 q 419 657 523 657 q 265 584 314 657 q 216 368 216 511 q 265 151 216 225 q 412 77 314 77 q 568 149 519 77 q 616 368 616 222 m 341 814 l 341 828 l 495 990 l 629 990 l 629 970 l 425 814 l 341 814 z "},"ò":{"ha":833,"x_min":88,"x_max":744,"o":"m 744 368 q 659 84 744 182 q 413 -14 574 -14 q 172 85 256 -14 q 88 368 88 184 q 174 652 88 557 q 417 747 260 747 q 663 653 583 747 q 744 368 744 559 m 616 368 q 569 585 616 513 q 419 657 523 657 q 265 584 314 657 q 216 368 216 511 q 265 151 216 225 q 412 77 314 77 q 568 149 519 77 q 616 368 616 222 m 429 814 l 225 970 l 225 990 l 359 990 l 513 828 l 513 814 l 429 814 z "},"ô":{"ha":833,"x_min":88,"x_max":744,"o":"m 744 368 q 659 84 744 182 q 413 -14 574 -14 q 172 85 256 -14 q 88 368 88 184 q 174 652 88 557 q 417 747 260 747 q 663 653 583 747 q 744 368 744 559 m 616 368 q 569 585 616 513 q 419 657 523 657 q 265 584 314 657 q 216 368 216 511 q 265 151 216 225 q 412 77 314 77 q 568 149 519 77 q 616 368 616 222 m 641 828 l 641 814 l 570 814 l 421 908 l 420 908 l 262 814 l 192 814 l 192 828 l 364 990 l 475 990 l 641 828 z "},"ö":{"ha":833,"x_min":88,"x_max":744,"o":"m 744 368 q 659 84 744 182 q 413 -14 574 -14 q 172 85 256 -14 q 88 368 88 184 q 174 652 88 557 q 417 747 260 747 q 663 653 583 747 q 744 368 744 559 m 616 368 q 569 585 616 513 q 419 657 523 657 q 265 584 314 657 q 216 368 216 511 q 265 151 216 225 q 412 77 314 77 q 568 149 519 77 q 616 368 616 222 m 494 827 l 494 951 l 605 951 l 605 827 l 494 827 m 227 827 l 227 951 l 339 951 l 339 827 l 227 827 z "},"õ":{"ha":833,"x_min":88,"x_max":744,"o":"m 744 368 q 659 84 744 182 q 413 -14 574 -14 q 172 85 256 -14 q 88 368 88 184 q 174 652 88 557 q 417 747 260 747 q 663 653 583 747 q 744 368 744 559 m 616 368 q 569 585 616 513 q 419 657 523 657 q 265 584 314 657 q 216 368 216 511 q 265 151 216 225 q 412 77 314 77 q 568 149 519 77 q 616 368 616 222 m 522 814 q 465 827 494 814 q 410 855 437 840 q 356 883 382 870 q 307 895 330 895 q 279 889 290 895 q 262 870 269 882 q 248 814 256 858 l 173 814 q 196 913 180 880 q 240 964 212 946 q 311 983 268 983 q 369 970 340 983 q 425 942 397 958 q 477 915 452 927 q 524 902 502 902 q 563 918 549 902 q 583 983 576 934 l 659 983 q 615 852 648 889 q 522 814 581 814 z "},"ú":{"ha":833,"x_min":125,"x_max":715,"o":"m 248 734 l 248 269 q 281 122 248 163 q 399 81 314 81 q 538 140 487 81 q 589 309 589 200 l 589 734 l 711 734 l 711 157 q 715 0 711 28 l 600 0 q 599 18 600 3 q 597 53 598 33 q 595 125 596 72 l 593 125 q 495 18 551 50 q 358 -14 440 -14 q 181 46 237 -14 q 125 245 125 106 l 125 734 l 248 734 m 334 814 l 334 828 l 488 990 l 621 990 l 621 970 l 418 814 l 334 814 z "},"ù":{"ha":833,"x_min":125,"x_max":715,"o":"m 248 734 l 248 269 q 281 122 248 163 q 399 81 314 81 q 538 140 487 81 q 589 309 589 200 l 589 734 l 711 734 l 711 157 q 715 0 711 28 l 600 0 q 599 18 600 3 q 597 53 598 33 q 595 125 596 72 l 593 125 q 495 18 551 50 q 358 -14 440 -14 q 181 46 237 -14 q 125 245 125 106 l 125 734 l 248 734 m 412 814 l 209 970 l 209 990 l 342 990 l 496 828 l 496 814 l 412 814 z "},"û":{"ha":833,"x_min":125,"x_max":715,"o":"m 248 734 l 248 269 q 281 122 248 163 q 399 81 314 81 q 538 140 487 81 q 589 309 589 200 l 589 734 l 711 734 l 711 157 q 715 0 711 28 l 600 0 q 599 18 600 3 q 597 53 598 33 q 595 125 596 72 l 593 125 q 495 18 551 50 q 358 -14 440 -14 q 181 46 237 -14 q 125 245 125 106 l 125 734 l 248 734 m 641 828 l 641 814 l 570 814 l 421 908 l 420 908 l 262 814 l 192 814 l 192 828 l 364 990 l 475 990 l 641 828 z "},"ü":{"ha":833,"x_min":125,"x_max":715,"o":"m 248 734 l 248 269 q 281 122 248 163 q 399 81 314 81 q 538 140 487 81 q 589 309 589 200 l 589 734 l 711 734 l 711 157 q 715 0 711 28 l 600 0 q 599 18 600 3 q 597 53 598 33 q 595 125 596 72 l 593 125 q 495 18 551 50 q 358 -14 440 -14 q 181 46 237 -14 q 125 245 125 106 l 125 734 l 248 734 m 494 827 l 494 951 l 605 951 l 605 827 l 494 827 m 227 827 l 227 951 l 339 951 l 339 827 l 227 827 z "},"†":{"ha":833,"x_min":123,"x_max":709,"o":"m 465 671 l 455 -144 l 377 -144 l 368 671 l 123 659 l 123 770 l 368 758 l 350 1006 l 482 1006 l 465 758 l 709 770 l 709 659 l 465 671 z "},"°":{"ha":833,"x_min":222,"x_max":611,"o":"m 611 736 q 554 599 611 655 q 416 543 496 543 q 279 600 336 543 q 222 736 222 656 q 278 872 222 815 q 416 929 335 929 q 554 873 498 929 q 611 736 611 817 m 537 736 q 502 823 537 787 q 416 858 467 858 q 331 822 366 858 q 296 736 296 786 q 331 650 296 686 q 416 614 367 614 q 502 649 467 614 q 537 736 537 685 z "},"¢":{"ha":833,"x_min":90,"x_max":742,"o":"m 431 182 q 557 220 507 182 q 618 330 607 258 l 742 321 q 655 163 728 225 q 473 91 583 100 l 473 -41 l 387 -41 l 387 91 q 168 194 245 101 q 90 445 90 288 q 169 703 90 608 q 387 810 248 798 l 387 935 l 473 935 l 473 810 q 649 744 580 802 q 738 592 718 687 l 612 583 q 556 681 601 644 q 429 718 512 718 q 269 649 323 718 q 214 453 214 581 q 271 251 214 319 q 431 182 328 182 z "},"£":{"ha":833,"x_min":38,"x_max":794,"o":"m 794 163 q 635 0 760 0 l 38 0 l 38 104 q 121 161 97 134 q 158 225 145 187 q 170 319 170 264 l 170 415 l 44 415 l 44 511 l 170 511 l 170 661 q 244 861 170 792 q 456 929 317 929 q 629 888 560 929 q 722 773 699 847 l 604 734 q 549 799 589 777 q 456 821 509 821 q 333 782 374 821 q 292 658 292 743 l 292 511 l 569 511 l 569 415 l 292 415 l 292 321 q 268 185 292 234 q 187 107 243 137 l 594 107 q 653 125 634 107 q 680 179 673 143 l 794 163 z "},"§":{"ha":833,"x_min":108,"x_max":724,"o":"m 429 1006 q 618 961 546 1006 q 709 830 690 916 l 600 817 q 546 898 590 870 q 429 925 503 925 q 300 895 344 925 q 256 817 256 865 q 277 760 256 784 q 335 719 297 736 q 460 680 372 701 q 613 628 560 656 q 695 560 666 600 q 724 465 724 520 q 684 347 724 398 q 576 280 644 296 q 686 204 652 248 q 720 98 720 160 q 642 -59 720 -2 q 421 -117 564 -117 q 205 -72 279 -117 q 108 68 131 -26 l 217 89 q 279 -5 231 26 q 421 -35 328 -35 q 561 -3 510 -35 q 612 87 612 30 q 590 152 612 125 q 529 197 568 178 q 381 243 489 216 q 191 326 249 273 q 134 455 134 379 q 175 566 134 515 q 288 636 217 616 q 185 703 223 658 q 148 807 148 749 q 219 954 148 901 q 429 1006 291 1006 m 617 450 q 570 534 617 498 q 404 597 523 569 q 286 557 330 593 q 242 464 242 521 q 262 406 242 431 q 320 363 282 381 q 445 322 357 345 q 571 358 526 323 q 617 450 617 392 z "},"•":{"ha":833,"x_min":228,"x_max":604,"o":"m 604 463 q 548 328 604 383 q 414 272 491 272 q 283 328 338 272 q 228 463 228 383 q 283 594 228 541 q 414 648 338 648 q 548 594 492 648 q 604 463 604 541 z "},"¶":{"ha":833,"x_min":86,"x_max":732,"o":"m 645 832 l 645 -220 l 555 -220 l 555 832 l 422 832 l 422 -220 l 332 -220 l 332 430 q 152 493 218 430 q 86 671 86 555 q 153 850 86 785 q 337 915 220 915 l 732 915 l 732 832 l 645 832 z "},"ß":{"ha":833,"x_min":96,"x_max":791,"o":"m 791 200 q 727 39 791 97 q 549 -20 663 -20 q 357 14 433 -20 l 355 125 q 447 90 395 102 q 546 78 499 78 q 642 110 608 78 q 675 196 675 142 q 647 277 675 241 q 551 354 619 313 q 458 434 489 391 q 427 532 427 477 q 447 608 427 574 q 503 672 466 642 q 560 733 542 705 q 578 795 578 762 q 532 879 578 848 q 413 911 487 911 q 266 857 313 911 q 218 692 218 802 l 218 0 l 96 0 l 96 696 q 176 928 96 850 q 413 1006 256 1006 q 618 952 542 1006 q 694 805 694 897 q 618 643 694 711 q 555 580 570 600 q 541 536 541 559 q 564 485 541 508 q 667 407 586 461 q 759 315 727 366 q 791 200 791 264 z "},"®":{"ha":833,"x_min":21,"x_max":812,"o":"m 812 516 q 764 251 812 362 q 626 83 715 140 q 416 26 536 26 q 207 84 296 26 q 70 252 118 142 q 21 516 21 363 q 69 780 21 669 q 207 948 117 890 q 416 1006 297 1006 q 626 949 536 1006 q 764 781 715 891 q 812 516 812 671 m 749 516 q 661 831 749 720 q 416 942 573 942 q 240 893 314 942 q 125 748 165 844 q 85 516 85 652 q 172 201 85 313 q 416 90 258 90 q 662 201 574 90 q 749 516 749 312 m 553 233 l 418 460 l 309 460 l 309 233 l 222 233 l 222 796 l 431 796 q 578 753 527 796 q 629 635 629 711 q 594 525 629 566 q 501 470 559 483 l 651 233 l 553 233 m 543 634 q 511 705 543 681 q 424 730 479 730 l 309 730 l 309 526 l 432 526 q 515 554 486 526 q 543 634 543 583 z "},"©":{"ha":833,"x_min":21,"x_max":812,"o":"m 270 517 q 310 355 270 414 q 422 296 350 296 q 498 321 466 296 q 555 402 531 347 l 633 378 q 546 262 597 298 q 422 226 494 226 q 245 303 308 226 q 182 517 182 380 q 243 730 182 654 q 417 805 303 805 q 623 663 564 805 l 545 641 q 495 710 528 686 q 418 734 462 734 q 308 679 346 734 q 270 517 270 625 m 812 516 q 764 251 812 362 q 626 83 715 140 q 416 26 536 26 q 207 84 296 26 q 70 252 118 142 q 21 516 21 363 q 69 780 21 669 q 207 948 117 890 q 416 1006 297 1006 q 626 949 536 1006 q 764 781 715 891 q 812 516 812 671 m 749 516 q 661 831 749 720 q 416 942 573 942 q 240 893 314 942 q 125 748 165 844 q 85 516 85 652 q 172 201 85 313 q 416 90 258 90 q 662 201 574 90 q 749 516 749 312 z "},"™":{"ha":833,"x_min":3,"x_max":830,"o":"m 759 571 l 759 918 l 755 906 l 619 571 l 559 571 q 423 918 455 834 l 423 571 l 352 571 l 352 1006 l 458 1006 l 583 690 l 591 667 l 633 774 l 727 1006 l 830 1006 l 830 571 l 759 571 m 194 943 l 194 571 l 119 571 l 119 943 l 3 943 l 3 1006 l 313 1006 l 313 943 l 194 943 z "},"´":{"ha":833,"x_min":273,"x_max":560,"o":"m 273 814 l 273 828 l 427 990 l 560 990 l 560 970 l 357 814 l 273 814 z "},"¨":{"ha":833,"x_min":227,"x_max":605,"o":"m 494 827 l 494 951 l 605 951 l 605 827 l 494 827 m 227 827 l 227 951 l 339 951 l 339 827 l 227 827 z "},"≠":{"ha":833,"x_min":79,"x_max":753,"o":"m 338 233 l 235 37 l 137 37 l 239 233 l 79 233 l 79 334 l 290 334 l 418 581 l 79 581 l 79 681 l 467 681 l 572 879 l 669 879 l 566 681 l 753 681 l 753 581 l 516 581 l 387 334 l 753 334 l 753 233 l 338 233 z "},"Æ":{"ha":833,"x_min":1,"x_max":810,"o":"m 438 279 l 211 279 l 115 0 l 1 0 l 330 915 l 783 915 l 783 812 l 554 812 l 554 520 l 776 520 l 776 418 l 554 418 l 554 103 l 810 103 l 810 0 l 438 0 l 438 279 m 438 815 l 389 815 q 360 716 386 804 q 245 380 334 628 l 438 380 l 438 815 z "},"Ø":{"ha":833,"x_min":38,"x_max":793,"o":"m 764 462 q 674 110 764 233 q 416 -14 584 -14 q 181 80 268 -14 l 102 -26 l 38 18 l 134 146 q 69 462 69 264 q 157 810 69 690 q 417 929 245 929 q 651 838 564 929 l 730 944 l 793 900 l 699 773 q 764 462 764 658 m 627 462 q 607 650 627 573 l 260 185 q 416 92 313 92 q 577 186 527 92 q 627 462 627 281 m 205 462 q 226 271 205 349 l 573 734 q 417 823 521 823 q 205 462 205 823 z "},"∞":{"ha":833,"x_min":20,"x_max":810,"o":"m 810 400 q 756 213 810 288 q 619 138 702 138 q 413 329 494 138 q 321 193 375 243 q 212 142 268 142 q 73 214 127 142 q 20 404 20 286 q 74 593 20 520 q 212 667 129 667 q 414 475 336 667 q 621 663 503 663 q 759 590 707 663 q 810 400 810 518 m 603 574 q 527 531 562 574 q 459 400 492 488 q 524 270 490 313 q 604 227 559 227 q 684 275 652 227 q 716 401 716 323 q 684 524 716 474 q 603 574 652 574 m 370 404 q 306 534 340 491 q 225 578 271 578 q 146 528 177 578 q 115 403 115 479 q 146 278 115 325 q 227 231 177 231 q 370 404 306 231 z "},"±":{"ha":833,"x_min":79,"x_max":753,"o":"m 466 461 l 466 193 l 366 193 l 366 461 l 79 461 l 79 559 l 366 559 l 366 827 l 466 827 l 466 559 l 753 559 l 753 461 l 466 461 m 79 0 l 79 98 l 753 98 l 753 0 l 79 0 z "},"≤":{"ha":833,"x_min":78,"x_max":754,"o":"m 79 428 l 79 567 l 754 835 l 754 730 l 172 497 l 754 264 l 754 160 l 79 428 m 78 0 l 78 98 l 753 98 l 753 0 l 78 0 z "},"≥":{"ha":833,"x_min":79,"x_max":753,"o":"m 79 160 l 79 264 l 661 497 l 79 730 l 79 835 l 753 567 l 753 428 l 79 160 m 79 0 l 79 98 l 753 98 l 753 0 l 79 0 z "},"¥":{"ha":833,"x_min":35,"x_max":798,"o":"m 518 460 l 736 460 l 736 364 l 476 364 l 476 271 l 736 271 l 736 174 l 476 174 l 476 0 l 355 0 l 355 174 l 97 174 l 97 271 l 355 271 l 357 364 l 97 364 l 97 460 l 314 460 l 35 915 l 170 915 l 415 496 l 663 915 l 798 915 l 518 460 z "},"µ":{"ha":833,"x_min":98,"x_max":735,"o":"m 621 0 q 617 62 620 7 q 614 135 614 117 l 612 135 q 385 -14 540 -14 q 286 8 330 -14 q 221 69 243 30 l 218 69 q 221 -14 221 40 l 221 -267 l 98 -267 l 98 734 l 221 734 l 221 297 q 400 82 221 82 q 549 148 489 82 q 608 315 608 213 l 608 734 l 731 734 l 731 158 q 735 0 731 28 l 621 0 z "},"∂":{"ha":833,"x_min":71,"x_max":762,"o":"m 762 636 q 730 385 762 515 q 642 165 699 256 q 505 28 585 75 q 327 -18 425 -18 q 138 50 204 -18 q 71 241 71 118 q 100 407 71 321 q 176 552 128 492 q 289 647 223 613 q 435 681 355 681 q 555 647 503 681 q 632 557 607 614 l 635 557 q 638 636 638 600 q 589 840 638 769 q 441 911 539 911 q 353 898 400 911 q 271 860 307 884 l 298 960 q 465 1002 382 1002 q 684 908 607 1002 q 762 636 762 814 m 614 461 q 555 560 600 522 q 452 599 509 599 q 328 554 383 599 q 236 419 272 509 q 200 243 200 330 q 238 119 200 165 q 343 74 275 74 q 464 124 408 74 q 559 264 519 175 q 614 461 599 353 z "},"∑":{"ha":833,"x_min":18,"x_max":814,"o":"m 18 -309 l 18 -235 l 449 309 l 29 843 l 29 915 l 768 915 l 768 812 l 195 812 l 591 311 l 184 -205 l 814 -205 l 814 -309 l 18 -309 z "},"∏":{"ha":833,"x_min":71,"x_max":761,"o":"m 636 -309 l 636 805 l 201 805 l 201 -309 l 71 -309 l 71 915 l 761 915 l 761 -309 l 636 -309 z "},"∫":{"ha":833,"x_min":159,"x_max":673,"o":"m 595 928 q 509 887 539 928 q 479 770 479 847 l 479 -68 q 420 -247 479 -184 q 250 -309 361 -309 q 159 -296 197 -309 l 159 -196 q 239 -212 200 -212 q 354 -54 354 -212 l 354 782 q 413 960 354 899 q 585 1022 472 1022 q 673 1010 644 1022 l 673 909 q 595 928 640 928 z "},"ª":{"ha":833,"x_min":140,"x_max":692,"o":"m 140 590 q 201 711 140 669 q 382 754 262 753 l 512 757 l 512 786 q 390 909 512 909 q 302 886 333 909 q 263 811 271 863 l 162 818 q 234 930 174 890 q 393 971 294 971 q 553 926 496 971 q 609 790 609 880 l 609 593 q 620 533 609 553 q 659 513 630 513 q 692 518 676 513 l 692 454 q 623 446 659 446 q 515 554 519 446 l 512 554 q 433 472 483 502 q 315 441 384 441 q 186 480 233 441 q 140 590 140 519 m 239 604 q 267 535 239 560 q 342 510 295 510 q 428 533 389 510 q 490 593 467 556 q 512 667 512 630 l 512 701 l 408 699 q 279 674 319 696 q 239 604 239 651 z "},"º":{"ha":833,"x_min":153,"x_max":680,"o":"m 680 707 q 610 512 680 583 q 414 441 541 441 q 222 514 291 441 q 153 707 153 587 q 223 901 153 830 q 417 971 293 971 q 612 903 545 971 q 680 707 680 835 m 578 707 q 538 854 578 809 q 420 900 497 900 q 256 707 256 900 q 296 562 256 612 q 413 513 336 513 q 535 558 492 513 q 578 707 578 603 z "},"Ω":{"ha":833,"x_min":40,"x_max":794,"o":"m 417 929 q 681 819 583 929 q 778 523 778 709 q 719 283 778 395 q 549 98 660 172 q 659 106 629 106 l 794 106 l 794 0 l 467 0 l 467 152 q 602 308 557 218 q 646 514 646 397 q 587 745 646 666 q 418 823 529 823 q 246 743 304 823 q 189 514 189 663 q 233 308 189 397 q 368 152 277 218 l 368 0 l 40 0 l 40 106 l 176 106 q 285 98 205 106 q 115 284 174 172 q 56 523 56 395 q 154 820 56 710 q 417 929 251 929 z "},"æ":{"ha":833,"x_min":14,"x_max":819,"o":"m 460 341 l 460 330 q 586 78 464 78 q 667 110 637 78 q 708 191 697 142 l 802 160 q 589 -14 755 -14 q 460 24 507 -14 q 391 144 414 61 q 305 24 355 61 q 189 -14 254 -14 q 57 42 101 -14 q 14 205 14 98 q 237 445 14 441 l 351 448 l 351 488 q 329 617 351 579 q 258 654 307 654 q 185 627 208 654 q 158 538 163 600 l 44 549 q 110 700 57 652 q 258 747 162 747 q 425 653 377 747 q 592 747 483 747 q 762 651 705 747 q 819 357 819 555 l 819 341 l 460 341 m 128 203 q 148 113 128 147 q 205 79 167 79 q 281 110 249 79 q 332 191 314 140 q 351 302 351 242 l 351 362 l 268 359 q 187 342 214 358 q 144 292 159 326 q 128 203 128 258 m 583 657 q 495 598 527 657 q 462 435 464 539 l 707 435 q 671 604 701 551 q 583 657 641 657 z "},"ø":{"ha":833,"x_min":75,"x_max":758,"o":"m 758 368 q 669 85 758 183 q 413 -14 581 -14 q 189 59 275 -14 l 136 0 l 85 46 l 142 111 q 75 368 75 207 q 162 650 75 552 q 417 747 249 747 q 644 680 562 747 l 693 735 l 746 689 l 692 628 q 758 368 758 535 m 629 368 q 607 532 629 467 l 262 141 q 412 77 314 77 q 577 149 526 77 q 629 368 629 221 m 203 368 q 226 206 203 269 l 571 597 q 419 657 520 657 q 255 584 308 657 q 203 368 203 511 z "},"¿":{"ha":833,"x_min":104,"x_max":768,"o":"m 104 54 q 119 142 104 103 q 162 213 134 180 q 252 292 190 246 q 351 370 327 345 q 389 425 375 395 q 404 491 403 454 l 522 491 q 506 406 521 444 q 464 337 490 368 q 372 258 437 305 q 277 179 300 204 q 241 125 254 154 q 227 59 227 96 q 281 -55 227 -15 q 427 -94 335 -94 q 576 -45 519 -94 q 643 90 633 5 l 768 82 q 660 -124 750 -52 q 429 -196 569 -196 q 191 -131 277 -196 q 104 54 104 -65 m 528 733 l 528 597 l 395 597 l 395 733 l 528 733 z "},"¡":{"ha":833,"x_min":349,"x_max":484,"o":"m 366 465 l 466 465 l 482 -180 l 349 -180 l 366 465 m 484 734 l 484 597 l 352 597 l 352 734 l 484 734 z "},"¬":{"ha":833,"x_min":79,"x_max":753,"o":"m 655 122 l 655 412 l 79 412 l 79 511 l 753 511 l 753 122 l 655 122 z "},"√":{"ha":833,"x_min":53,"x_max":779,"o":"m 440 -9 l 368 -9 l 176 528 l 53 528 l 53 607 l 236 607 l 400 139 l 692 1099 l 779 1099 l 440 -9 z "},"ƒ":{"ha":833,"x_min":159,"x_max":725,"o":"m 616 928 q 725 913 670 928 l 698 821 q 610 833 661 833 q 527 813 553 833 q 488 728 501 792 l 469 635 l 674 635 l 657 546 l 452 546 l 287 -288 l 165 -288 l 330 546 l 159 546 l 177 635 l 347 635 l 367 738 q 452 885 391 842 q 616 928 513 928 z "},"≈":{"ha":833,"x_min":73,"x_max":760,"o":"m 583 514 q 487 529 536 514 q 389 561 438 543 q 241 591 298 591 q 160 579 199 591 q 73 532 121 566 l 73 629 q 252 686 151 686 q 354 671 304 686 q 451 640 404 656 l 461 636 q 548 611 522 616 q 594 606 574 606 q 760 669 682 606 l 760 568 q 680 527 719 540 q 583 514 641 514 m 594 321 q 760 383 682 321 l 760 283 q 679 240 719 253 q 583 228 640 228 q 487 243 536 228 q 389 275 438 258 q 241 307 298 307 q 157 293 196 307 q 73 248 117 279 l 73 343 q 252 400 149 400 q 411 369 321 400 q 540 328 511 334 q 594 321 570 321 z "},"∆":{"ha":833,"x_min":8,"x_max":825,"o":"m 8 0 l 8 98 l 332 956 l 497 956 l 825 100 l 825 0 l 8 0 m 415 864 l 349 676 l 138 106 l 694 106 l 481 676 l 415 864 z "},"«":{"ha":833,"x_min":86,"x_max":760,"o":"m 637 96 l 408 343 l 408 386 l 637 637 l 758 637 l 758 616 l 529 364 l 760 115 l 760 96 l 637 96 m 314 96 l 86 343 l 86 386 l 314 637 l 434 637 l 434 616 l 207 364 l 435 115 l 435 96 l 314 96 z "},"»":{"ha":833,"x_min":73,"x_max":746,"o":"m 517 96 l 396 96 l 396 115 l 625 364 l 397 616 l 397 637 l 517 637 l 746 386 l 746 343 l 517 96 m 195 96 l 73 96 l 73 115 l 302 364 l 74 616 l 74 637 l 195 637 l 422 386 l 422 343 l 195 96 z "},"…":{"ha":833,"x_min":79,"x_max":754,"o":"m 636 0 l 636 149 l 754 149 l 754 0 l 636 0 m 359 0 l 359 149 l 475 149 l 475 0 l 359 0 m 79 0 l 79 149 l 198 149 l 198 0 l 79 0 z "},"À":{"ha":833,"x_min":0,"x_max":833,"o":"m 701 0 l 608 259 l 226 259 l 133 0 l 0 0 l 346 915 l 493 915 l 833 0 l 701 0 m 418 817 l 410 791 l 363 647 l 260 360 l 574 360 l 457 699 l 418 817 m 413 979 l 210 1135 l 210 1155 l 343 1155 l 497 993 l 497 979 l 413 979 z "},"Ã":{"ha":833,"x_min":0,"x_max":833,"o":"m 701 0 l 608 259 l 226 259 l 133 0 l 0 0 l 346 915 l 493 915 l 833 0 l 701 0 m 418 817 l 410 791 l 363 647 l 260 360 l 574 360 l 457 699 l 418 817 m 522 980 q 465 992 494 980 q 410 1020 437 1005 q 356 1048 382 1036 q 307 1061 330 1061 q 279 1054 290 1061 q 262 1036 269 1048 q 248 980 256 1023 l 173 980 q 196 1078 180 1045 q 240 1130 212 1112 q 311 1148 268 1148 q 369 1136 340 1148 q 425 1108 397 1123 q 477 1080 452 1093 q 524 1067 502 1067 q 563 1083 549 1067 q 583 1148 576 1099 l 659 1148 q 615 1017 648 1055 q 522 980 581 980 z "},"Õ":{"ha":833,"x_min":69,"x_max":764,"o":"m 764 462 q 674 110 764 233 q 416 -14 584 -14 q 158 108 247 -14 q 69 462 69 229 q 157 810 69 690 q 417 929 245 929 q 674 811 585 929 q 764 462 764 694 m 627 462 q 417 823 627 823 q 205 462 205 823 q 259 185 205 279 q 416 92 313 92 q 577 186 527 92 q 627 462 627 281 m 522 980 q 465 992 494 980 q 410 1020 437 1005 q 356 1048 382 1036 q 307 1061 330 1061 q 279 1054 290 1061 q 262 1036 269 1048 q 248 980 256 1023 l 173 980 q 196 1078 180 1045 q 240 1130 212 1112 q 311 1148 268 1148 q 369 1136 340 1148 q 425 1108 397 1123 q 477 1080 452 1093 q 524 1067 502 1067 q 563 1083 549 1067 q 583 1148 576 1099 l 659 1148 q 615 1017 648 1055 q 522 980 581 980 z "},"Œ":{"ha":833,"x_min":14,"x_max":828,"o":"m 413 0 q 347 -3 374 -3 q 94 111 174 -3 q 14 462 14 226 q 94 809 14 699 q 348 919 174 919 q 422 915 387 919 l 800 915 l 800 812 l 530 812 l 530 513 l 779 513 l 779 412 l 530 412 l 530 103 l 828 103 l 828 0 l 413 0 m 347 95 q 415 99 396 95 l 415 816 q 348 820 389 820 q 187 733 237 820 q 136 462 136 646 q 189 185 136 275 q 347 95 241 95 z "},"œ":{"ha":833,"x_min":19,"x_max":817,"o":"m 483 341 q 512 145 483 213 q 597 78 542 78 q 667 110 641 78 q 703 191 694 142 l 797 160 q 598 -14 754 -14 q 420 111 475 -14 q 239 -14 363 -14 q 76 84 133 -14 q 19 368 19 182 q 77 652 19 557 q 244 747 134 747 q 425 627 371 747 q 600 747 482 747 q 817 357 817 747 l 817 341 l 483 341 m 368 368 q 341 587 368 516 q 253 657 315 657 q 162 587 191 657 q 134 368 134 516 q 249 77 134 77 q 340 148 313 77 q 368 368 368 218 m 593 657 q 515 598 545 657 q 484 435 486 540 l 704 435 q 671 604 699 551 q 593 657 644 657 z "},"–":{"ha":833,"x_min":115,"x_max":718,"o":"m 115 306 l 115 399 l 718 399 l 718 306 l 115 306 z "},"—":{"ha":833,"x_min":-7,"x_max":840,"o":"m -7 306 l -7 399 l 840 399 l 840 306 l -7 306 z "},"“":{"ha":833,"x_min":120,"x_max":712,"o":"m 414 1006 l 300 585 l 120 585 l 331 1006 l 414 1006 m 712 1006 l 597 585 l 418 585 l 629 1006 l 712 1006 z "},"”":{"ha":833,"x_min":121,"x_max":713,"o":"m 418 585 l 533 1006 l 713 1006 l 502 585 l 418 585 m 121 585 l 235 1006 l 415 1006 l 204 585 l 121 585 z "},"‘":{"ha":833,"x_min":269,"x_max":564,"o":"m 564 1006 l 449 585 l 269 585 l 480 1006 l 564 1006 z "},"’":{"ha":833,"x_min":271,"x_max":565,"o":"m 271 585 l 385 1006 l 565 1006 l 354 585 l 271 585 z "},"÷":{"ha":833,"x_min":79,"x_max":753,"o":"m 359 650 l 359 774 l 473 774 l 473 650 l 359 650 m 79 412 l 79 511 l 753 511 l 753 412 l 79 412 m 359 151 l 359 275 l 473 275 l 473 151 l 359 151 z "},"◊":{"ha":833,"x_min":78,"x_max":755,"o":"m 444 0 l 388 0 l 78 488 l 388 977 l 444 977 l 755 489 l 444 0 m 417 872 l 177 489 l 417 100 l 656 489 l 417 872 z "},"ÿ":{"ha":833,"x_min":45,"x_max":787,"o":"m 198 -288 q 114 -281 148 -288 l 114 -189 q 171 -193 140 -193 q 272 -153 224 -193 q 351 -26 319 -113 l 363 7 l 45 734 l 175 734 l 354 298 q 420 126 416 146 l 448 201 l 659 734 l 787 734 l 478 0 q 353 -224 418 -159 q 198 -288 288 -288 m 498 827 l 498 951 l 608 951 l 608 827 l 498 827 m 231 827 l 231 951 l 342 951 l 342 827 l 231 827 z "},"Ÿ":{"ha":833,"x_min":24,"x_max":808,"o":"m 480 396 l 480 0 l 353 0 l 353 396 l 24 915 l 163 915 l 417 500 l 669 915 l 808 915 l 480 396 m 495 980 l 495 1105 l 606 1105 l 606 980 l 495 980 m 228 980 l 228 1105 l 340 1105 l 340 980 l 228 980 z "},"⁄":{"ha":833,"x_min":138,"x_max":693,"o":"m 218 0 l 138 0 l 615 915 l 693 915 l 218 0 z "},"€":{"ha":833,"x_min":62,"x_max":762,"o":"m 592 314 l 281 314 q 345 144 292 197 q 500 92 397 92 q 597 106 551 92 q 710 162 644 121 l 762 71 q 629 6 694 25 q 493 -14 565 -14 q 257 68 343 -14 q 151 312 170 149 l 62 312 l 62 410 l 142 410 l 140 460 q 142 514 140 490 l 62 514 l 62 610 l 149 610 q 494 929 189 929 q 628 911 566 929 q 751 850 690 893 l 696 755 q 505 823 602 823 q 343 774 393 823 q 279 609 293 725 l 592 609 l 592 513 l 270 513 l 269 460 l 271 410 l 592 410 l 592 314 z "},"‹":{"ha":833,"x_min":235,"x_max":584,"o":"m 463 96 l 235 343 l 235 386 l 463 637 l 583 637 l 583 616 l 355 364 l 584 115 l 584 96 l 463 96 z "},"›":{"ha":833,"x_min":248,"x_max":597,"o":"m 369 96 l 248 96 l 248 115 l 477 364 l 250 616 l 250 637 l 369 637 l 597 386 l 597 343 l 369 96 z "},"ﬁ":{"ha":833,"x_min":57,"x_max":720,"o":"m 282 645 l 282 0 l 160 0 l 160 645 l 57 645 l 57 734 l 160 734 l 160 817 q 204 961 160 917 q 339 1005 248 1005 q 425 997 390 1005 l 425 904 q 371 909 395 909 q 303 886 324 909 q 282 800 282 862 l 282 734 l 425 734 l 425 645 l 282 645 m 597 890 l 597 1006 l 720 1006 l 720 890 l 597 890 m 597 0 l 597 734 l 720 734 l 720 0 l 597 0 z "},"ﬂ":{"ha":833,"x_min":57,"x_max":720,"o":"m 282 645 l 282 0 l 160 0 l 160 645 l 57 645 l 57 734 l 160 734 l 160 817 q 204 961 160 917 q 339 1005 248 1005 q 425 997 390 1005 l 425 904 q 371 909 395 909 q 303 886 324 909 q 282 800 282 862 l 282 734 l 425 734 l 425 645 l 282 645 m 597 0 l 597 1006 l 720 1006 l 720 0 l 597 0 z "},"‡":{"ha":833,"x_min":123,"x_max":709,"o":"m 709 202 l 709 91 l 465 104 l 482 -144 l 350 -144 l 368 104 l 123 91 l 123 202 l 368 191 l 391 431 l 368 671 l 123 659 l 123 770 l 368 758 l 350 1006 l 482 1006 l 465 758 l 709 770 l 709 659 l 465 671 l 441 431 l 465 191 l 709 202 z "},"∙":{"ha":833,"x_min":336,"x_max":496,"o":"m 336 285 l 336 488 l 496 488 l 496 285 l 336 285 z "},"‚":{"ha":833,"x_min":237,"x_max":531,"o":"m 237 -246 l 351 176 l 531 176 l 320 -246 l 237 -246 z "},"„":{"ha":833,"x_min":121,"x_max":713,"o":"m 418 -247 l 533 175 l 713 175 l 502 -247 l 418 -247 m 121 -247 l 235 175 l 415 175 l 204 -247 l 121 -247 z "},"‰":{"ha":833,"x_min":0,"x_max":833,"o":"m 100 268 l 1 268 l 397 701 l 496 701 l 100 268 m 160 957 q 277 906 239 957 q 315 756 315 856 q 274 604 315 655 q 157 552 234 552 q 39 604 79 552 q 0 756 0 656 q 39 907 0 857 q 160 957 77 957 m 227 756 q 211 853 227 823 q 159 884 196 884 q 104 854 121 884 q 88 756 88 825 q 105 658 88 688 q 159 629 122 629 q 227 756 227 629 m 336 405 q 491 204 491 405 q 451 52 491 103 q 334 0 410 0 q 216 52 256 0 q 176 204 176 103 q 214 355 176 304 q 336 405 253 405 m 403 204 q 387 302 403 273 q 335 332 370 332 q 280 302 297 332 q 264 204 264 273 q 280 108 264 140 q 334 77 296 77 q 386 107 369 77 q 403 204 403 137 m 678 405 q 795 354 758 405 q 833 204 833 304 q 792 52 833 103 q 675 0 752 0 q 558 52 598 0 q 518 204 518 104 q 557 355 518 304 q 678 405 595 405 m 745 204 q 729 302 745 273 q 677 332 713 332 q 623 302 639 332 q 606 204 606 273 q 623 106 606 136 q 677 77 640 77 q 745 204 745 77 z "},"Â":{"ha":833,"x_min":0,"x_max":833,"o":"m 701 0 l 608 259 l 226 259 l 133 0 l 0 0 l 346 915 l 493 915 l 833 0 l 701 0 m 418 817 l 410 791 l 363 647 l 260 360 l 574 360 l 457 699 l 418 817 m 641 994 l 641 980 l 570 980 l 421 1074 l 420 1074 l 262 980 l 192 980 l 192 994 l 364 1156 l 475 1156 l 641 994 z "},"Ê":{"ha":833,"x_min":110,"x_max":761,"o":"m 110 0 l 110 915 l 733 915 l 733 809 l 239 809 l 239 523 l 692 523 l 692 418 l 239 418 l 239 106 l 761 106 l 761 0 l 110 0 m 641 994 l 641 980 l 570 980 l 421 1074 l 420 1074 l 262 980 l 192 980 l 192 994 l 364 1156 l 475 1156 l 641 994 z "},"Á":{"ha":833,"x_min":0,"x_max":833,"o":"m 701 0 l 608 259 l 226 259 l 133 0 l 0 0 l 346 915 l 493 915 l 833 0 l 701 0 m 418 817 l 410 791 l 363 647 l 260 360 l 574 360 l 457 699 l 418 817 m 336 980 l 336 994 l 490 1156 l 623 1156 l 623 1136 l 420 980 l 336 980 z "},"Ë":{"ha":833,"x_min":110,"x_max":761,"o":"m 110 0 l 110 915 l 733 915 l 733 809 l 239 809 l 239 523 l 692 523 l 692 418 l 239 418 l 239 106 l 761 106 l 761 0 l 110 0 m 508 980 l 508 1105 l 618 1105 l 618 980 l 508 980 m 241 980 l 241 1105 l 353 1105 l 353 980 l 241 980 z "},"È":{"ha":833,"x_min":110,"x_max":761,"o":"m 110 0 l 110 915 l 733 915 l 733 809 l 239 809 l 239 523 l 692 523 l 692 418 l 239 418 l 239 106 l 761 106 l 761 0 l 110 0 m 428 980 l 224 1136 l 224 1156 l 358 1156 l 512 994 l 512 980 l 428 980 z "},"Í":{"ha":833,"x_min":137,"x_max":695,"o":"m 137 915 l 695 915 l 695 809 l 481 809 l 481 106 l 695 106 l 695 0 l 137 0 l 137 106 l 351 106 l 351 809 l 137 809 l 137 915 m 342 980 l 342 994 l 496 1156 l 630 1156 l 630 1136 l 427 980 l 342 980 z "},"Î":{"ha":833,"x_min":137,"x_max":695,"o":"m 137 915 l 695 915 l 695 809 l 481 809 l 481 106 l 695 106 l 695 0 l 137 0 l 137 106 l 351 106 l 351 809 l 137 809 l 137 915 m 641 994 l 641 980 l 570 980 l 421 1074 l 420 1074 l 262 980 l 192 980 l 192 994 l 364 1156 l 475 1156 l 641 994 z "},"Ï":{"ha":833,"x_min":137,"x_max":695,"o":"m 137 915 l 695 915 l 695 809 l 481 809 l 481 106 l 695 106 l 695 0 l 137 0 l 137 106 l 351 106 l 351 809 l 137 809 l 137 915 m 494 980 l 494 1105 l 605 1105 l 605 980 l 494 980 m 227 980 l 227 1105 l 339 1105 l 339 980 l 227 980 z "},"Ì":{"ha":833,"x_min":137,"x_max":695,"o":"m 137 915 l 695 915 l 695 809 l 481 809 l 481 106 l 695 106 l 695 0 l 137 0 l 137 106 l 351 106 l 351 809 l 137 809 l 137 915 m 421 980 l 218 1136 l 218 1156 l 351 1156 l 505 994 l 505 980 l 421 980 z "},"Ó":{"ha":833,"x_min":69,"x_max":764,"o":"m 764 462 q 674 110 764 233 q 416 -14 584 -14 q 158 108 247 -14 q 69 462 69 229 q 157 810 69 690 q 417 929 245 929 q 674 811 585 929 q 764 462 764 694 m 627 462 q 417 823 627 823 q 205 462 205 823 q 259 185 205 279 q 416 92 313 92 q 577 186 527 92 q 627 462 627 281 m 339 980 l 339 994 l 493 1156 l 627 1156 l 627 1136 l 423 980 l 339 980 z "},"Ô":{"ha":833,"x_min":69,"x_max":764,"o":"m 764 462 q 674 110 764 233 q 416 -14 584 -14 q 158 108 247 -14 q 69 462 69 229 q 157 810 69 690 q 417 929 245 929 q 674 811 585 929 q 764 462 764 694 m 627 462 q 417 823 627 823 q 205 462 205 823 q 259 185 205 279 q 416 92 313 92 q 577 186 527 92 q 627 462 627 281 m 641 994 l 641 980 l 570 980 l 421 1074 l 420 1074 l 262 980 l 192 980 l 192 994 l 364 1156 l 475 1156 l 641 994 z "},"Ò":{"ha":833,"x_min":69,"x_max":764,"o":"m 764 462 q 674 110 764 233 q 416 -14 584 -14 q 158 108 247 -14 q 69 462 69 229 q 157 810 69 690 q 417 929 245 929 q 674 811 585 929 q 764 462 764 694 m 627 462 q 417 823 627 823 q 205 462 205 823 q 259 185 205 279 q 416 92 313 92 q 577 186 527 92 q 627 462 627 281 m 418 980 l 214 1136 l 214 1156 l 348 1156 l 502 994 l 502 980 l 418 980 z "},"Ú":{"ha":833,"x_min":96,"x_max":736,"o":"m 736 332 q 659 69 736 151 q 410 -14 581 -14 q 171 66 245 -14 q 96 320 96 146 l 96 915 l 226 915 l 226 338 q 266 145 226 199 q 410 92 305 92 q 563 147 519 92 q 607 347 607 203 l 607 915 l 736 915 l 736 332 m 331 980 l 331 994 l 485 1156 l 618 1156 l 618 1136 l 415 980 l 331 980 z "},"Û":{"ha":833,"x_min":96,"x_max":736,"o":"m 736 332 q 659 69 736 151 q 410 -14 581 -14 q 171 66 245 -14 q 96 320 96 146 l 96 915 l 226 915 l 226 338 q 266 145 226 199 q 410 92 305 92 q 563 147 519 92 q 607 347 607 203 l 607 915 l 736 915 l 736 332 m 641 994 l 641 980 l 570 980 l 421 1074 l 420 1074 l 262 980 l 192 980 l 192 994 l 364 1156 l 475 1156 l 641 994 z "},"Ù":{"ha":833,"x_min":96,"x_max":736,"o":"m 736 332 q 659 69 736 151 q 410 -14 581 -14 q 171 66 245 -14 q 96 320 96 146 l 96 915 l 226 915 l 226 338 q 266 145 226 199 q 410 92 305 92 q 563 147 519 92 q 607 347 607 203 l 607 915 l 736 915 l 736 332 m 410 980 l 207 1136 l 207 1156 l 340 1156 l 494 994 l 494 980 l 410 980 z "},"ı":{"ha":833,"x_min":97,"x_max":763,"o":"m 505 96 l 763 96 l 763 0 l 97 0 l 97 96 l 383 96 l 383 637 l 167 637 l 167 734 l 505 734 l 505 96 z "},"ˆ":{"ha":833,"x_min":192,"x_max":641,"o":"m 641 828 l 641 814 l 570 814 l 421 908 l 420 908 l 262 814 l 192 814 l 192 828 l 364 990 l 475 990 l 641 828 z "},"˜":{"ha":833,"x_min":173,"x_max":659,"o":"m 522 814 q 465 827 494 814 q 410 855 437 840 q 356 883 382 870 q 307 895 330 895 q 279 889 290 895 q 262 870 269 882 q 248 814 256 858 l 173 814 q 196 913 180 880 q 240 964 212 946 q 311 983 268 983 q 369 970 340 983 q 425 942 397 958 q 477 915 452 927 q 524 902 502 902 q 563 918 549 902 q 583 983 576 934 l 659 983 q 615 852 648 889 q 522 814 581 814 z "},"ˉ":{"ha":833,"x_min":229,"x_max":602,"o":"m 602 838 l 229 838 l 229 924 l 602 924 l 602 838 z "},"˘":{"ha":833,"x_min":204,"x_max":629,"o":"m 416 814 q 275 863 332 814 q 204 990 218 911 l 290 990 q 331 924 302 947 q 416 900 360 900 q 502 924 473 900 q 543 990 531 947 l 629 990 q 556 862 612 909 q 416 814 500 814 z "},"˙":{"ha":833,"x_min":349,"x_max":485,"o":"m 349 876 l 349 1006 l 485 1006 l 485 876 l 349 876 z "},"˚":{"ha":833,"x_min":252,"x_max":581,"o":"m 581 914 q 536 817 581 855 q 416 779 492 779 q 296 817 340 779 q 252 914 252 855 q 297 1012 252 975 q 416 1049 342 1049 q 536 1011 492 1049 q 581 914 581 974 m 498 914 q 476 955 498 939 q 416 970 454 970 q 356 955 379 970 q 334 914 334 939 q 356 873 334 888 q 416 857 379 857 q 476 873 454 857 q 498 914 498 888 z "},"¸":{"ha":833,"x_min":81,"x_max":328,"o":"m 328 -175 q 142 -301 328 -301 q 81 -298 103 -301 l 81 -232 q 139 -236 115 -236 q 239 -178 239 -236 q 218 -136 239 -151 q 149 -122 197 -122 q 110 -123 119 -122 l 154 0 l 227 0 l 200 -68 q 296 -98 264 -70 q 328 -175 328 -126 z "},"˝":{"ha":833,"x_min":20,"x_max":534,"o":"m 267 814 l 267 828 l 407 990 l 534 990 l 534 970 l 330 814 l 267 814 m 20 814 l 20 828 l 160 990 l 287 990 l 287 970 l 83 814 l 20 814 z "},"˛":{"ha":833,"x_min":299,"x_max":536,"o":"m 536 -271 q 442 -290 494 -290 q 335 -255 371 -290 q 299 -163 299 -220 q 327 -72 299 -117 q 404 0 355 -28 l 494 0 q 423 -67 451 -24 q 395 -154 395 -109 q 411 -199 395 -182 q 458 -215 428 -215 q 536 -199 495 -215 l 536 -271 z "},"ˇ":{"ha":833,"x_min":192,"x_max":641,"o":"m 475 814 l 364 814 l 192 977 l 192 990 l 262 990 l 420 897 l 421 897 l 570 990 l 641 990 l 641 977 l 475 814 z "},"Ł":{"ha":833,"x_min":37,"x_max":746,"o":"m 161 0 l 161 311 l 81 269 l 37 351 l 161 416 l 161 915 l 290 915 l 290 484 l 488 586 l 530 504 l 290 378 l 290 106 l 746 106 l 746 0 l 161 0 z "},"ł":{"ha":833,"x_min":91,"x_max":757,"o":"m 499 600 l 652 687 l 694 610 l 499 499 l 499 96 l 757 96 l 757 0 l 91 0 l 91 96 l 377 96 l 377 431 l 229 347 l 186 423 l 377 531 l 377 910 l 147 910 l 147 1006 l 499 1006 l 499 600 z "},"Š":{"ha":833,"x_min":54,"x_max":765,"o":"m 765 251 q 674 56 765 126 q 414 -14 583 -14 q 54 229 104 -14 l 179 254 q 258 127 198 167 q 417 87 317 87 q 581 130 525 87 q 637 249 637 172 q 615 326 637 296 q 557 375 593 356 q 476 406 521 394 q 385 429 431 418 q 229 480 275 458 q 155 531 182 503 q 113 597 127 560 q 98 685 98 635 q 181 866 98 802 q 417 929 263 929 q 637 879 561 929 q 743 709 713 829 l 615 687 q 550 797 599 763 q 416 831 501 831 q 224 687 224 831 q 242 621 224 646 q 291 579 260 595 q 363 551 322 562 q 451 528 404 541 q 587 489 545 505 q 660 452 628 473 q 715 404 692 432 q 752 339 739 376 q 765 251 765 302 m 475 980 l 364 980 l 192 1142 l 192 1156 l 262 1156 l 420 1062 l 421 1062 l 570 1156 l 641 1156 l 641 1142 l 475 980 z "},"š":{"ha":833,"x_min":113,"x_max":719,"o":"m 719 210 q 640 46 719 105 q 421 -14 561 -14 q 209 30 281 -14 q 113 168 136 74 l 221 189 q 276 104 234 131 q 421 77 319 77 q 604 193 604 77 q 571 263 604 237 q 469 307 538 290 q 242 376 290 351 q 168 439 194 401 q 142 533 142 477 q 214 689 142 633 q 422 745 286 745 q 613 700 542 745 q 702 569 684 655 l 592 555 q 544 629 585 604 q 422 654 503 654 q 256 552 256 654 q 284 487 256 511 q 375 448 313 463 l 456 427 q 615 373 566 399 q 691 307 663 347 q 719 210 719 267 m 479 814 l 368 814 l 195 977 l 195 990 l 266 990 l 423 897 l 425 897 l 573 990 l 644 990 l 644 977 l 479 814 z "},"Ž":{"ha":833,"x_min":50,"x_max":783,"o":"m 783 0 l 50 0 l 50 97 l 604 809 l 99 809 l 99 915 l 751 915 l 751 821 l 197 106 l 783 106 l 783 0 m 482 980 l 371 980 l 199 1142 l 199 1156 l 269 1156 l 427 1062 l 428 1062 l 576 1156 l 648 1156 l 648 1142 l 482 980 z "},"ž":{"ha":833,"x_min":100,"x_max":724,"o":"m 100 0 l 100 93 l 562 640 l 127 640 l 127 734 l 699 734 l 699 641 l 237 94 l 724 94 l 724 0 l 100 0 m 476 814 l 365 814 l 193 977 l 193 990 l 263 990 l 420 897 l 422 897 l 570 990 l 642 990 l 642 977 l 476 814 z "},"¦":{"ha":833,"x_min":360,"x_max":473,"o":"m 360 458 l 360 986 l 473 986 l 473 458 l 360 458 m 360 -309 l 360 220 l 473 220 l 473 -309 l 360 -309 z "},"Ð":{"ha":833,"x_min":18,"x_max":763,"o":"m 763 467 q 659 121 763 242 q 361 0 555 0 l 110 0 l 110 405 l 18 405 l 18 506 l 110 506 l 110 915 l 321 915 q 653 803 544 915 q 763 467 763 692 m 435 405 l 239 405 l 239 106 l 349 106 q 563 196 493 106 q 633 467 633 286 q 558 727 633 646 q 321 809 484 809 l 239 809 l 239 506 l 435 506 l 435 405 z "},"ð":{"ha":833,"x_min":85,"x_max":747,"o":"m 415 664 q 572 624 508 664 q 422 839 514 756 l 246 761 l 209 836 l 357 899 q 193 1006 283 958 l 334 1006 q 450 937 389 982 l 629 1015 l 666 941 l 523 879 q 747 350 747 675 l 747 346 q 662 78 747 169 q 410 -14 577 -14 q 169 74 253 -14 q 85 326 85 161 q 169 578 85 492 q 415 664 253 664 m 619 326 q 571 515 619 456 q 418 574 524 574 q 262 515 311 574 q 213 326 213 456 q 262 137 213 197 q 409 77 311 77 q 569 136 518 77 q 619 326 619 195 z "},"Ý":{"ha":833,"x_min":24,"x_max":808,"o":"m 480 396 l 480 0 l 353 0 l 353 396 l 24 915 l 163 915 l 417 500 l 669 915 l 808 915 l 480 396 m 341 980 l 341 994 l 495 1156 l 629 1156 l 629 1136 l 425 980 l 341 980 z "},"ý":{"ha":833,"x_min":45,"x_max":787,"o":"m 198 -288 q 114 -281 148 -288 l 114 -189 q 171 -193 140 -193 q 272 -153 224 -193 q 351 -26 319 -113 l 363 7 l 45 734 l 175 734 l 354 298 q 420 126 416 146 l 448 201 l 659 734 l 787 734 l 478 0 q 353 -224 418 -159 q 198 -288 288 -288 m 345 814 l 345 828 l 499 990 l 633 990 l 633 970 l 429 814 l 345 814 z "},"Þ":{"ha":833,"x_min":110,"x_max":759,"o":"m 759 469 q 720 315 759 382 q 606 210 680 248 q 430 172 532 172 l 239 172 l 239 0 l 110 0 l 110 915 l 239 915 l 239 755 l 422 755 q 671 680 584 755 q 759 469 759 605 m 629 467 q 573 608 629 557 q 406 659 517 659 l 239 659 l 239 268 l 412 268 q 572 320 515 268 q 629 467 629 373 z "},"þ":{"ha":833,"x_min":125,"x_max":739,"o":"m 613 370 q 572 589 613 524 q 441 654 530 654 q 294 580 339 654 q 248 355 248 506 q 294 144 248 211 q 440 77 339 77 q 572 145 530 77 q 613 370 613 214 m 250 613 q 336 716 283 684 q 473 749 389 749 q 673 656 608 749 q 739 370 739 564 q 473 -14 739 -14 q 249 111 307 -14 l 245 111 q 248 -1 248 106 l 248 -288 l 125 -288 l 125 1006 l 248 1006 l 248 720 q 245 613 248 675 l 250 613 z "},"−":{"ha":833,"x_min":79,"x_max":754,"o":"m 79 412 l 79 511 l 754 511 l 754 412 l 79 412 z "},"×":{"ha":833,"x_min":106,"x_max":726,"o":"m 106 224 l 347 464 l 108 703 l 178 772 l 416 533 l 653 771 l 724 700 l 487 464 l 726 225 l 656 154 l 417 393 l 176 153 l 106 224 z "},"¹":{"ha":833,"x_min":193,"x_max":626,"o":"m 197 382 l 197 454 l 377 454 l 377 868 q 307 812 360 834 q 193 790 253 790 l 193 864 q 311 889 260 864 q 384 956 361 913 l 466 956 l 466 454 l 626 454 l 626 382 l 197 382 z "},"²":{"ha":833,"x_min":212,"x_max":621,"o":"m 213 382 l 212 452 q 276 542 233 498 q 393 636 319 585 q 488 720 458 681 q 518 799 518 758 q 494 866 518 841 q 420 892 470 892 q 344 867 374 892 q 309 796 314 842 l 218 802 q 283 919 227 875 q 424 964 338 964 q 562 921 513 964 q 611 802 611 878 q 579 705 611 751 q 482 614 547 660 q 359 519 393 551 q 309 454 325 488 l 620 454 l 621 382 l 213 382 z "},"³":{"ha":833,"x_min":208,"x_max":625,"o":"m 625 539 q 572 417 625 460 q 423 374 519 374 q 208 528 229 374 l 300 536 q 423 444 312 444 q 532 545 532 444 q 404 637 532 637 l 362 637 l 362 711 l 401 711 q 486 736 455 711 q 517 804 517 760 q 492 868 517 845 q 419 892 467 892 q 345 868 373 892 q 312 800 316 844 l 220 808 q 282 923 229 882 q 422 964 336 964 q 560 923 510 964 q 610 817 610 883 q 581 728 610 766 q 491 677 552 691 l 491 676 q 589 634 553 670 q 625 539 625 599 z "},"½":{"ha":833,"x_min":12,"x_max":814,"o":"m 36 399 l 36 472 l 127 472 l 127 820 q 78 774 114 793 q 12 755 42 755 l 12 836 q 81 858 45 836 q 134 915 116 879 l 216 915 l 216 472 l 295 472 l 295 399 l 36 399 m 208 0 l 127 0 l 604 915 l 682 915 l 208 0 m 460 1 l 460 66 q 514 147 478 109 q 612 232 551 186 q 691 306 667 273 q 715 374 715 338 q 640 456 715 456 q 578 435 598 456 q 553 373 558 414 l 465 376 q 520 485 473 446 q 643 524 568 524 q 765 486 724 524 q 806 378 806 448 q 698 208 806 290 q 593 124 618 148 q 556 73 568 100 l 814 73 l 814 1 l 460 1 z "},"¼":{"ha":833,"x_min":18,"x_max":833,"o":"m 43 399 l 43 472 l 134 472 l 134 820 q 85 774 121 793 q 18 755 49 755 l 18 836 q 87 858 52 836 q 141 915 123 879 l 223 915 l 223 472 l 302 472 l 302 399 l 43 399 m 218 0 l 138 0 l 615 915 l 693 915 l 218 0 m 751 110 l 751 1 l 665 1 l 665 110 l 410 110 l 410 177 l 655 517 l 751 517 l 751 178 l 833 178 l 833 110 l 751 110 m 665 431 q 485 178 642 396 l 665 178 l 665 396 l 665 431 z "},"¾":{"ha":833,"x_min":7,"x_max":833,"o":"m 357 538 q 310 429 357 470 q 182 387 263 387 q 64 425 110 387 q 7 531 18 463 l 100 540 q 128 478 106 499 q 182 458 150 458 q 241 478 219 458 q 264 543 264 498 q 163 624 264 624 l 135 624 l 135 698 l 160 698 q 228 717 206 698 q 250 781 250 736 q 231 834 250 817 q 185 851 213 851 q 132 830 155 851 q 106 770 110 808 l 14 778 q 68 884 23 846 q 185 923 114 923 q 301 886 259 923 q 342 786 342 848 q 320 712 342 741 q 250 666 297 684 l 250 665 q 331 618 306 652 q 357 538 357 585 m 235 0 l 155 0 l 632 915 l 710 915 l 235 0 m 751 110 l 751 1 l 665 1 l 665 110 l 410 110 l 410 177 l 655 517 l 751 517 l 751 178 l 833 178 l 833 110 l 751 110 m 665 431 q 485 178 642 396 l 665 178 l 665 396 l 665 431 z "},"₣":{"ha":833,"x_min":23,"x_max":746,"o":"m 271 809 l 271 508 l 730 508 l 730 401 l 271 401 l 271 263 l 536 263 l 536 176 l 271 176 l 271 0 l 142 0 l 142 176 l 23 176 l 23 263 l 142 263 l 142 915 l 746 915 l 746 809 l 271 809 z "},"Ğ":{"ha":833,"x_min":77,"x_max":748,"o":"m 747 90 q 433 -14 591 -14 q 170 112 264 -14 q 77 462 77 238 q 166 813 77 697 q 435 929 256 929 q 748 705 670 929 l 632 667 q 437 823 578 823 q 268 738 322 823 q 213 462 213 652 q 444 92 213 92 q 540 106 490 92 q 621 142 589 120 l 621 370 l 422 370 l 422 478 l 747 478 l 747 90 m 418 981 q 277 1029 334 981 q 206 1156 220 1077 l 292 1156 q 333 1090 304 1114 q 418 1066 362 1066 q 504 1090 475 1066 q 545 1156 533 1114 l 631 1156 q 558 1028 614 1076 q 418 981 503 981 z "},"ğ":{"ha":833,"x_min":97,"x_max":715,"o":"m 417 -288 q 234 -241 303 -288 q 146 -106 165 -194 l 271 -90 q 320 -168 282 -140 q 421 -195 359 -195 q 589 18 589 -195 l 589 150 l 588 150 q 496 44 555 80 q 355 8 437 8 q 159 96 221 8 q 97 372 97 184 q 163 655 97 564 q 368 745 230 745 q 502 710 445 745 q 589 608 558 674 l 591 608 q 593 677 591 629 q 599 734 596 726 l 715 734 q 711 582 711 697 l 711 22 q 639 -210 711 -132 q 417 -288 567 -288 m 589 374 q 538 579 589 505 q 399 654 488 654 q 264 590 306 654 q 223 374 223 525 q 240 212 223 271 q 294 125 258 153 q 397 98 331 98 q 498 131 454 98 q 566 225 542 163 q 589 374 589 287 m 410 814 q 269 863 326 814 q 198 990 212 911 l 284 990 q 325 924 296 947 q 410 900 354 900 q 496 924 467 900 q 536 990 525 947 l 623 990 q 550 862 606 909 q 410 814 494 814 z "},"İ":{"ha":833,"x_min":137,"x_max":695,"o":"m 137 915 l 695 915 l 695 809 l 481 809 l 481 106 l 695 106 l 695 0 l 137 0 l 137 106 l 351 106 l 351 809 l 137 809 l 137 915 m 349 981 l 349 1111 l 485 1111 l 485 981 l 349 981 z "},"Ş":{"ha":833,"x_min":54,"x_max":765,"o":"m 765 251 q 674 56 765 126 q 414 -14 583 -14 q 54 229 104 -14 l 179 254 q 258 127 198 167 q 417 87 317 87 q 581 130 525 87 q 637 249 637 172 q 615 326 637 296 q 557 375 593 356 q 476 406 521 394 q 385 429 431 418 q 229 480 275 458 q 155 531 182 503 q 113 597 127 560 q 98 685 98 635 q 181 866 98 802 q 417 929 263 929 q 637 879 561 929 q 743 709 713 829 l 615 687 q 550 797 599 763 q 416 831 501 831 q 224 687 224 831 q 242 621 224 646 q 291 579 260 595 q 363 551 322 562 q 451 528 404 541 q 587 489 545 505 q 660 452 628 473 q 715 404 692 432 q 752 339 739 376 q 765 251 765 302 m 553 -175 q 367 -301 553 -301 q 306 -298 328 -301 l 306 -232 q 364 -236 340 -236 q 464 -178 464 -236 q 443 -136 464 -151 q 374 -122 422 -122 q 335 -123 345 -122 l 379 0 l 452 0 l 425 -68 q 521 -98 489 -70 q 553 -175 553 -126 z "},"ş":{"ha":833,"x_min":113,"x_max":719,"o":"m 719 210 q 640 46 719 105 q 421 -14 561 -14 q 209 30 281 -14 q 113 168 136 74 l 221 189 q 276 104 234 131 q 421 77 319 77 q 604 193 604 77 q 571 263 604 237 q 469 307 538 290 q 242 376 290 351 q 168 439 194 401 q 142 533 142 477 q 214 689 142 633 q 422 745 286 745 q 613 700 542 745 q 702 569 684 655 l 592 555 q 544 629 585 604 q 422 654 503 654 q 256 552 256 654 q 284 487 256 511 q 375 448 313 463 l 456 427 q 615 373 566 399 q 691 307 663 347 q 719 210 719 267 m 559 -175 q 374 -301 559 -301 q 313 -298 335 -301 l 313 -232 q 371 -236 347 -236 q 471 -178 471 -236 q 450 -136 471 -151 q 380 -122 429 -122 q 342 -123 351 -122 l 386 0 l 458 0 l 432 -68 q 528 -98 496 -70 q 559 -175 559 -126 z "},"Ć":{"ha":833,"x_min":77,"x_max":774,"o":"m 213 462 q 271 184 213 277 q 448 92 329 92 q 572 138 517 92 q 667 283 628 184 l 774 239 q 447 -14 673 -14 q 173 109 269 -14 q 77 462 77 232 q 440 929 77 929 q 756 702 670 929 l 642 658 q 564 779 617 734 q 441 823 511 823 q 269 736 325 823 q 213 462 213 648 m 362 980 l 362 994 l 516 1156 l 650 1156 l 650 1136 l 446 980 l 362 980 z "},"ć":{"ha":833,"x_min":88,"x_max":732,"o":"m 88 368 q 176 649 88 551 q 429 747 263 747 q 632 688 552 747 q 731 528 712 629 l 601 519 q 547 616 590 581 q 423 652 503 652 q 266 585 316 652 q 216 370 216 519 q 266 150 216 220 q 422 81 316 81 q 544 117 496 81 q 604 227 592 153 l 732 218 q 683 100 724 153 q 576 17 643 47 q 428 -14 510 -14 q 175 84 262 -14 q 88 368 88 182 m 342 814 l 342 828 l 496 990 l 629 990 l 629 970 l 426 814 l 342 814 z "},"Č":{"ha":833,"x_min":77,"x_max":774,"o":"m 213 462 q 271 184 213 277 q 448 92 329 92 q 572 138 517 92 q 667 283 628 184 l 774 239 q 447 -14 673 -14 q 173 109 269 -14 q 77 462 77 232 q 440 929 77 929 q 756 702 670 929 l 642 658 q 564 779 617 734 q 441 823 511 823 q 269 736 325 823 q 213 462 213 648 m 487 981 l 376 981 l 203 1143 l 203 1156 l 274 1156 l 431 1063 l 433 1063 l 581 1156 l 652 1156 l 652 1143 l 487 981 z "},"č":{"ha":833,"x_min":88,"x_max":732,"o":"m 88 368 q 176 649 88 551 q 429 747 263 747 q 632 688 552 747 q 731 528 712 629 l 601 519 q 547 616 590 581 q 423 652 503 652 q 266 585 316 652 q 216 370 216 519 q 266 150 216 220 q 422 81 316 81 q 544 117 496 81 q 604 227 592 153 l 732 218 q 683 100 724 153 q 576 17 643 47 q 428 -14 510 -14 q 175 84 262 -14 q 88 368 88 182 m 473 814 l 361 814 l 189 977 l 189 990 l 260 990 l 417 897 l 418 897 l 567 990 l 638 990 l 638 977 l 473 814 z "},"đ":{"ha":833,"x_min":94,"x_max":796,"o":"m 707 811 l 707 151 q 711 0 707 37 l 595 0 q 590 50 592 10 q 588 118 588 89 l 585 118 q 496 15 551 47 q 359 -18 441 -18 q 158 74 222 -18 q 94 351 94 166 q 359 727 94 727 q 497 698 441 727 q 585 602 552 669 l 587 602 l 585 705 l 585 811 l 382 811 l 382 900 l 585 900 l 585 1006 l 707 1006 l 707 900 l 796 900 l 796 811 l 707 811 m 220 355 q 260 143 220 209 q 391 77 300 77 q 538 146 491 77 q 585 365 585 216 q 540 571 585 505 q 393 637 495 637 q 261 568 302 637 q 220 355 220 499 z "},"¯":{"ha":833,"x_min":-3,"x_max":836,"o":"m -3 1032 l -3 1097 l 836 1097 l 836 1032 l -3 1032 z "},"·":{"ha":833,"x_min":336,"x_max":496,"o":"m 336 285 l 336 488 l 496 488 l 496 285 l 336 285 z "},"Ă":{"ha":833,"x_min":0,"x_max":833,"o":"m 701 0 l 608 259 l 226 259 l 133 0 l 0 0 l 346 915 l 493 915 l 833 0 l 701 0 m 418 817 l 410 791 l 363 647 l 260 360 l 574 360 l 457 699 l 418 817 m 416 981 q 275 1029 332 981 q 204 1156 218 1077 l 290 1156 q 331 1090 302 1114 q 416 1066 360 1066 q 502 1090 473 1066 q 543 1156 531 1114 l 629 1156 q 556 1028 612 1076 q 416 981 500 981 z "},"ă":{"ha":833,"x_min":87,"x_max":787,"o":"m 747 75 q 787 80 764 75 l 787 4 q 692 -7 741 -7 q 594 29 625 -7 q 559 140 563 64 l 555 140 q 451 22 511 58 q 302 -14 391 -14 q 141 45 195 -14 q 87 205 87 103 q 395 445 87 441 l 555 448 l 555 488 q 519 615 555 576 q 404 654 483 654 q 289 626 324 654 q 247 538 254 597 l 119 549 q 406 747 151 747 q 610 684 542 747 q 678 500 678 621 l 678 184 q 692 103 678 130 q 747 75 707 75 m 334 79 q 449 111 399 79 q 527 194 499 142 q 555 302 555 246 l 555 362 l 426 359 q 304 342 346 358 q 238 292 262 326 q 215 203 215 258 q 245 113 215 147 q 334 79 275 79 m 403 814 q 262 863 319 814 q 191 990 205 911 l 277 990 q 318 924 289 947 q 403 900 347 900 q 489 924 460 900 q 530 990 518 947 l 616 990 q 544 862 600 909 q 403 814 488 814 z "},"Ą":{"ha":833,"x_min":0,"x_max":846,"o":"m 701 0 l 608 259 l 226 259 l 133 0 l 0 0 l 346 915 l 493 915 l 833 0 l 701 0 m 418 817 l 410 791 l 363 647 l 260 360 l 574 360 l 457 699 l 418 817 m 846 -264 q 751 -282 803 -282 q 644 -248 680 -282 q 608 -155 608 -213 q 636 -65 608 -109 q 713 7 665 -20 l 804 7 q 732 -59 760 -17 q 704 -146 704 -102 q 721 -191 704 -175 q 768 -208 737 -208 q 846 -191 804 -208 l 846 -264 z "},"ą":{"ha":833,"x_min":87,"x_max":787,"o":"m 747 75 q 787 80 764 75 l 787 4 q 692 -7 741 -7 q 594 29 625 -7 q 559 140 563 64 l 555 140 q 451 22 511 58 q 302 -14 391 -14 q 141 45 195 -14 q 87 205 87 103 q 395 445 87 441 l 555 448 l 555 488 q 519 615 555 576 q 404 654 483 654 q 289 626 324 654 q 247 538 254 597 l 119 549 q 406 747 151 747 q 610 684 542 747 q 678 500 678 621 l 678 184 q 692 103 678 130 q 747 75 707 75 m 334 79 q 449 111 399 79 q 527 194 499 142 q 555 302 555 246 l 555 362 l 426 359 q 304 342 346 358 q 238 292 262 326 q 215 203 215 258 q 245 113 215 147 q 334 79 275 79 m 787 -271 q 692 -290 744 -290 q 585 -255 621 -290 q 549 -163 549 -220 q 577 -72 549 -117 q 654 0 606 -28 l 745 0 q 673 -67 701 -24 q 645 -154 645 -109 q 662 -199 645 -182 q 709 -215 678 -215 q 787 -199 745 -215 l 787 -271 z "},"Ď":{"ha":833,"x_min":110,"x_max":763,"o":"m 763 467 q 659 121 763 242 q 361 0 555 0 l 110 0 l 110 915 l 321 915 q 653 803 544 915 q 763 467 763 692 m 633 467 q 558 727 633 646 q 321 809 484 809 l 239 809 l 239 106 l 349 106 q 563 196 493 106 q 633 467 633 286 m 456 981 l 345 981 l 172 1143 l 172 1156 l 243 1156 l 400 1063 l 401 1063 l 550 1156 l 621 1156 l 621 1143 l 456 981 z "},"ď":{"ha":833,"x_min":21,"x_max":835,"o":"m 450 118 q 371 15 416 47 q 260 -18 326 -18 q 83 81 145 -18 q 21 361 21 180 q 85 644 21 543 q 260 745 149 745 q 372 715 327 745 q 450 620 416 686 l 451 620 l 450 722 l 450 1006 l 572 1006 l 572 151 q 576 0 572 37 l 459 0 q 454 50 456 10 q 452 118 452 89 l 450 118 m 147 365 q 179 147 147 218 q 281 77 210 77 q 403 158 357 77 q 450 376 450 239 q 405 579 450 504 q 282 654 359 654 q 180 584 212 654 q 147 365 147 513 m 648 786 l 648 808 l 701 1006 l 835 1006 l 835 981 l 719 786 l 648 786 z "},"Đ":{"ha":833,"x_min":18,"x_max":763,"o":"m 763 467 q 659 121 763 242 q 361 0 555 0 l 110 0 l 110 405 l 18 405 l 18 506 l 110 506 l 110 915 l 321 915 q 653 803 544 915 q 763 467 763 692 m 435 405 l 239 405 l 239 106 l 349 106 q 563 196 493 106 q 633 467 633 286 q 558 727 633 646 q 321 809 484 809 l 239 809 l 239 506 l 435 506 l 435 405 z "},"Ę":{"ha":833,"x_min":110,"x_max":761,"o":"m 110 0 l 110 915 l 733 915 l 733 809 l 239 809 l 239 523 l 692 523 l 692 418 l 239 418 l 239 106 l 761 106 l 761 0 l 110 0 m 761 -271 q 667 -290 718 -290 q 559 -255 595 -290 q 524 -163 524 -220 q 552 -72 524 -117 q 629 0 580 -28 l 719 0 q 647 -67 675 -24 q 619 -154 619 -109 q 636 -199 619 -182 q 683 -215 652 -215 q 761 -199 720 -215 l 761 -271 z "},"ę":{"ha":833,"x_min":90,"x_max":742,"o":"m 218 341 q 273 148 218 218 q 422 78 328 78 q 545 108 492 78 q 615 191 597 138 l 722 160 q 613 31 692 76 q 422 -14 533 -14 q 176 86 262 -14 q 90 372 90 186 q 175 650 90 553 q 418 747 259 747 q 660 650 578 747 q 742 357 742 553 l 742 341 l 218 341 m 420 657 q 276 598 329 657 q 220 435 223 538 l 616 435 q 420 657 597 657 m 578 -271 q 484 -290 536 -290 q 377 -255 413 -290 q 341 -163 341 -220 q 369 -72 341 -117 q 446 0 397 -28 l 536 0 q 465 -67 493 -24 q 437 -154 437 -109 q 453 -199 437 -182 q 500 -215 470 -215 q 578 -199 537 -215 l 578 -271 z "},"Ě":{"ha":833,"x_min":110,"x_max":761,"o":"m 110 0 l 110 915 l 733 915 l 733 809 l 239 809 l 239 523 l 692 523 l 692 418 l 239 418 l 239 106 l 761 106 l 761 0 l 110 0 m 475 981 l 364 981 l 192 1143 l 192 1156 l 262 1156 l 420 1063 l 421 1063 l 570 1156 l 641 1156 l 641 1143 l 475 981 z "},"ě":{"ha":833,"x_min":90,"x_max":742,"o":"m 218 341 q 273 148 218 218 q 422 78 328 78 q 545 108 492 78 q 615 191 597 138 l 722 160 q 613 31 692 76 q 422 -14 533 -14 q 176 86 262 -14 q 90 372 90 186 q 175 650 90 553 q 418 747 259 747 q 660 650 578 747 q 742 357 742 553 l 742 341 l 218 341 m 420 657 q 276 598 329 657 q 220 435 223 538 l 616 435 q 420 657 597 657 m 471 814 l 359 814 l 187 977 l 187 990 l 258 990 l 415 897 l 416 897 l 565 990 l 636 990 l 636 977 l 471 814 z "},"Ĺ":{"ha":833,"x_min":161,"x_max":746,"o":"m 161 0 l 161 915 l 290 915 l 290 106 l 746 106 l 746 0 l 161 0 m 206 981 l 206 994 l 360 1156 l 494 1156 l 494 1137 l 290 981 l 206 981 z "},"ĺ":{"ha":833,"x_min":91,"x_max":757,"o":"m 499 96 l 757 96 l 757 0 l 91 0 l 91 96 l 377 96 l 377 819 l 181 819 l 181 915 l 499 915 l 499 96 m 360 980 l 360 994 l 514 1156 l 648 1156 l 648 1137 l 444 980 l 360 980 z "},"Ľ":{"ha":833,"x_min":161,"x_max":746,"o":"m 161 0 l 161 915 l 290 915 l 290 106 l 746 106 l 746 0 l 161 0 m 526 694 l 526 717 l 579 915 l 713 915 l 713 890 l 597 694 l 526 694 z "},"ľ":{"ha":833,"x_min":58,"x_max":794,"o":"m 466 96 l 724 96 l 724 0 l 58 0 l 58 96 l 344 96 l 344 910 l 148 910 l 148 1006 l 466 1006 l 466 96 m 607 786 l 607 808 l 661 1006 l 794 1006 l 794 981 l 678 786 l 607 786 z "},"Ŀ":{"ha":833,"x_min":161,"x_max":746,"o":"m 161 0 l 161 915 l 290 915 l 290 106 l 746 106 l 746 0 l 161 0 m 455 412 l 455 543 l 591 543 l 591 412 l 455 412 z "},"ŀ":{"ha":833,"x_min":91,"x_max":767,"o":"m 499 96 l 757 96 l 757 0 l 91 0 l 91 96 l 377 96 l 377 910 l 181 910 l 181 1006 l 499 1006 l 499 96 m 631 412 l 631 543 l 767 543 l 767 412 l 631 412 z "},"Ń":{"ha":833,"x_min":110,"x_max":723,"o":"m 567 0 l 214 766 q 225 594 225 650 l 225 0 l 110 0 l 110 915 l 260 915 l 618 143 q 606 329 606 241 l 606 915 l 723 915 l 723 0 l 567 0 m 355 981 l 355 994 l 509 1156 l 643 1156 l 643 1137 l 439 981 l 355 981 z "},"ń":{"ha":833,"x_min":121,"x_max":711,"o":"m 589 0 l 589 471 q 553 608 589 564 q 439 653 517 653 q 301 592 355 653 q 248 425 248 530 l 248 0 l 125 0 l 125 577 q 121 734 125 705 l 237 734 q 238 715 237 730 q 240 681 239 701 q 242 608 241 662 l 244 608 q 479 747 315 747 q 654 684 596 747 q 711 489 711 621 l 711 0 l 589 0 m 366 814 l 366 828 l 519 990 l 653 990 l 653 970 l 450 814 l 366 814 z "},"Ň":{"ha":833,"x_min":110,"x_max":723,"o":"m 567 0 l 214 766 q 225 594 225 650 l 225 0 l 110 0 l 110 915 l 260 915 l 618 143 q 606 329 606 241 l 606 915 l 723 915 l 723 0 l 567 0 m 479 981 l 368 981 l 196 1143 l 196 1156 l 267 1156 l 424 1063 l 425 1063 l 574 1156 l 645 1156 l 645 1143 l 479 981 z "},"ň":{"ha":833,"x_min":121,"x_max":711,"o":"m 589 0 l 589 471 q 553 608 589 564 q 439 653 517 653 q 301 592 355 653 q 248 425 248 530 l 248 0 l 125 0 l 125 577 q 121 734 125 705 l 237 734 q 238 715 237 730 q 240 681 239 701 q 242 608 241 662 l 244 608 q 479 747 315 747 q 654 684 596 747 q 711 489 711 621 l 711 0 l 589 0 m 475 814 l 364 814 l 192 977 l 192 990 l 262 990 l 420 897 l 421 897 l 570 990 l 641 990 l 641 977 l 475 814 z "},"Ő":{"ha":833,"x_min":69,"x_max":764,"o":"m 764 462 q 674 110 764 233 q 416 -14 584 -14 q 158 108 247 -14 q 69 462 69 229 q 157 810 69 690 q 417 929 245 929 q 674 811 585 929 q 764 462 764 694 m 627 462 q 417 823 627 823 q 205 462 205 823 q 259 185 205 279 q 416 92 313 92 q 577 186 527 92 q 627 462 627 281 m 471 980 l 471 994 l 611 1156 l 738 1156 l 738 1136 l 534 980 l 471 980 m 224 980 l 224 994 l 364 1156 l 491 1156 l 491 1136 l 288 980 l 224 980 z "},"ő":{"ha":833,"x_min":88,"x_max":751,"o":"m 744 368 q 659 84 744 182 q 413 -14 574 -14 q 172 85 256 -14 q 88 368 88 184 q 174 652 88 557 q 417 747 260 747 q 663 653 583 747 q 744 368 744 559 m 616 368 q 569 585 616 513 q 419 657 523 657 q 265 584 314 657 q 216 368 216 511 q 265 151 216 225 q 412 77 314 77 q 568 149 519 77 q 616 368 616 222 m 484 814 l 484 828 l 624 990 l 751 990 l 751 970 l 547 814 l 484 814 m 237 814 l 237 828 l 377 990 l 504 990 l 504 970 l 300 814 l 237 814 z "},"Ŕ":{"ha":833,"x_min":110,"x_max":798,"o":"m 649 0 l 401 390 l 239 390 l 239 0 l 110 0 l 110 915 l 437 915 q 677 849 595 915 q 760 662 760 784 q 697 492 760 561 q 527 405 633 422 l 798 0 l 649 0 m 630 660 q 424 811 630 811 l 239 811 l 239 492 l 429 492 q 578 536 526 492 q 630 660 630 579 m 321 981 l 321 994 l 475 1156 l 609 1156 l 609 1137 l 406 981 l 321 981 z "},"ŕ":{"ha":833,"x_min":164,"x_max":709,"o":"m 709 623 q 565 635 633 635 q 389 553 456 635 q 321 345 321 471 l 321 0 l 199 0 l 199 475 q 190 597 199 527 q 164 734 181 667 l 280 734 q 313 564 307 640 l 316 564 q 382 676 350 640 q 460 729 415 711 q 569 747 505 747 q 709 736 640 747 l 709 623 m 333 814 l 333 828 l 487 990 l 621 990 l 621 970 l 417 814 l 333 814 z "},"Ř":{"ha":833,"x_min":110,"x_max":798,"o":"m 649 0 l 401 390 l 239 390 l 239 0 l 110 0 l 110 915 l 437 915 q 677 849 595 915 q 760 662 760 784 q 697 492 760 561 q 527 405 633 422 l 798 0 l 649 0 m 630 660 q 424 811 630 811 l 239 811 l 239 492 l 429 492 q 578 536 526 492 q 630 660 630 579 m 463 981 l 351 981 l 179 1143 l 179 1156 l 250 1156 l 407 1063 l 408 1063 l 557 1156 l 628 1156 l 628 1143 l 463 981 z "},"ř":{"ha":833,"x_min":164,"x_max":709,"o":"m 709 623 q 565 635 633 635 q 389 553 456 635 q 321 345 321 471 l 321 0 l 199 0 l 199 475 q 190 597 199 527 q 164 734 181 667 l 280 734 q 313 564 307 640 l 316 564 q 382 676 350 640 q 460 729 415 711 q 569 747 505 747 q 709 736 640 747 l 709 623 m 489 814 l 378 814 l 205 977 l 205 990 l 276 990 l 433 897 l 435 897 l 583 990 l 654 990 l 654 977 l 489 814 z "},"Ś":{"ha":833,"x_min":54,"x_max":765,"o":"m 765 251 q 674 56 765 126 q 414 -14 583 -14 q 54 229 104 -14 l 179 254 q 258 127 198 167 q 417 87 317 87 q 581 130 525 87 q 637 249 637 172 q 615 326 637 296 q 557 375 593 356 q 476 406 521 394 q 385 429 431 418 q 229 480 275 458 q 155 531 182 503 q 113 597 127 560 q 98 685 98 635 q 181 866 98 802 q 417 929 263 929 q 637 879 561 929 q 743 709 713 829 l 615 687 q 550 797 599 763 q 416 831 501 831 q 224 687 224 831 q 242 621 224 646 q 291 579 260 595 q 363 551 322 562 q 451 528 404 541 q 587 489 545 505 q 660 452 628 473 q 715 404 692 432 q 752 339 739 376 q 765 251 765 302 m 354 981 l 354 994 l 508 1156 l 642 1156 l 642 1137 l 438 981 l 354 981 z "},"ś":{"ha":833,"x_min":113,"x_max":719,"o":"m 719 210 q 640 46 719 105 q 421 -14 561 -14 q 209 30 281 -14 q 113 168 136 74 l 221 189 q 276 104 234 131 q 421 77 319 77 q 604 193 604 77 q 571 263 604 237 q 469 307 538 290 q 242 376 290 351 q 168 439 194 401 q 142 533 142 477 q 214 689 142 633 q 422 745 286 745 q 613 700 542 745 q 702 569 684 655 l 592 555 q 544 629 585 604 q 422 654 503 654 q 256 552 256 654 q 284 487 256 511 q 375 448 313 463 l 456 427 q 615 373 566 399 q 691 307 663 347 q 719 210 719 267 m 331 814 l 331 828 l 485 990 l 618 990 l 618 970 l 415 814 l 331 814 z "},"Ţ":{"ha":833,"x_min":52,"x_max":781,"o":"m 481 809 l 481 0 l 352 0 l 352 809 l 52 809 l 52 915 l 781 915 l 781 809 l 481 809 m 302 -287 l 302 -264 l 356 -66 l 490 -66 l 490 -92 l 374 -287 l 302 -287 z "},"ţ":{"ha":833,"x_min":129,"x_max":690,"o":"m 129 637 l 129 734 l 244 734 l 283 925 l 365 925 l 365 734 l 658 734 l 658 637 l 365 637 l 365 195 q 394 116 365 142 q 488 90 422 90 q 690 113 579 90 l 690 20 q 463 -11 575 -11 q 298 36 353 -11 q 243 182 243 82 l 243 637 l 129 637 m 326 -287 l 326 -264 l 379 -66 l 513 -66 l 513 -92 l 397 -287 l 326 -287 z "},"Ť":{"ha":833,"x_min":52,"x_max":781,"o":"m 481 809 l 481 0 l 352 0 l 352 809 l 52 809 l 52 915 l 781 915 l 781 809 l 481 809 m 475 981 l 364 981 l 192 1143 l 192 1156 l 262 1156 l 420 1063 l 421 1063 l 570 1156 l 641 1156 l 641 1143 l 475 981 z "},"ť":{"ha":833,"x_min":68,"x_max":828,"o":"m 68 637 l 68 734 l 184 734 l 223 925 l 304 925 l 304 734 l 597 734 l 597 637 l 304 637 l 304 195 q 333 116 304 142 q 428 90 362 90 q 629 113 519 90 l 629 20 q 402 -11 515 -11 q 237 36 292 -11 q 182 182 182 82 l 182 637 l 68 637 m 641 786 l 641 808 l 694 1006 l 828 1006 l 828 981 l 712 786 l 641 786 z "},"Ů":{"ha":833,"x_min":96,"x_max":736,"o":"m 736 332 q 659 69 736 151 q 410 -14 581 -14 q 171 66 245 -14 q 96 320 96 146 l 96 915 l 226 915 l 226 338 q 266 145 226 199 q 410 92 305 92 q 563 147 519 92 q 607 347 607 203 l 607 915 l 736 915 l 736 332 m 581 1021 q 536 924 581 962 q 416 886 492 886 q 296 924 340 886 q 252 1021 252 962 q 297 1119 252 1082 q 416 1156 342 1156 q 536 1119 492 1156 q 581 1021 581 1081 m 498 1021 q 476 1062 498 1046 q 416 1078 454 1078 q 356 1062 379 1078 q 334 1021 334 1046 q 356 980 334 996 q 416 964 379 964 q 476 980 454 964 q 498 1021 498 996 z "},"ů":{"ha":833,"x_min":125,"x_max":715,"o":"m 248 734 l 248 269 q 281 122 248 163 q 399 81 314 81 q 538 140 487 81 q 589 309 589 200 l 589 734 l 711 734 l 711 157 q 715 0 711 28 l 600 0 q 599 18 600 3 q 597 53 598 33 q 595 125 596 72 l 593 125 q 495 18 551 50 q 358 -14 440 -14 q 181 46 237 -14 q 125 245 125 106 l 125 734 l 248 734 m 581 914 q 536 817 581 855 q 416 779 492 779 q 296 817 340 779 q 252 914 252 855 q 297 1012 252 975 q 416 1049 342 1049 q 536 1011 492 1049 q 581 914 581 974 m 498 914 q 476 955 498 939 q 416 970 454 970 q 356 955 379 970 q 334 914 334 939 q 356 873 334 888 q 416 857 379 857 q 476 873 454 857 q 498 914 498 888 z "},"Ű":{"ha":833,"x_min":96,"x_max":745,"o":"m 736 332 q 659 69 736 151 q 410 -14 581 -14 q 171 66 245 -14 q 96 320 96 146 l 96 915 l 226 915 l 226 338 q 266 145 226 199 q 410 92 305 92 q 563 147 519 92 q 607 347 607 203 l 607 915 l 736 915 l 736 332 m 478 981 l 478 994 l 618 1156 l 745 1156 l 745 1137 l 542 981 l 478 981 m 231 981 l 231 994 l 372 1156 l 498 1156 l 498 1137 l 295 981 l 231 981 z "},"ű":{"ha":833,"x_min":125,"x_max":749,"o":"m 248 734 l 248 269 q 281 122 248 163 q 399 81 314 81 q 538 140 487 81 q 589 309 589 200 l 589 734 l 711 734 l 711 157 q 715 0 711 28 l 600 0 q 599 18 600 3 q 597 53 598 33 q 595 125 596 72 l 593 125 q 495 18 551 50 q 358 -14 440 -14 q 181 46 237 -14 q 125 245 125 106 l 125 734 l 248 734 m 482 814 l 482 828 l 623 990 l 749 990 l 749 970 l 546 814 l 482 814 m 235 814 l 235 828 l 376 990 l 503 990 l 503 970 l 299 814 l 235 814 z "},"Ź":{"ha":833,"x_min":50,"x_max":783,"o":"m 783 0 l 50 0 l 50 97 l 604 809 l 99 809 l 99 915 l 751 915 l 751 821 l 197 106 l 783 106 l 783 0 m 342 981 l 342 994 l 496 1156 l 629 1156 l 629 1137 l 426 981 l 342 981 z "},"ź":{"ha":833,"x_min":100,"x_max":724,"o":"m 100 0 l 100 93 l 562 640 l 127 640 l 127 734 l 699 734 l 699 641 l 237 94 l 724 94 l 724 0 l 100 0 m 330 814 l 330 828 l 484 990 l 618 990 l 618 970 l 414 814 l 330 814 z "},"Ż":{"ha":833,"x_min":50,"x_max":783,"o":"m 783 0 l 50 0 l 50 97 l 604 809 l 99 809 l 99 915 l 751 915 l 751 821 l 197 106 l 783 106 l 783 0 m 358 981 l 358 1111 l 494 1111 l 494 981 l 358 981 z "},"ż":{"ha":833,"x_min":100,"x_max":724,"o":"m 100 0 l 100 93 l 562 640 l 127 640 l 127 734 l 699 734 l 699 641 l 237 94 l 724 94 l 724 0 l 100 0 m 347 876 l 347 1006 l 483 1006 l 483 876 l 347 876 z "},"Γ":{"ha":833,"x_min":152,"x_max":756,"o":"m 281 0 l 152 0 l 152 915 l 756 915 l 756 809 l 281 809 l 281 0 z "},"Θ":{"ha":833,"x_min":69,"x_max":764,"o":"m 764 462 q 674 110 764 233 q 416 -14 584 -14 q 158 108 247 -14 q 69 462 69 229 q 157 810 69 690 q 417 929 245 929 q 674 811 585 929 q 764 462 764 694 m 627 462 q 417 823 627 823 q 205 462 205 823 q 259 185 205 279 q 416 92 313 92 q 577 186 527 92 q 627 462 627 281 m 530 513 l 530 409 l 303 409 l 303 513 l 530 513 z "},"Φ":{"ha":833,"x_min":5,"x_max":828,"o":"m 828 479 q 787 307 828 385 q 674 184 747 229 q 506 140 601 140 l 478 140 l 478 -7 l 355 -7 l 355 140 l 328 140 q 160 184 233 140 q 46 307 87 228 q 5 479 5 386 q 94 716 5 628 q 335 805 183 805 l 355 805 l 355 922 l 478 922 l 478 805 l 498 805 q 739 717 650 805 q 828 479 828 629 m 696 476 q 641 648 696 587 q 481 708 585 708 l 478 708 l 478 236 l 486 236 q 641 301 586 236 q 696 476 696 367 m 137 476 q 192 301 137 366 q 347 236 248 236 l 355 236 l 355 708 l 350 708 q 193 648 249 708 q 137 476 137 589 z "},"α":{"ha":833,"x_min":87,"x_max":792,"o":"m 601 161 q 357 -14 523 -14 q 153 80 218 -14 q 87 363 87 174 q 161 652 87 556 q 376 747 235 747 q 523 702 462 747 q 614 574 583 656 l 615 574 q 665 734 631 655 l 792 734 q 730 558 758 662 q 696 387 701 454 q 719 174 699 279 q 771 0 739 70 l 647 0 q 619 90 631 41 q 604 161 607 138 l 601 161 m 216 368 q 254 149 216 217 q 382 81 293 81 q 520 159 464 81 q 593 370 576 237 q 522 585 574 513 q 390 657 471 657 q 257 589 298 657 q 216 368 216 521 z "},"δ":{"ha":833,"x_min":76,"x_max":752,"o":"m 624 319 q 605 428 624 378 q 558 519 586 478 q 465 630 531 561 q 272 505 340 586 q 204 319 204 423 q 261 143 204 209 q 415 77 317 77 q 569 139 515 77 q 624 319 624 201 m 439 909 l 335 915 l 549 703 q 674 563 636 617 q 732 451 711 509 q 752 322 752 393 q 661 79 752 172 q 415 -14 570 -14 q 168 76 259 -14 q 76 321 76 166 q 158 545 76 449 q 401 696 240 640 l 185 918 l 185 1006 l 692 1006 l 692 909 l 439 909 z "},"ε":{"ha":833,"x_min":119,"x_max":739,"o":"m 421 77 q 559 106 494 77 q 667 186 624 134 l 739 119 q 601 20 684 53 q 413 -14 518 -14 q 193 42 268 -14 q 119 200 119 98 q 171 324 119 273 q 304 382 224 375 l 304 384 q 186 439 232 393 q 141 551 141 485 q 220 694 141 642 q 431 747 298 747 q 603 718 532 747 q 720 622 675 689 l 633 562 q 552 633 602 610 q 432 656 503 656 q 305 628 345 656 q 264 549 264 599 q 329 459 264 489 q 555 429 394 429 l 555 338 q 313 304 381 338 q 245 202 245 271 q 290 109 245 140 q 421 77 335 77 z "},"σ":{"ha":833,"x_min":62,"x_max":833,"o":"m 731 333 q 643 78 731 170 q 399 -14 554 -14 q 149 82 236 -14 q 62 355 62 177 q 164 634 62 535 q 454 734 266 734 l 833 734 l 833 637 l 728 637 l 628 642 l 628 639 q 708 482 685 553 q 731 333 731 410 m 603 331 q 519 637 603 496 l 458 637 q 262 565 332 637 q 191 357 191 492 q 393 77 191 77 q 549 142 496 77 q 603 331 603 208 z "},"τ":{"ha":833,"x_min":101,"x_max":713,"o":"m 272 637 q 166 629 216 637 q 101 612 116 621 l 101 714 q 154 728 117 722 q 225 734 190 734 l 713 734 l 713 637 l 460 637 l 460 174 q 544 82 460 82 q 636 89 582 82 l 636 0 q 582 -9 621 -4 q 505 -14 543 -14 q 378 27 418 -14 q 338 154 338 67 l 338 637 l 272 637 z "},"φ":{"ha":833,"x_min":34,"x_max":798,"o":"m 798 383 q 713 97 798 198 q 466 -12 628 -3 l 466 -288 l 357 -288 l 357 -12 q 117 92 199 -5 q 34 370 34 188 q 106 626 34 525 q 309 750 178 728 l 323 658 q 194 562 240 639 q 149 367 149 484 q 357 74 149 85 l 357 467 q 411 674 357 600 q 566 749 465 749 q 736 650 674 749 q 798 383 798 551 m 684 385 q 653 590 684 514 q 567 665 622 665 q 466 469 466 665 l 466 74 q 684 385 684 83 z "},"‗":{"ha":833,"x_min":-3,"x_max":836,"o":"m -3 -149 l -3 -84 l 836 -84 l 836 -149 l -3 -149 m -3 -288 l -3 -223 l 836 -223 l 836 -288 l -3 -288 z "},"‼":{"ha":833,"x_min":161,"x_max":673,"o":"m 279 269 l 178 269 l 162 914 l 295 914 l 279 269 m 161 0 l 161 136 l 292 136 l 292 0 l 161 0 m 656 269 l 556 269 l 540 914 l 673 914 l 656 269 m 538 0 l 538 136 l 670 136 l 670 0 l 538 0 z "},"ⁿ":{"ha":833,"x_min":242,"x_max":610,"o":"m 522 352 l 522 622 q 504 707 522 683 q 438 730 486 730 q 360 696 389 730 q 332 599 332 663 l 332 352 l 245 352 l 245 699 l 242 793 l 323 793 l 327 718 l 328 718 q 386 781 352 762 q 469 801 419 801 q 577 764 544 801 q 610 646 610 728 l 610 352 l 522 352 z "},"₧":{"ha":833,"x_min":31,"x_max":817,"o":"m 395 688 q 337 510 395 576 q 181 444 279 444 l 140 444 l 140 0 l 31 0 l 31 915 l 173 915 q 395 688 395 915 m 817 117 q 784 27 817 61 q 690 -7 751 -7 q 607 21 640 -7 q 566 104 574 50 l 640 115 q 692 56 650 56 q 721 68 709 56 q 732 108 732 81 q 717 153 732 132 q 669 197 702 174 q 595 266 617 232 q 573 338 573 300 q 605 421 573 392 q 696 450 637 450 q 773 421 743 450 q 808 343 803 392 l 734 335 q 719 377 731 365 q 694 389 707 389 q 657 339 657 389 q 675 295 657 314 q 728 252 693 275 q 817 117 817 191 m 285 686 q 259 786 285 754 q 178 818 233 818 l 140 818 l 140 539 l 183 539 q 259 578 234 539 q 285 686 285 616 m 302 375 l 302 441 l 363 441 l 403 537 l 451 537 l 451 441 l 552 441 l 552 375 l 451 375 l 451 115 q 497 62 451 62 q 546 66 528 62 l 546 1 q 476 -7 511 -7 q 362 102 362 -7 l 362 375 l 302 375 z "},"←":{"ha":833,"x_min":5,"x_max":827,"o":"m 157 201 q 237 68 195 156 l 189 68 q 5 218 102 169 l 5 243 q 189 393 102 292 l 237 393 q 157 260 195 305 l 827 260 l 827 201 l 157 201 z "},"↑":{"ha":833,"x_min":254,"x_max":579,"o":"m 387 629 q 254 549 342 591 l 254 597 q 404 781 355 684 l 429 781 q 579 597 478 684 l 579 549 q 446 629 491 591 l 446 -41 l 387 -41 l 387 629 z "},"→":{"ha":833,"x_min":5,"x_max":827,"o":"m 676 260 q 595 393 637 305 l 644 393 q 827 243 730 292 l 827 218 q 644 68 730 169 l 595 68 q 676 201 637 156 l 5 201 l 5 260 l 676 260 z "},"↓":{"ha":833,"x_min":254,"x_max":579,"o":"m 446 110 q 579 191 491 149 l 579 142 q 429 -41 478 56 l 404 -41 q 254 142 355 56 l 254 191 q 387 110 342 149 l 387 781 l 446 781 l 446 110 z "},"↔":{"ha":833,"x_min":5,"x_max":827,"o":"m 157 201 q 237 68 195 156 l 189 68 q 5 218 102 169 l 5 243 q 189 393 102 292 l 237 393 q 157 260 195 305 l 676 260 q 595 393 637 305 l 644 393 q 827 243 730 292 l 827 218 q 644 68 730 169 l 595 68 q 676 201 637 156 l 157 201 z "},"↕":{"ha":833,"x_min":254,"x_max":579,"o":"m 387 629 q 254 549 342 591 l 254 597 q 404 781 355 684 l 429 781 q 579 597 478 684 l 579 549 q 446 629 491 591 l 446 110 q 579 191 491 149 l 579 142 q 429 -41 478 56 l 404 -41 q 254 142 355 56 l 254 191 q 387 110 342 149 l 387 629 z "},"↨":{"ha":833,"x_min":254,"x_max":579,"o":"m 254 -71 l 579 -71 l 579 -125 l 254 -125 l 254 -71 m 387 629 q 254 549 342 591 l 254 597 q 404 781 355 684 l 429 781 q 579 597 478 684 l 579 549 q 446 629 491 591 l 446 110 q 579 191 491 149 l 579 142 q 429 -41 478 56 l 404 -41 q 254 142 355 56 l 254 191 q 387 110 342 149 l 387 629 z "},"∟":{"ha":833,"x_min":35,"x_max":798,"o":"m 35 829 l 99 829 l 99 64 l 798 64 l 798 0 l 35 0 l 35 829 z "},"∩":{"ha":833,"x_min":106,"x_max":727,"o":"m 106 -1 l 106 346 q 145 529 106 448 q 255 655 184 610 q 414 700 326 700 q 575 655 503 700 q 687 528 646 610 q 727 346 727 446 l 727 -1 l 657 -1 l 657 347 q 591 553 657 476 q 416 631 524 631 q 241 554 306 631 q 176 346 176 477 l 176 -1 l 106 -1 z "},"≡":{"ha":833,"x_min":79,"x_max":753,"o":"m 79 648 l 79 749 l 753 749 l 753 648 l 79 648 m 79 165 l 79 266 l 753 266 l 753 165 l 79 165 m 79 407 l 79 507 l 753 507 l 753 407 l 79 407 z "},"⌂":{"ha":833,"x_min":94,"x_max":739,"o":"m 94 0 l 94 431 l 416 734 l 739 431 l 739 0 l 94 0 m 150 58 l 683 58 l 683 405 l 416 656 l 150 405 l 150 58 z "},"⌐":{"ha":833,"x_min":78,"x_max":753,"o":"m 178 412 l 178 122 l 78 122 l 79 511 l 753 511 l 753 412 l 178 412 z "},"⌠":{"ha":833,"x_min":368,"x_max":696,"o":"m 466 -417 l 368 -417 l 368 819 q 423 1066 368 977 q 580 1156 479 1156 q 662 1132 627 1156 q 696 1069 696 1107 q 679 1026 696 1042 q 638 1009 662 1009 q 597 1021 612 1009 q 573 1048 583 1034 q 554 1075 563 1063 q 530 1087 545 1087 q 480 1036 495 1087 q 466 871 466 985 l 466 -417 z "},"⌡":{"ha":833,"x_min":138,"x_max":466,"o":"m 368 1156 l 466 1156 l 466 -79 q 410 -329 466 -240 q 254 -417 353 -417 q 172 -392 206 -417 q 138 -330 138 -368 q 155 -287 138 -303 q 195 -270 172 -270 q 236 -282 222 -270 q 261 -309 251 -294 q 280 -336 271 -323 q 304 -348 289 -348 q 353 -297 338 -348 q 368 -132 368 -245 l 368 1156 z "},"─":{"ha":833,"x_min":-7,"x_max":840,"o":"m -7 376 l -7 475 l 840 475 l 840 376 l -7 376 z "},"│":{"ha":833,"x_min":368,"x_max":466,"o":"m 368 1156 l 466 1156 l 466 -417 l 368 -417 l 368 1156 z "},"┌":{"ha":833,"x_min":368,"x_max":840,"o":"m 368 475 l 840 475 l 840 376 l 466 376 l 466 -417 l 368 -417 l 368 475 z "},"┐":{"ha":833,"x_min":-7,"x_max":466,"o":"m -7 376 l -7 475 l 466 475 l 466 -417 l 368 -417 l 368 376 l -7 376 z "},"└":{"ha":833,"x_min":368,"x_max":840,"o":"m 368 1156 l 466 1156 l 466 475 l 840 475 l 840 376 l 368 376 l 368 1156 z "},"┘":{"ha":833,"x_min":-7,"x_max":466,"o":"m -7 376 l -7 475 l 368 475 l 368 1156 l 466 1156 l 466 376 l -7 376 z "},"├":{"ha":833,"x_min":368,"x_max":840,"o":"m 368 1156 l 466 1156 l 466 475 l 840 475 l 840 376 l 466 376 l 466 -417 l 368 -417 l 368 1156 z "},"┤":{"ha":833,"x_min":-7,"x_max":466,"o":"m -7 376 l -7 475 l 368 475 l 368 1156 l 466 1156 l 466 -417 l 368 -417 l 368 376 l -7 376 z "},"┬":{"ha":833,"x_min":-7,"x_max":840,"o":"m -7 376 l -7 475 l 840 475 l 840 376 l 466 376 l 466 -417 l 368 -417 l 368 376 l -7 376 z "},"┴":{"ha":833,"x_min":-7,"x_max":840,"o":"m -7 376 l -7 475 l 368 475 l 368 1156 l 466 1156 l 466 475 l 840 475 l 840 376 l -7 376 z "},"┼":{"ha":833,"x_min":-7,"x_max":840,"o":"m -7 376 l -7 475 l 368 475 l 368 1156 l 466 1156 l 466 475 l 840 475 l 840 376 l 466 376 l 466 -417 l 368 -417 l 368 376 l -7 376 z "},"═":{"ha":833,"x_min":-7,"x_max":840,"o":"m -7 498 l -7 597 l 840 597 l 840 498 l -7 498 m -7 254 l -7 353 l 840 353 l 840 254 l -7 254 z "},"║":{"ha":833,"x_min":245,"x_max":588,"o":"m 245 1156 l 344 1156 l 344 -417 l 245 -417 l 245 1156 m 490 1156 l 588 1156 l 588 -417 l 490 -417 l 490 1156 z "},"╒":{"ha":833,"x_min":368,"x_max":840,"o":"m 368 597 l 840 597 l 840 498 l 466 498 l 466 353 l 840 353 l 840 254 l 466 254 l 466 -417 l 368 -417 l 368 597 z "},"╓":{"ha":833,"x_min":245,"x_max":840,"o":"m 840 475 l 840 376 l 588 376 l 588 -417 l 490 -417 l 490 376 l 344 376 l 344 -417 l 245 -417 l 245 475 l 840 475 z "},"╔":{"ha":833,"x_min":245,"x_max":840,"o":"m 245 597 l 840 597 l 840 498 l 344 498 l 344 -417 l 245 -417 l 245 597 m 490 353 l 840 353 l 840 254 l 588 254 l 588 -417 l 490 -417 l 490 353 z "},"╕":{"ha":833,"x_min":-7,"x_max":466,"o":"m -7 254 l -7 353 l 368 353 l 368 498 l -7 498 l -7 597 l 466 597 l 466 -417 l 368 -417 l 368 254 l -7 254 z "},"╖":{"ha":833,"x_min":-7,"x_max":588,"o":"m -7 376 l -7 475 l 588 475 l 588 -417 l 490 -417 l 490 376 l 344 376 l 344 -417 l 245 -417 l 245 376 l -7 376 z "},"╗":{"ha":833,"x_min":-7,"x_max":588,"o":"m 588 597 l 588 -417 l 490 -417 l 490 498 l -7 498 l -7 597 l 588 597 m 344 -417 l 245 -417 l 245 254 l -7 254 l -7 353 l 344 353 l 344 -417 z "},"╘":{"ha":833,"x_min":368,"x_max":840,"o":"m 368 1156 l 466 1156 l 466 597 l 840 597 l 840 498 l 466 498 l 466 353 l 840 353 l 840 254 l 368 254 l 368 1156 z "},"╙":{"ha":833,"x_min":245,"x_max":840,"o":"m 490 1156 l 588 1156 l 588 475 l 840 475 l 840 376 l 245 376 l 245 1156 l 344 1156 l 344 475 l 490 475 l 490 1156 z "},"╚":{"ha":833,"x_min":245,"x_max":840,"o":"m 245 1156 l 344 1156 l 344 353 l 840 353 l 840 254 l 245 254 l 245 1156 m 490 1156 l 588 1156 l 588 597 l 840 597 l 840 498 l 490 498 l 490 1156 z "},"╛":{"ha":833,"x_min":-7,"x_max":466,"o":"m -7 254 l -7 353 l 368 353 l 368 498 l -7 498 l -7 597 l 368 597 l 368 1156 l 466 1156 l 466 254 l -7 254 z "},"╜":{"ha":833,"x_min":-7,"x_max":588,"o":"m 588 376 l -7 376 l -7 475 l 245 475 l 245 1156 l 344 1156 l 344 475 l 490 475 l 490 1156 l 588 1156 l 588 376 z "},"╝":{"ha":833,"x_min":-7,"x_max":588,"o":"m 588 254 l -7 254 l -7 353 l 490 353 l 490 1156 l 588 1156 l 588 254 m 245 1156 l 344 1156 l 344 498 l -7 498 l -7 597 l 245 597 l 245 1156 z "},"╞":{"ha":833,"x_min":368,"x_max":840,"o":"m 368 1156 l 466 1156 l 466 597 l 840 597 l 840 498 l 466 498 l 466 353 l 840 353 l 840 254 l 466 254 l 466 -417 l 368 -417 l 368 1156 z "},"╟":{"ha":833,"x_min":245,"x_max":840,"o":"m 490 1156 l 588 1156 l 588 475 l 840 475 l 840 376 l 588 376 l 588 -417 l 490 -417 l 490 1156 m 245 1156 l 344 1156 l 344 -417 l 245 -417 l 245 1156 z "},"╠":{"ha":833,"x_min":245,"x_max":840,"o":"m 344 -417 l 245 -417 l 245 1156 l 344 1156 l 344 -417 m 490 353 l 840 353 l 840 254 l 588 254 l 588 -417 l 490 -417 l 490 353 m 490 1156 l 588 1156 l 588 597 l 840 597 l 840 498 l 490 498 l 490 1156 z "},"╡":{"ha":833,"x_min":-7,"x_max":466,"o":"m -7 254 l -7 353 l 368 353 l 368 498 l -7 498 l -7 597 l 368 597 l 368 1156 l 466 1156 l 466 -417 l 368 -417 l 368 254 l -7 254 z "},"╢":{"ha":833,"x_min":-7,"x_max":588,"o":"m -7 376 l -7 475 l 245 475 l 245 1156 l 344 1156 l 344 -417 l 245 -417 l 245 376 l -7 376 m 490 1156 l 588 1156 l 588 -417 l 490 -417 l 490 1156 z "},"╣":{"ha":833,"x_min":-7,"x_max":588,"o":"m 490 1156 l 588 1156 l 588 -417 l 490 -417 l 490 1156 m 245 1156 l 344 1156 l 344 498 l -7 498 l -7 597 l 245 597 l 245 1156 m 344 -417 l 245 -417 l 245 254 l -7 254 l -7 353 l 344 353 l 344 -417 z "},"╤":{"ha":833,"x_min":-7,"x_max":840,"o":"m -7 254 l -7 353 l 840 353 l 840 254 l 466 254 l 466 -417 l 368 -417 l 368 254 l -7 254 m -7 498 l -7 597 l 840 597 l 840 498 l -7 498 z "},"╥":{"ha":833,"x_min":-7,"x_max":840,"o":"m -7 376 l -7 475 l 840 475 l 840 376 l 588 376 l 588 -417 l 490 -417 l 490 376 l 344 376 l 344 -417 l 245 -417 l 245 376 l -7 376 z "},"╦":{"ha":833,"x_min":-7,"x_max":840,"o":"m 344 -417 l 245 -417 l 245 254 l -7 254 l -7 353 l 344 353 l 344 -417 m 490 353 l 840 353 l 840 254 l 588 254 l 588 -417 l 490 -417 l 490 353 m 840 597 l 840 498 l -7 498 l -7 597 l 840 597 z "},"╧":{"ha":833,"x_min":-7,"x_max":840,"o":"m -7 498 l -7 597 l 368 597 l 368 1156 l 466 1156 l 466 597 l 840 597 l 840 498 l -7 498 m -7 254 l -7 353 l 840 353 l 840 254 l -7 254 z "},"╨":{"ha":833,"x_min":-7,"x_max":840,"o":"m -7 376 l -7 475 l 245 475 l 245 1156 l 344 1156 l 344 475 l 490 475 l 490 1156 l 588 1156 l 588 475 l 840 475 l 840 376 l -7 376 z "},"╩":{"ha":833,"x_min":-7,"x_max":840,"o":"m 490 1156 l 588 1156 l 588 597 l 840 597 l 840 498 l 490 498 l 490 1156 m 245 1156 l 344 1156 l 344 498 l -7 498 l -7 597 l 245 597 l 245 1156 m -7 254 l -7 353 l 840 353 l 840 254 l -7 254 z "},"╪":{"ha":833,"x_min":-7,"x_max":840,"o":"m -7 254 l -7 353 l 368 353 l 368 498 l -7 498 l -7 597 l 368 597 l 368 1156 l 466 1156 l 466 597 l 840 597 l 840 498 l 466 498 l 466 353 l 840 353 l 840 254 l 466 254 l 466 -417 l 368 -417 l 368 254 l -7 254 z "},"╫":{"ha":833,"x_min":-7,"x_max":840,"o":"m 490 1156 l 588 1156 l 588 475 l 840 475 l 840 376 l 588 376 l 588 -417 l 490 -417 l 490 376 l 344 376 l 344 -417 l 245 -417 l 245 376 l -7 376 l -7 475 l 245 475 l 245 1156 l 344 1156 l 344 475 l 490 475 l 490 1156 z "},"╬":{"ha":833,"x_min":-7,"x_max":840,"o":"m 490 1156 l 588 1156 l 588 597 l 840 597 l 840 498 l 490 498 l 490 1156 m 344 -417 l 245 -417 l 245 254 l -7 254 l -7 353 l 344 353 l 344 -417 m 490 353 l 840 353 l 840 254 l 588 254 l 588 -417 l 490 -417 l 490 353 m 245 1156 l 344 1156 l 344 498 l -7 498 l -7 597 l 245 597 l 245 1156 z "},"▀":{"ha":833,"x_min":0,"x_max":833,"o":"m 833 425 l 0 425 l 0 1156 l 833 1156 l 833 425 z "},"▄":{"ha":833,"x_min":0,"x_max":833,"o":"m 833 -417 l 0 -417 l 0 425 l 833 425 l 833 -417 z "},"█":{"ha":833,"x_min":0,"x_max":833,"o":"m 833 -417 l 0 -417 l 0 1156 l 833 1156 l 833 -417 z "},"▌":{"ha":833,"x_min":0,"x_max":417,"o":"m 417 -417 l 0 -417 l 0 1156 l 417 1156 l 417 -417 z "},"▐":{"ha":833,"x_min":416,"x_max":833,"o":"m 833 -417 l 416 -417 l 416 1156 l 833 1156 l 833 -417 z "},"░":{"ha":833,"x_min":0,"x_max":764,"o":"m 0 895 l 70 895 l 70 829 l 0 829 l 0 895 m 278 895 l 348 895 l 348 829 l 278 829 l 278 895 m 556 895 l 626 895 l 626 829 l 556 829 l 556 895 m 139 763 l 208 763 l 208 698 l 139 698 l 139 763 m 417 763 l 486 763 l 486 698 l 417 698 l 417 763 m 695 763 l 764 763 l 764 698 l 695 698 l 695 763 m 0 633 l 70 633 l 70 568 l 0 568 l 0 633 m 278 633 l 348 633 l 348 568 l 278 568 l 278 633 m 556 633 l 626 633 l 626 568 l 556 568 l 556 633 m 139 500 l 208 500 l 208 435 l 139 435 l 139 500 m 417 500 l 486 500 l 486 435 l 417 435 l 417 500 m 695 500 l 764 500 l 764 435 l 695 435 l 695 500 m 0 370 l 70 370 l 70 305 l 0 305 l 0 370 m 278 370 l 348 370 l 348 305 l 278 305 l 278 370 m 556 370 l 626 370 l 626 305 l 556 305 l 556 370 m 417 238 l 486 238 l 486 173 l 417 173 l 417 238 m 695 238 l 764 238 l 764 173 l 695 173 l 695 238 m 139 238 l 208 238 l 208 173 l 139 173 l 139 238 m 556 108 l 626 108 l 626 42 l 556 42 l 556 108 m 278 108 l 348 108 l 348 42 l 278 42 l 278 108 m 0 108 l 70 108 l 70 42 l 0 42 l 0 108 m 139 -24 l 208 -24 l 208 -88 l 139 -88 l 139 -24 m 417 -24 l 486 -24 l 486 -88 l 417 -88 l 417 -24 m 695 -24 l 764 -24 l 764 -88 l 695 -88 l 695 -24 m 556 -155 l 626 -155 l 626 -220 l 556 -220 l 556 -155 m 278 -155 l 348 -155 l 348 -220 l 278 -220 l 278 -155 m 0 -155 l 70 -155 l 70 -220 l 0 -220 l 0 -155 m 139 -286 l 208 -286 l 208 -351 l 139 -351 l 139 -286 m 417 -286 l 486 -286 l 486 -351 l 417 -351 l 417 -286 m 695 -286 l 764 -286 l 764 -351 l 695 -351 l 695 -286 m 139 1025 l 208 1025 l 208 959 l 139 959 l 139 1025 m 417 1025 l 486 1025 l 486 959 l 417 959 l 417 1025 m 695 1025 l 764 1025 l 764 959 l 695 959 l 695 1025 m 0 1156 l 70 1156 l 70 1091 l 0 1091 l 0 1156 m 278 1156 l 348 1156 l 348 1091 l 278 1091 l 278 1156 m 556 1156 l 626 1156 l 626 1091 l 556 1091 l 556 1156 z "},"▒":{"ha":833,"x_min":0,"x_max":834,"o":"m 69 895 l 139 895 l 139 829 l 69 829 l 69 895 m 208 895 l 278 895 l 278 829 l 208 829 l 208 895 m 347 895 l 417 895 l 417 829 l 347 829 l 347 895 m 486 895 l 556 895 l 556 829 l 486 829 l 486 895 m 625 895 l 695 895 l 695 829 l 625 829 l 625 895 m 764 895 l 834 895 l 834 829 l 764 829 l 764 895 m 0 763 l 69 763 l 69 698 l 0 698 l 0 763 m 139 763 l 208 763 l 208 698 l 139 698 l 139 763 m 278 763 l 347 763 l 347 698 l 278 698 l 278 763 m 417 763 l 486 763 l 486 698 l 417 698 l 417 763 m 556 763 l 625 763 l 625 698 l 556 698 l 556 763 m 695 763 l 764 763 l 764 698 l 695 698 l 695 763 m 69 633 l 139 633 l 139 568 l 69 568 l 69 633 m 208 633 l 278 633 l 278 568 l 208 568 l 208 633 m 347 633 l 417 633 l 417 568 l 347 568 l 347 633 m 486 633 l 556 633 l 556 568 l 486 568 l 486 633 m 625 633 l 695 633 l 695 568 l 625 568 l 625 633 m 764 633 l 834 633 l 834 568 l 764 568 l 764 633 m 0 500 l 69 500 l 69 435 l 0 435 l 0 500 m 139 500 l 208 500 l 208 435 l 139 435 l 139 500 m 278 500 l 347 500 l 347 435 l 278 435 l 278 500 m 417 500 l 486 500 l 486 435 l 417 435 l 417 500 m 556 500 l 625 500 l 625 435 l 556 435 l 556 500 m 695 500 l 764 500 l 764 435 l 695 435 l 695 500 m 69 370 l 139 370 l 139 305 l 69 305 l 69 370 m 208 370 l 278 370 l 278 305 l 208 305 l 208 370 m 347 370 l 417 370 l 417 305 l 347 305 l 347 370 m 486 370 l 556 370 l 556 305 l 486 305 l 486 370 m 625 370 l 695 370 l 695 305 l 625 305 l 625 370 m 764 370 l 834 370 l 834 305 l 764 305 l 764 370 m 0 238 l 69 238 l 69 173 l 0 173 l 0 238 m 278 238 l 347 238 l 347 173 l 278 173 l 278 238 m 417 238 l 486 238 l 486 173 l 417 173 l 417 238 m 556 238 l 625 238 l 625 173 l 556 173 l 556 238 m 695 238 l 764 238 l 764 173 l 695 173 l 695 238 m 139 238 l 208 238 l 208 173 l 139 173 l 139 238 m 764 108 l 834 108 l 834 42 l 764 42 l 764 108 m 625 108 l 695 108 l 695 42 l 625 42 l 625 108 m 486 108 l 556 108 l 556 42 l 486 42 l 486 108 m 347 108 l 417 108 l 417 42 l 347 42 l 347 108 m 208 108 l 278 108 l 278 42 l 208 42 l 208 108 m 69 108 l 139 108 l 139 42 l 69 42 l 69 108 m 0 -24 l 69 -24 l 69 -88 l 0 -88 l 0 -24 m 139 -24 l 208 -24 l 208 -88 l 139 -88 l 139 -24 m 278 -24 l 347 -24 l 347 -88 l 278 -88 l 278 -24 m 417 -24 l 486 -24 l 486 -88 l 417 -88 l 417 -24 m 556 -24 l 625 -24 l 625 -88 l 556 -88 l 556 -24 m 695 -24 l 764 -24 l 764 -88 l 695 -88 l 695 -24 m 764 -155 l 834 -155 l 834 -220 l 764 -220 l 764 -155 m 625 -155 l 695 -155 l 695 -220 l 625 -220 l 625 -155 m 486 -155 l 556 -155 l 556 -220 l 486 -220 l 486 -155 m 347 -155 l 417 -155 l 417 -220 l 347 -220 l 347 -155 m 208 -155 l 278 -155 l 278 -220 l 208 -220 l 208 -155 m 69 -155 l 139 -155 l 139 -220 l 69 -220 l 69 -155 m 0 -286 l 69 -286 l 69 -351 l 0 -351 l 0 -286 m 139 -286 l 208 -286 l 208 -351 l 139 -351 l 139 -286 m 278 -286 l 347 -286 l 347 -351 l 278 -351 l 278 -286 m 417 -286 l 486 -286 l 486 -351 l 417 -351 l 417 -286 m 556 -286 l 625 -286 l 625 -351 l 556 -351 l 556 -286 m 695 -286 l 764 -286 l 764 -351 l 695 -351 l 695 -286 m 0 1025 l 69 1025 l 69 959 l 0 959 l 0 1025 m 139 1025 l 208 1025 l 208 959 l 139 959 l 139 1025 m 278 1025 l 347 1025 l 347 959 l 278 959 l 278 1025 m 417 1025 l 486 1025 l 486 959 l 417 959 l 417 1025 m 556 1025 l 625 1025 l 625 959 l 556 959 l 556 1025 m 695 1025 l 764 1025 l 764 959 l 695 959 l 695 1025 m 69 1156 l 139 1156 l 139 1091 l 69 1091 l 69 1156 m 208 1156 l 278 1156 l 278 1091 l 208 1091 l 208 1156 m 347 1156 l 417 1156 l 417 1091 l 347 1091 l 347 1156 m 486 1156 l 556 1156 l 556 1091 l 486 1091 l 486 1156 m 625 1156 l 695 1156 l 695 1091 l 625 1091 l 625 1156 m 764 1156 l 834 1156 l 834 1091 l 764 1091 l 764 1156 z "},"▓":{"ha":833,"x_min":0,"x_max":834,"o":"m 834 -417 l 0 -417 l 0 -220 l 69 -220 l 69 -155 l 0 -155 l 0 42 l 69 42 l 69 108 l 0 108 l 0 305 l 69 305 l 69 370 l 0 370 l 0 566 l 69 566 l 69 633 l 0 633 l 0 829 l 69 829 l 69 895 l 0 895 l 0 1091 l 69 1091 l 69 1156 l 139 1156 l 139 1091 l 208 1091 l 208 1156 l 278 1156 l 278 1091 l 347 1091 l 347 1156 l 417 1156 l 417 1091 l 486 1091 l 486 1156 l 556 1156 l 556 1091 l 625 1091 l 625 1156 l 695 1156 l 695 1091 l 764 1091 l 764 1156 l 834 1156 l 834 1025 l 764 1025 l 764 959 l 834 959 l 834 763 l 764 763 l 764 698 l 834 698 l 834 500 l 764 500 l 764 435 l 834 435 l 834 238 l 764 238 l 764 173 l 834 173 l 834 -24 l 764 -24 l 764 -88 l 834 -88 l 834 -286 l 764 -286 l 764 -351 l 834 -351 l 834 -417 m 69 763 l 69 698 l 139 698 l 139 763 l 69 763 m 208 763 l 208 698 l 278 698 l 278 763 l 208 763 m 347 763 l 347 698 l 417 698 l 417 763 l 347 763 m 486 763 l 486 698 l 556 698 l 556 763 l 486 763 m 625 633 l 556 633 l 556 566 l 625 566 l 625 633 m 486 633 l 417 633 l 417 566 l 486 566 l 486 633 m 347 633 l 278 633 l 278 566 l 347 566 l 347 633 m 208 633 l 139 633 l 139 566 l 208 566 l 208 633 m 69 500 l 69 435 l 139 435 l 139 500 l 69 500 m 208 500 l 208 435 l 278 435 l 278 500 l 208 500 m 347 500 l 347 435 l 417 435 l 417 500 l 347 500 m 486 500 l 486 435 l 556 435 l 556 500 l 486 500 m 208 370 l 139 370 l 139 305 l 208 305 l 208 370 m 278 370 l 278 305 l 347 305 l 347 370 l 278 370 m 417 370 l 417 305 l 486 305 l 486 370 l 417 370 m 556 370 l 556 305 l 625 305 l 625 370 l 556 370 m 69 238 l 69 173 l 139 173 l 139 238 l 69 238 m 347 238 l 347 173 l 417 173 l 417 238 l 347 238 m 278 173 l 278 238 l 208 238 l 208 173 l 278 173 m 486 238 l 486 173 l 556 173 l 556 238 l 486 238 m 625 42 l 625 108 l 556 108 l 556 42 l 625 42 m 486 42 l 486 108 l 417 108 l 417 42 l 486 42 m 347 42 l 347 108 l 278 108 l 278 42 l 347 42 m 208 42 l 208 108 l 139 108 l 139 42 l 208 42 m 69 -24 l 69 -88 l 139 -88 l 139 -24 l 69 -24 m 208 -24 l 208 -88 l 278 -88 l 278 -24 l 208 -24 m 347 -24 l 347 -88 l 417 -88 l 417 -24 l 347 -24 m 486 -24 l 486 -88 l 556 -88 l 556 -24 l 486 -24 m 625 -220 l 625 -155 l 556 -155 l 556 -220 l 625 -220 m 486 -220 l 486 -155 l 417 -155 l 417 -220 l 486 -220 m 347 -220 l 347 -155 l 278 -155 l 278 -220 l 347 -220 m 208 -220 l 208 -155 l 139 -155 l 139 -220 l 208 -220 m 69 -286 l 69 -351 l 139 -351 l 139 -286 l 69 -286 m 208 -286 l 208 -351 l 278 -351 l 278 -286 l 208 -286 m 347 -286 l 347 -351 l 417 -351 l 417 -286 l 347 -286 m 486 -286 l 486 -351 l 556 -351 l 556 -286 l 486 -286 m 625 895 l 556 895 l 556 829 l 625 829 l 625 895 m 486 895 l 417 895 l 417 829 l 486 829 l 486 895 m 347 895 l 278 895 l 278 829 l 347 829 l 347 895 m 208 895 l 139 895 l 139 829 l 208 829 l 208 895 m 556 1025 l 486 1025 l 486 959 l 556 959 l 556 1025 m 417 1025 l 347 1025 l 347 959 l 417 959 l 417 1025 m 278 1025 l 208 1025 l 208 959 l 278 959 l 278 1025 m 139 1025 l 69 1025 l 69 959 l 139 959 l 139 1025 m 625 763 l 625 698 l 695 698 l 695 763 l 625 763 m 764 633 l 695 633 l 695 566 l 764 566 l 764 633 m 625 500 l 625 435 l 695 435 l 695 500 l 625 500 m 695 370 l 695 305 l 764 305 l 764 370 l 695 370 m 625 238 l 625 173 l 695 173 l 695 238 l 625 238 m 764 42 l 764 108 l 695 108 l 695 42 l 764 42 m 625 -24 l 625 -88 l 695 -88 l 695 -24 l 625 -24 m 764 -220 l 764 -155 l 695 -155 l 695 -220 l 764 -220 m 625 -286 l 625 -351 l 695 -351 l 695 -286 l 625 -286 m 764 895 l 695 895 l 695 829 l 764 829 l 764 895 m 695 1025 l 625 1025 l 625 959 l 695 959 l 695 1025 z "},"■":{"ha":833,"x_min":81,"x_max":753,"o":"m 81 751 l 753 751 l 753 79 l 81 79 l 81 751 z "},"▬":{"ha":833,"x_min":5,"x_max":828,"o":"m 5 370 l 828 370 l 828 47 l 5 47 l 5 370 z "},"▲":{"ha":833,"x_min":10,"x_max":823,"o":"m 10 34 l 417 812 l 823 34 l 10 34 z "},"►":{"ha":833,"x_min":35,"x_max":832,"o":"m 35 811 l 832 397 l 35 -18 l 35 811 z "},"▼":{"ha":833,"x_min":10,"x_max":823,"o":"m 823 760 l 417 -18 l 10 760 l 823 760 z "},"◄":{"ha":833,"x_min":1,"x_max":798,"o":"m 798 811 l 798 -18 l 1 397 l 798 811 z "},"○":{"ha":833,"x_min":111,"x_max":723,"o":"m 111 415 q 151 569 111 498 q 263 681 192 640 q 416 722 334 722 q 570 681 498 722 q 682 569 641 640 q 723 415 723 497 q 682 262 723 333 q 570 151 641 191 q 416 110 499 110 q 262 151 333 110 q 151 262 192 191 q 111 415 111 332 m 169 415 q 202 291 169 349 q 292 201 235 234 q 416 168 349 168 q 539 201 482 168 q 631 291 597 233 q 665 415 665 349 q 631 539 665 481 q 540 631 598 597 q 416 664 482 664 q 293 631 350 664 q 202 540 235 597 q 169 415 169 483 z "},"◘":{"ha":833,"x_min":25,"x_max":808,"o":"m 25 0 l 25 783 l 808 783 l 808 0 l 25 0 m 117 391 q 157 242 117 311 q 266 133 197 173 q 415 93 334 93 q 565 133 495 93 q 674 242 634 173 q 714 391 714 312 q 674 541 714 471 q 565 650 634 610 q 415 690 496 690 q 266 650 335 690 q 156 541 196 610 q 117 391 117 471 z "},"◙":{"ha":833,"x_min":25,"x_max":808,"o":"m 25 0 l 25 783 l 808 783 l 808 0 l 25 0 m 169 391 q 202 515 169 457 q 293 606 235 572 q 416 639 351 639 q 540 606 482 639 q 631 515 597 572 q 664 391 664 457 q 631 268 664 326 q 540 177 597 210 q 416 144 482 144 q 293 177 351 144 q 202 268 235 210 q 169 391 169 326 m 117 391 q 157 242 117 311 q 266 133 197 173 q 415 93 334 93 q 565 133 495 93 q 674 242 634 173 q 714 391 714 312 q 674 541 714 471 q 565 650 634 610 q 415 690 496 690 q 266 650 335 690 q 156 541 196 610 q 117 391 117 471 z "},"☺":{"ha":833,"x_min":18,"x_max":814,"o":"m 18 399 q 72 599 18 507 q 217 744 125 691 q 416 798 309 798 q 615 744 524 798 q 761 599 707 691 q 814 399 814 507 q 761 200 814 292 q 616 55 708 108 q 416 1 524 1 q 217 55 309 1 q 72 200 125 108 q 18 399 18 292 m 61 399 q 109 222 61 304 q 238 92 156 140 q 416 44 321 44 q 594 92 511 44 q 724 222 676 140 q 771 399 771 305 q 724 576 771 494 q 594 706 676 659 q 416 754 512 754 q 239 707 321 754 q 109 576 157 659 q 61 399 61 494 m 221 503 q 235 536 221 522 q 269 551 249 551 q 302 536 288 551 q 317 503 317 522 q 302 469 317 483 q 269 455 288 455 q 235 469 249 455 q 221 503 221 483 m 516 503 q 530 536 516 522 q 564 551 544 551 q 597 536 583 551 q 612 503 612 522 q 597 469 612 483 q 564 455 583 455 q 530 469 544 455 q 516 503 516 483 m 239 300 q 321 227 279 247 q 416 208 363 208 q 513 228 471 208 q 593 300 555 248 l 633 267 q 416 146 557 146 q 329 160 368 146 q 261 197 290 174 q 200 267 231 220 l 239 300 z "},"☻":{"ha":833,"x_min":18,"x_max":814,"o":"m 18 399 q 72 599 18 507 q 217 744 125 691 q 416 798 309 798 q 615 744 524 798 q 761 599 707 691 q 814 399 814 507 q 761 200 814 292 q 616 55 708 108 q 416 1 524 1 q 217 55 309 1 q 72 200 125 108 q 18 399 18 292 m 221 503 q 235 469 221 483 q 269 455 249 455 q 302 469 288 455 q 317 503 317 483 q 302 536 317 522 q 269 551 288 551 q 235 536 249 551 q 221 503 221 522 m 516 503 q 530 469 516 483 q 564 455 544 455 q 597 469 583 455 q 612 503 612 483 q 597 536 612 522 q 564 551 583 551 q 530 536 544 551 q 516 503 516 522 m 200 267 q 260 197 231 220 q 328 160 290 174 q 416 146 367 146 q 633 267 557 146 l 593 300 q 512 227 554 247 q 416 208 469 208 q 320 228 363 208 q 239 300 278 248 l 200 267 z "},"☼":{"ha":833,"x_min":18,"x_max":815,"o":"m 152 615 l 263 503 q 392 557 322 550 l 392 715 l 441 715 l 441 557 q 569 503 510 551 l 681 615 l 715 581 l 604 469 q 657 340 651 410 l 815 340 l 815 292 l 657 292 q 604 163 650 222 l 715 52 l 681 17 l 569 128 q 441 75 510 81 l 441 -83 l 392 -83 l 392 75 q 263 128 322 81 l 152 17 l 117 52 l 229 163 q 175 292 182 222 l 18 292 l 18 340 l 175 340 q 229 469 181 410 l 117 581 l 152 615 m 223 316 q 279 179 223 236 q 416 123 335 123 q 554 179 498 123 q 610 316 610 236 q 553 453 610 396 q 416 509 496 509 q 280 453 336 509 q 223 316 223 396 z "},"♀":{"ha":833,"x_min":214,"x_max":618,"o":"m 233 255 l 392 255 l 392 392 q 264 459 315 401 q 214 593 214 517 q 274 735 214 676 q 416 795 333 795 q 559 735 500 795 q 618 593 618 676 q 568 460 618 517 q 441 392 518 402 l 441 255 l 600 255 l 600 206 l 441 206 l 441 47 l 392 47 l 392 206 l 233 206 l 233 255 m 263 593 q 308 484 263 529 q 416 439 353 439 q 525 485 481 439 q 570 593 570 530 q 525 701 570 656 q 416 746 480 746 q 309 702 355 746 q 263 593 263 658 z "},"♂":{"ha":833,"x_min":111,"x_max":697,"o":"m 111 279 q 171 422 111 363 q 313 481 230 481 q 437 438 382 481 l 612 612 l 458 626 l 457 663 l 682 663 l 697 648 l 697 423 l 660 425 l 646 578 l 472 404 q 515 279 515 349 q 456 137 515 196 q 313 77 397 77 q 171 137 230 77 q 111 279 111 196 m 160 279 q 205 171 160 216 q 313 126 250 126 q 422 172 378 126 q 467 279 467 217 q 422 388 467 342 q 313 433 377 433 q 206 389 252 433 q 160 279 160 345 z "},"♠":{"ha":833,"x_min":69,"x_max":764,"o":"m 434 810 q 482 680 434 752 q 604 549 530 608 q 728 429 692 480 q 764 324 764 378 q 718 207 764 251 q 604 163 671 163 q 519 182 564 163 q 449 231 474 201 q 508 89 449 140 q 666 38 568 38 l 666 0 l 167 0 l 167 38 q 325 89 265 38 q 384 231 384 140 q 313 182 358 201 q 229 163 269 163 q 115 207 161 163 q 69 324 69 251 q 103 426 69 376 q 229 549 136 475 q 351 680 302 607 q 399 810 399 753 l 434 810 z "},"♣":{"ha":833,"x_min":66,"x_max":767,"o":"m 416 810 q 516 790 474 810 q 581 732 558 769 q 604 652 604 695 q 582 561 604 606 q 524 492 559 516 l 562 494 q 710 447 653 494 q 767 324 767 401 q 721 207 767 251 q 608 163 675 163 q 520 183 566 163 q 449 231 474 203 q 508 89 449 140 q 666 38 568 38 l 666 0 l 167 0 l 167 38 q 325 89 265 38 q 384 231 384 140 q 314 183 359 203 q 225 163 268 163 q 112 207 157 163 q 66 324 66 251 q 123 448 66 401 q 271 494 180 494 l 309 492 q 251 561 274 516 q 229 652 229 606 q 252 732 229 695 q 317 790 275 769 q 416 810 359 810 z "},"♥":{"ha":833,"x_min":69,"x_max":764,"o":"m 399 -1 q 358 116 399 45 q 229 294 318 187 q 69 597 69 488 q 92 683 69 644 q 153 743 115 722 q 235 765 192 765 q 345 721 296 765 q 414 609 394 676 l 418 609 q 488 721 439 677 q 597 765 538 765 q 680 743 641 765 q 741 683 718 722 q 764 597 764 644 q 604 294 764 488 q 501 159 531 204 q 452 73 471 113 q 434 -1 434 33 l 399 -1 z "},"♦":{"ha":833,"x_min":90,"x_max":743,"o":"m 90 405 l 90 407 q 412 812 258 600 l 420 812 q 743 407 574 600 l 743 405 q 420 -1 574 212 l 412 -1 q 90 405 258 212 z "},"♪":{"ha":833,"x_min":191,"x_max":635,"o":"m 534 184 q 572 249 558 210 q 586 332 586 288 q 549 459 586 403 q 450 535 511 515 l 450 130 q 404 50 450 83 q 300 16 358 16 q 222 39 253 16 q 191 100 191 62 q 238 178 191 144 q 340 212 284 212 q 408 197 380 212 l 408 764 l 434 764 q 524 602 442 685 q 609 485 583 541 q 635 360 635 429 q 617 265 635 311 q 566 184 598 219 l 534 184 z "},"♫":{"ha":833,"x_min":76,"x_max":735,"o":"m 585 30 q 507 53 538 30 q 476 114 476 76 q 523 192 476 158 q 625 226 569 226 q 693 210 665 226 l 693 505 l 335 450 l 335 82 q 289 2 335 36 q 184 -31 243 -31 q 107 -8 138 -31 q 76 53 76 15 q 122 131 76 97 q 225 165 169 165 q 293 149 264 165 l 293 715 l 735 783 l 735 143 q 689 63 735 97 q 585 30 643 30 m 335 545 l 693 600 l 693 682 l 335 627 l 335 545 z "},"Ĳ":{"ha":833,"x_min":66,"x_max":785,"o":"m 66 915 l 196 915 l 196 0 l 66 0 l 66 915 m 521 92 q 624 140 591 92 q 656 282 656 189 l 656 809 l 472 809 l 472 915 l 785 915 l 785 285 q 716 64 785 142 q 520 -14 648 -14 q 343 45 406 -14 q 256 237 281 104 l 382 258 q 430 131 395 171 q 521 92 465 92 z "},"ĳ":{"ha":833,"x_min":146,"x_max":720,"o":"m 161 734 l 282 734 l 282 0 l 160 0 l 161 734 m 146 876 l 146 1006 l 282 1006 l 282 876 l 146 876 m 597 734 l 720 734 l 720 -19 q 644 -217 720 -146 q 427 -288 568 -288 q 318 -279 374 -288 q 232 -259 262 -271 l 232 -164 q 417 -187 334 -187 q 551 -142 504 -187 q 597 -17 597 -98 l 597 734 m 584 876 l 584 1006 l 720 1006 l 720 876 l 584 876 z "},"ŉ":{"ha":833,"x_min":3,"x_max":783,"o":"m 660 0 l 660 471 q 624 608 660 564 q 511 653 589 653 q 373 592 427 653 q 319 425 319 530 l 319 0 l 197 0 l 197 577 q 193 734 197 705 l 308 734 q 309 715 309 730 q 311 681 310 701 q 313 608 312 662 l 315 608 q 550 747 387 747 q 725 684 667 747 q 783 489 783 621 l 783 0 l 660 0 m 3 695 l 3 718 l 57 916 l 191 916 l 191 890 l 75 695 l 3 695 z "},"′":{"ha":833,"x_min":340,"x_max":492,"o":"m 464 573 l 368 573 l 340 1006 l 492 1006 l 464 573 z "},"″":{"ha":833,"x_min":188,"x_max":644,"o":"m 616 573 l 519 573 l 492 1006 l 644 1006 l 616 573 m 311 573 l 216 573 l 188 1006 l 340 1006 l 311 573 z "},"℅":{"ha":833,"x_min":0,"x_max":833,"o":"m 833 274 q 785 65 833 138 q 650 -8 737 -8 q 517 65 564 -8 q 471 274 471 138 q 516 488 471 417 q 653 559 561 559 q 833 274 833 559 m 733 274 q 714 435 733 386 q 653 484 695 484 q 589 435 608 484 q 570 274 570 385 q 590 118 570 170 q 652 66 609 66 q 713 117 693 66 q 733 274 733 167 m 99 641 q 122 487 99 543 q 184 431 146 431 q 255 546 241 431 l 351 540 q 298 406 342 458 q 187 354 254 354 q 48 430 96 354 q 0 639 0 505 q 47 849 0 776 q 186 922 95 922 q 292 877 250 922 q 347 747 333 831 l 250 739 q 229 817 243 788 q 184 846 214 846 q 99 641 99 846 m 218 0 l 138 0 l 615 915 l 693 915 l 218 0 z "},"ℓ":{"ha":833,"x_min":194,"x_max":627,"o":"m 481 53 q 543 88 516 53 q 581 197 569 123 l 627 197 q 452 -14 600 -14 q 329 43 374 -14 q 283 199 283 99 l 283 318 q 194 279 249 300 l 194 328 q 283 368 248 349 l 283 766 q 328 918 283 866 q 456 969 372 969 q 570 914 527 969 q 612 766 612 859 q 553 532 612 640 q 396 368 493 423 l 396 202 q 420 93 396 134 q 481 53 445 53 m 551 761 q 526 873 551 828 q 465 918 502 918 q 413 883 431 918 q 396 766 396 848 l 396 422 q 508 562 465 469 q 551 761 551 655 z "},"□":{"ha":833,"x_min":1,"x_max":832,"o":"m 1 831 l 832 831 l 832 0 l 1 0 l 1 831 m 53 779 l 53 52 l 781 52 l 781 779 l 53 779 z "},"▪":{"ha":833,"x_min":244,"x_max":589,"o":"m 589 260 l 244 260 l 244 604 l 589 604 l 589 260 z "},"▫":{"ha":833,"x_min":244,"x_max":589,"o":"m 589 260 l 244 260 l 244 604 l 589 604 l 589 260 m 537 311 l 537 551 l 296 551 l 296 311 l 537 311 z "},"●":{"ha":833,"x_min":118,"x_max":715,"o":"m 416 690 q 565 651 491 690 q 677 538 638 612 q 715 392 715 464 q 628 180 715 268 q 416 93 541 93 q 205 181 293 93 q 118 392 118 269 q 156 537 118 465 q 266 650 193 610 q 416 690 339 690 z "},"◦":{"ha":833,"x_min":248,"x_max":585,"o":"m 585 432 q 533 312 585 359 q 416 264 482 264 q 332 286 370 264 q 271 347 294 308 q 248 432 248 385 q 298 551 248 502 q 416 600 348 600 q 534 550 486 600 q 585 432 585 502 m 533 432 q 498 514 533 479 q 416 549 464 549 q 334 514 369 549 q 300 432 300 479 q 333 350 300 384 q 416 315 366 315 q 501 351 469 315 q 533 432 533 387 z "},"Ā":{"ha":833,"x_min":0,"x_max":833,"o":"m 701 0 l 608 259 l 226 259 l 133 0 l 0 0 l 346 915 l 493 915 l 833 0 l 701 0 m 418 817 l 410 791 l 363 647 l 260 360 l 574 360 l 457 699 l 418 817 m 604 1019 l 230 1019 l 230 1105 l 604 1105 l 604 1019 z "},"ā":{"ha":833,"x_min":87,"x_max":787,"o":"m 747 75 q 787 80 764 75 l 787 4 q 692 -7 741 -7 q 594 29 625 -7 q 559 140 563 64 l 555 140 q 451 22 511 58 q 302 -14 391 -14 q 141 45 195 -14 q 87 205 87 103 q 395 445 87 441 l 555 448 l 555 488 q 519 615 555 576 q 404 654 483 654 q 289 626 324 654 q 247 538 254 597 l 119 549 q 406 747 151 747 q 610 684 542 747 q 678 500 678 621 l 678 184 q 692 103 678 130 q 747 75 707 75 m 334 79 q 449 111 399 79 q 527 194 499 142 q 555 302 555 246 l 555 362 l 426 359 q 304 342 346 358 q 238 292 262 326 q 215 203 215 258 q 245 113 215 147 q 334 79 275 79 m 577 838 l 203 838 l 203 924 l 577 924 l 577 838 z "},"Ĉ":{"ha":833,"x_min":77,"x_max":774,"o":"m 213 462 q 271 184 213 277 q 448 92 329 92 q 572 138 517 92 q 667 283 628 184 l 774 239 q 447 -14 673 -14 q 173 109 269 -14 q 77 462 77 232 q 440 929 77 929 q 756 702 670 929 l 642 658 q 564 779 617 734 q 441 823 511 823 q 269 736 325 823 q 213 462 213 648 m 654 994 l 654 981 l 583 981 l 435 1074 l 433 1074 l 276 981 l 205 981 l 205 994 l 378 1156 l 489 1156 l 654 994 z "},"ĉ":{"ha":833,"x_min":88,"x_max":732,"o":"m 88 368 q 176 649 88 551 q 429 747 263 747 q 632 688 552 747 q 731 528 712 629 l 601 519 q 547 616 590 581 q 423 652 503 652 q 266 585 316 652 q 216 370 216 519 q 266 150 216 220 q 422 81 316 81 q 544 117 496 81 q 604 227 592 153 l 732 218 q 683 100 724 153 q 576 17 643 47 q 428 -14 510 -14 q 175 84 262 -14 q 88 368 88 182 m 641 828 l 641 814 l 570 814 l 421 908 l 420 908 l 262 814 l 192 814 l 192 828 l 364 990 l 475 990 l 641 828 z "},"Ċ":{"ha":833,"x_min":77,"x_max":774,"o":"m 213 462 q 271 184 213 277 q 448 92 329 92 q 572 138 517 92 q 667 283 628 184 l 774 239 q 447 -14 673 -14 q 173 109 269 -14 q 77 462 77 232 q 440 929 77 929 q 756 702 670 929 l 642 658 q 564 779 617 734 q 441 823 511 823 q 269 736 325 823 q 213 462 213 648 m 370 981 l 370 1111 l 505 1111 l 505 981 l 370 981 z "},"ċ":{"ha":833,"x_min":88,"x_max":732,"o":"m 88 368 q 176 649 88 551 q 429 747 263 747 q 632 688 552 747 q 731 528 712 629 l 601 519 q 547 616 590 581 q 423 652 503 652 q 266 585 316 652 q 216 370 216 519 q 266 150 216 220 q 422 81 316 81 q 544 117 496 81 q 604 227 592 153 l 732 218 q 683 100 724 153 q 576 17 643 47 q 428 -14 510 -14 q 175 84 262 -14 q 88 368 88 182 m 363 876 l 363 1006 l 498 1006 l 498 876 l 363 876 z "},"Ē":{"ha":833,"x_min":110,"x_max":761,"o":"m 110 0 l 110 915 l 733 915 l 733 809 l 239 809 l 239 523 l 692 523 l 692 418 l 239 418 l 239 106 l 761 106 l 761 0 l 110 0 m 614 1019 l 241 1019 l 241 1105 l 614 1105 l 614 1019 z "},"ē":{"ha":833,"x_min":90,"x_max":742,"o":"m 218 341 q 273 148 218 218 q 422 78 328 78 q 545 108 492 78 q 615 191 597 138 l 722 160 q 613 31 692 76 q 422 -14 533 -14 q 176 86 262 -14 q 90 372 90 186 q 175 650 90 553 q 418 747 259 747 q 660 650 578 747 q 742 357 742 553 l 742 341 l 218 341 m 420 657 q 276 598 329 657 q 220 435 223 538 l 616 435 q 420 657 597 657 m 604 838 l 230 838 l 230 924 l 604 924 l 604 838 z "},"Ĕ":{"ha":833,"x_min":110,"x_max":761,"o":"m 110 0 l 110 915 l 733 915 l 733 809 l 239 809 l 239 523 l 692 523 l 692 418 l 239 418 l 239 106 l 761 106 l 761 0 l 110 0 m 416 981 q 275 1029 332 981 q 204 1156 218 1077 l 290 1156 q 331 1090 302 1114 q 416 1066 360 1066 q 502 1090 473 1066 q 543 1156 531 1114 l 629 1156 q 556 1028 612 1076 q 416 981 500 981 z "},"ĕ":{"ha":833,"x_min":90,"x_max":742,"o":"m 218 341 q 273 148 218 218 q 422 78 328 78 q 545 108 492 78 q 615 191 597 138 l 722 160 q 613 31 692 76 q 422 -14 533 -14 q 176 86 262 -14 q 90 372 90 186 q 175 650 90 553 q 418 747 259 747 q 660 650 578 747 q 742 357 742 553 l 742 341 l 218 341 m 420 657 q 276 598 329 657 q 220 435 223 538 l 616 435 q 420 657 597 657 m 418 814 q 278 863 334 814 q 207 990 221 911 l 293 990 q 334 924 304 947 q 418 900 363 900 q 505 924 476 900 q 545 990 534 947 l 631 990 q 559 862 615 909 q 418 814 503 814 z "},"Ė":{"ha":833,"x_min":110,"x_max":761,"o":"m 110 0 l 110 915 l 733 915 l 733 809 l 239 809 l 239 523 l 692 523 l 692 418 l 239 418 l 239 106 l 761 106 l 761 0 l 110 0 m 349 981 l 349 1111 l 485 1111 l 485 981 l 349 981 z "},"ė":{"ha":833,"x_min":90,"x_max":742,"o":"m 218 341 q 273 148 218 218 q 422 78 328 78 q 545 108 492 78 q 615 191 597 138 l 722 160 q 613 31 692 76 q 422 -14 533 -14 q 176 86 262 -14 q 90 372 90 186 q 175 650 90 553 q 418 747 259 747 q 660 650 578 747 q 742 357 742 553 l 742 341 l 218 341 m 420 657 q 276 598 329 657 q 220 435 223 538 l 616 435 q 420 657 597 657 m 351 880 l 351 1010 l 486 1010 l 486 880 l 351 880 z "},"Ĝ":{"ha":833,"x_min":77,"x_max":748,"o":"m 747 90 q 433 -14 591 -14 q 170 112 264 -14 q 77 462 77 238 q 166 813 77 697 q 435 929 256 929 q 748 705 670 929 l 632 667 q 437 823 578 823 q 268 738 322 823 q 213 462 213 652 q 444 92 213 92 q 540 106 490 92 q 621 142 589 120 l 621 370 l 422 370 l 422 478 l 747 478 l 747 90 m 641 994 l 641 981 l 570 981 l 421 1074 l 420 1074 l 262 981 l 192 981 l 192 994 l 364 1156 l 475 1156 l 641 994 z "},"ĝ":{"ha":833,"x_min":97,"x_max":715,"o":"m 417 -288 q 234 -241 303 -288 q 146 -106 165 -194 l 271 -90 q 320 -168 282 -140 q 421 -195 359 -195 q 589 18 589 -195 l 589 150 l 588 150 q 496 44 555 80 q 355 8 437 8 q 159 96 221 8 q 97 372 97 184 q 163 655 97 564 q 368 745 230 745 q 502 710 445 745 q 589 608 558 674 l 591 608 q 593 677 591 629 q 599 734 596 726 l 715 734 q 711 582 711 697 l 711 22 q 639 -210 711 -132 q 417 -288 567 -288 m 589 374 q 538 579 589 505 q 399 654 488 654 q 264 590 306 654 q 223 374 223 525 q 240 212 223 271 q 294 125 258 153 q 397 98 331 98 q 498 131 454 98 q 566 225 542 163 q 589 374 589 287 m 635 828 l 635 814 l 564 814 l 415 908 l 414 908 l 256 814 l 186 814 l 186 828 l 358 990 l 469 990 l 635 828 z "},"Ġ":{"ha":833,"x_min":77,"x_max":748,"o":"m 747 90 q 433 -14 591 -14 q 170 112 264 -14 q 77 462 77 238 q 166 813 77 697 q 435 929 256 929 q 748 705 670 929 l 632 667 q 437 823 578 823 q 268 738 322 823 q 213 462 213 652 q 444 92 213 92 q 540 106 490 92 q 621 142 589 120 l 621 370 l 422 370 l 422 478 l 747 478 l 747 90 m 356 981 l 356 1111 l 492 1111 l 492 981 l 356 981 z "},"ġ":{"ha":833,"x_min":97,"x_max":715,"o":"m 417 -288 q 234 -241 303 -288 q 146 -106 165 -194 l 271 -90 q 320 -168 282 -140 q 421 -195 359 -195 q 589 18 589 -195 l 589 150 l 588 150 q 496 44 555 80 q 355 8 437 8 q 159 96 221 8 q 97 372 97 184 q 163 655 97 564 q 368 745 230 745 q 502 710 445 745 q 589 608 558 674 l 591 608 q 593 677 591 629 q 599 734 596 726 l 715 734 q 711 582 711 697 l 711 22 q 639 -210 711 -132 q 417 -288 567 -288 m 589 374 q 538 579 589 505 q 399 654 488 654 q 264 590 306 654 q 223 374 223 525 q 240 212 223 271 q 294 125 258 153 q 397 98 331 98 q 498 131 454 98 q 566 225 542 163 q 589 374 589 287 m 343 876 l 343 1006 l 479 1006 l 479 876 l 343 876 z "},"Ģ":{"ha":833,"x_min":77,"x_max":748,"o":"m 747 90 q 433 -14 591 -14 q 170 112 264 -14 q 77 462 77 238 q 166 813 77 697 q 435 929 256 929 q 748 705 670 929 l 632 667 q 437 823 578 823 q 268 738 322 823 q 213 462 213 652 q 444 92 213 92 q 540 106 490 92 q 621 142 589 120 l 621 370 l 422 370 l 422 478 l 747 478 l 747 90 m 322 -287 l 322 -264 l 376 -66 l 509 -66 l 509 -92 l 393 -287 l 322 -287 z "},"ģ":{"ha":833,"x_min":97,"x_max":715,"o":"m 417 -288 q 234 -241 303 -288 q 146 -106 165 -194 l 271 -90 q 320 -168 282 -140 q 421 -195 359 -195 q 589 18 589 -195 l 589 150 l 588 150 q 496 44 555 80 q 355 8 437 8 q 159 96 221 8 q 97 372 97 184 q 163 655 97 564 q 368 745 230 745 q 502 710 445 745 q 589 608 558 674 l 591 608 q 593 677 591 629 q 599 734 596 726 l 715 734 q 711 582 711 697 l 711 22 q 639 -210 711 -132 q 417 -288 567 -288 m 589 374 q 538 579 589 505 q 399 654 488 654 q 264 590 306 654 q 223 374 223 525 q 240 212 223 271 q 294 125 258 153 q 397 98 331 98 q 498 131 454 98 q 566 225 542 163 q 589 374 589 287 m 509 1042 l 509 1019 l 455 821 l 321 821 l 321 846 l 437 1042 l 509 1042 z "},"Ĥ":{"ha":833,"x_min":110,"x_max":723,"o":"m 593 0 l 593 422 l 239 422 l 239 0 l 110 0 l 110 915 l 239 915 l 239 531 l 593 531 l 593 915 l 723 915 l 723 0 l 593 0 m 641 994 l 641 981 l 570 981 l 421 1074 l 420 1074 l 262 981 l 192 981 l 192 994 l 364 1156 l 475 1156 l 641 994 z "},"ĥ":{"ha":833,"x_min":125,"x_max":711,"o":"m 125 915 l 248 915 l 248 701 q 242 568 248 661 l 244 568 q 474 707 315 707 q 711 448 711 707 l 711 0 l 589 0 l 589 431 q 553 568 589 523 q 439 612 517 612 q 301 551 355 612 q 248 385 248 490 l 248 0 l 125 0 l 125 915 m 641 994 l 641 980 l 570 980 l 421 1074 l 420 1074 l 262 980 l 192 980 l 192 994 l 364 1156 l 475 1156 l 641 994 z "},"Ħ":{"ha":833,"x_min":1,"x_max":831,"o":"m 110 782 l 110 915 l 239 915 l 239 782 l 593 782 l 593 915 l 723 915 l 723 782 l 831 782 l 831 682 l 723 682 l 723 0 l 593 0 l 593 422 l 239 422 l 239 0 l 110 0 l 110 682 l 1 682 l 1 782 l 110 782 m 593 531 l 593 682 l 239 682 l 239 531 l 593 531 z "},"ħ":{"ha":833,"x_min":36,"x_max":711,"o":"m 125 1006 l 248 1006 l 248 900 l 451 900 l 451 811 l 248 811 l 248 722 q 242 588 248 682 l 244 588 q 474 727 315 727 q 711 469 711 727 l 711 0 l 589 0 l 589 451 q 553 588 589 543 q 439 633 517 633 q 301 571 355 633 q 248 405 248 510 l 248 0 l 125 0 l 125 811 l 36 811 l 36 900 l 125 900 l 125 1006 z "},"Ĩ":{"ha":833,"x_min":137,"x_max":695,"o":"m 137 915 l 695 915 l 695 809 l 481 809 l 481 106 l 695 106 l 695 0 l 137 0 l 137 106 l 351 106 l 351 809 l 137 809 l 137 915 m 523 981 q 466 993 494 981 q 410 1021 437 1006 q 357 1049 383 1036 q 307 1061 331 1061 q 280 1055 290 1061 q 263 1036 270 1048 q 249 981 256 1024 l 174 981 q 197 1079 181 1046 q 241 1131 213 1112 q 311 1149 269 1149 q 370 1136 341 1149 q 425 1108 398 1124 q 477 1081 452 1093 q 525 1068 503 1068 q 564 1084 550 1068 q 584 1149 577 1100 l 660 1149 q 615 1018 649 1055 q 523 981 582 981 z "},"ĩ":{"ha":833,"x_min":97,"x_max":763,"o":"m 505 96 l 763 96 l 763 0 l 97 0 l 97 96 l 383 96 l 383 637 l 167 637 l 167 734 l 505 734 l 505 96 m 522 814 q 465 827 494 814 q 410 855 437 840 q 356 883 382 870 q 307 895 330 895 q 279 889 290 895 q 262 870 269 882 q 248 814 256 858 l 173 814 q 196 913 180 880 q 240 964 212 946 q 311 983 268 983 q 369 970 340 983 q 425 942 397 958 q 477 915 452 927 q 524 902 502 902 q 563 918 549 902 q 583 983 576 934 l 659 983 q 615 852 648 889 q 522 814 581 814 z "},"Ī":{"ha":833,"x_min":137,"x_max":695,"o":"m 137 915 l 695 915 l 695 809 l 481 809 l 481 106 l 695 106 l 695 0 l 137 0 l 137 106 l 351 106 l 351 809 l 137 809 l 137 915 m 604 1019 l 230 1019 l 230 1105 l 604 1105 l 604 1019 z "},"ī":{"ha":833,"x_min":97,"x_max":763,"o":"m 505 96 l 763 96 l 763 0 l 97 0 l 97 96 l 383 96 l 383 637 l 167 637 l 167 734 l 505 734 l 505 96 m 608 838 l 234 838 l 234 924 l 608 924 l 608 838 z "},"Ĭ":{"ha":833,"x_min":137,"x_max":695,"o":"m 137 915 l 695 915 l 695 809 l 481 809 l 481 106 l 695 106 l 695 0 l 137 0 l 137 106 l 351 106 l 351 809 l 137 809 l 137 915 m 416 980 q 275 1028 332 980 q 204 1156 218 1076 l 290 1156 q 331 1089 302 1113 q 416 1065 360 1065 q 502 1089 473 1065 q 543 1156 531 1113 l 629 1156 q 556 1027 612 1075 q 416 980 500 980 z "},"ĭ":{"ha":833,"x_min":97,"x_max":763,"o":"m 505 96 l 763 96 l 763 0 l 97 0 l 97 96 l 383 96 l 383 637 l 167 637 l 167 734 l 505 734 l 505 96 m 429 814 q 289 863 345 814 q 218 990 232 911 l 304 990 q 345 924 315 947 q 429 900 374 900 q 516 924 487 900 q 556 990 545 947 l 642 990 q 570 862 626 909 q 429 814 514 814 z "},"Į":{"ha":833,"x_min":137,"x_max":695,"o":"m 137 915 l 695 915 l 695 809 l 481 809 l 481 106 l 695 106 l 695 0 l 137 0 l 137 106 l 351 106 l 351 809 l 137 809 l 137 915 m 545 -271 q 451 -290 503 -290 q 344 -255 380 -290 q 308 -163 308 -220 q 336 -72 308 -117 q 413 0 364 -28 l 503 0 q 432 -67 460 -24 q 404 -154 404 -109 q 420 -199 404 -182 q 467 -215 437 -215 q 545 -199 504 -215 l 545 -271 z "},"į":{"ha":833,"x_min":97,"x_max":763,"o":"m 505 96 l 763 96 l 763 0 l 97 0 l 97 96 l 383 96 l 383 637 l 167 637 l 167 734 l 505 734 l 505 96 m 370 876 l 370 1006 l 505 1006 l 505 876 l 370 876 m 574 -271 q 480 -290 532 -290 q 373 -255 409 -290 q 337 -163 337 -220 q 365 -72 337 -117 q 442 0 393 -28 l 532 0 q 461 -67 489 -24 q 433 -154 433 -109 q 449 -199 433 -182 q 496 -215 466 -215 q 574 -199 533 -215 l 574 -271 z "},"Ĵ":{"ha":833,"x_min":119,"x_max":722,"o":"m 669 285 q 597 65 669 143 q 397 -14 526 -14 q 212 47 281 -14 q 119 237 143 107 l 246 258 q 298 135 258 178 q 398 92 338 92 q 540 282 540 92 l 540 809 l 329 809 l 329 915 l 669 915 l 669 285 m 722 994 l 722 981 l 651 981 l 503 1074 l 501 1074 l 344 981 l 273 981 l 273 994 l 446 1156 l 557 1156 l 722 994 z "},"ĵ":{"ha":833,"x_min":79,"x_max":711,"o":"m 567 -19 q 491 -217 567 -146 q 275 -288 415 -288 q 165 -279 221 -288 q 79 -259 110 -271 l 79 -164 q 264 -187 181 -187 q 398 -142 351 -187 q 445 -17 445 -98 l 445 637 l 169 637 l 169 734 l 567 734 l 567 -19 m 711 828 l 711 814 l 640 814 l 491 908 l 490 908 l 332 814 l 262 814 l 262 828 l 434 990 l 545 990 l 711 828 z "},"Ķ":{"ha":833,"x_min":110,"x_max":832,"o":"m 680 0 l 350 433 l 239 318 l 239 0 l 110 0 l 110 915 l 239 915 l 239 458 l 627 915 l 780 915 l 438 527 l 832 0 l 680 0 m 322 -287 l 322 -264 l 376 -66 l 509 -66 l 509 -92 l 393 -287 l 322 -287 z "},"ķ":{"ha":833,"x_min":160,"x_max":763,"o":"m 620 0 l 372 338 l 282 272 l 282 0 l 160 0 l 160 1006 l 282 1006 l 282 378 l 604 734 l 747 734 l 450 418 l 763 0 l 620 0 m 322 -287 l 322 -264 l 376 -66 l 509 -66 l 509 -92 l 393 -287 l 322 -287 z "},"ĸ":{"ha":833,"x_min":160,"x_max":763,"o":"m 620 0 l 372 335 l 282 269 l 282 0 l 160 0 l 160 734 l 282 734 l 282 369 l 604 734 l 747 734 l 450 418 l 763 0 l 620 0 z "},"Ļ":{"ha":833,"x_min":161,"x_max":746,"o":"m 161 0 l 161 915 l 290 915 l 290 106 l 746 106 l 746 0 l 161 0 m 329 -287 l 329 -264 l 382 -66 l 516 -66 l 516 -92 l 400 -287 l 329 -287 z "},"ļ":{"ha":833,"x_min":91,"x_max":757,"o":"m 499 96 l 757 96 l 757 0 l 91 0 l 91 96 l 377 96 l 377 910 l 181 910 l 181 1006 l 499 1006 l 499 96 m 322 -287 l 322 -264 l 376 -66 l 509 -66 l 509 -92 l 393 -287 l 322 -287 z "},"Ņ":{"ha":833,"x_min":110,"x_max":723,"o":"m 567 0 l 214 766 q 225 594 225 650 l 225 0 l 110 0 l 110 915 l 260 915 l 618 143 q 606 329 606 241 l 606 915 l 723 915 l 723 0 l 567 0 m 301 -287 l 301 -264 l 355 -66 l 488 -66 l 488 -92 l 372 -287 l 301 -287 z "},"ņ":{"ha":833,"x_min":121,"x_max":711,"o":"m 589 0 l 589 471 q 553 608 589 564 q 439 653 517 653 q 301 592 355 653 q 248 425 248 530 l 248 0 l 125 0 l 125 577 q 121 734 125 705 l 237 734 q 238 715 237 730 q 240 681 239 701 q 242 608 241 662 l 244 608 q 479 747 315 747 q 654 684 596 747 q 711 489 711 621 l 711 0 l 589 0 m 304 -287 l 304 -264 l 357 -66 l 491 -66 l 491 -92 l 375 -287 l 304 -287 z "},"Ŋ":{"ha":833,"x_min":121,"x_max":752,"o":"m 752 368 q 697 75 752 163 q 522 -14 642 -14 q 415 8 460 -14 q 329 90 371 29 l 418 157 q 471 103 447 117 q 526 90 494 90 q 604 154 579 90 q 629 370 629 218 l 629 653 q 590 790 629 746 q 467 835 551 835 q 309 773 371 835 q 248 607 248 711 l 248 0 l 125 0 l 125 759 q 121 916 125 887 l 237 916 q 238 897 237 912 q 240 863 239 882 q 242 790 241 844 l 244 790 q 506 929 316 929 q 752 671 752 929 l 752 368 z "},"ŋ":{"ha":833,"x_min":121,"x_max":711,"o":"m 439 653 q 301 592 355 653 q 248 425 248 530 l 248 0 l 125 0 l 125 577 q 121 734 125 705 l 237 734 q 238 715 237 730 q 240 681 239 701 q 242 608 241 662 l 244 608 q 479 747 315 747 q 654 684 596 747 q 711 489 711 621 l 711 -91 q 671 -241 711 -193 q 548 -288 630 -288 q 462 -282 496 -288 l 462 -188 l 504 -192 q 570 -168 551 -192 q 589 -73 589 -143 l 589 471 q 553 608 589 564 q 439 653 517 653 z "},"Ō":{"ha":833,"x_min":69,"x_max":764,"o":"m 764 462 q 674 110 764 233 q 416 -14 584 -14 q 158 108 247 -14 q 69 462 69 229 q 157 810 69 690 q 417 929 245 929 q 674 811 585 929 q 764 462 764 694 m 627 462 q 417 823 627 823 q 205 462 205 823 q 259 185 205 279 q 416 92 313 92 q 577 186 527 92 q 627 462 627 281 m 604 1019 l 230 1019 l 230 1105 l 604 1105 l 604 1019 z "},"ō":{"ha":833,"x_min":88,"x_max":744,"o":"m 744 368 q 659 84 744 182 q 413 -14 574 -14 q 172 85 256 -14 q 88 368 88 184 q 174 652 88 557 q 417 747 260 747 q 663 653 583 747 q 744 368 744 559 m 616 368 q 569 585 616 513 q 419 657 523 657 q 265 584 314 657 q 216 368 216 511 q 265 151 216 225 q 412 77 314 77 q 568 149 519 77 q 616 368 616 222 m 604 838 l 230 838 l 230 924 l 604 924 l 604 838 z "},"Ŏ":{"ha":833,"x_min":69,"x_max":764,"o":"m 764 462 q 674 110 764 233 q 416 -14 584 -14 q 158 108 247 -14 q 69 462 69 229 q 157 810 69 690 q 417 929 245 929 q 674 811 585 929 q 764 462 764 694 m 627 462 q 417 823 627 823 q 205 462 205 823 q 259 185 205 279 q 416 92 313 92 q 577 186 527 92 q 627 462 627 281 m 416 981 q 275 1029 332 981 q 204 1156 218 1077 l 290 1156 q 331 1090 302 1114 q 416 1066 360 1066 q 502 1090 473 1066 q 543 1156 531 1114 l 629 1156 q 556 1028 612 1076 q 416 981 500 981 z "},"ŏ":{"ha":833,"x_min":88,"x_max":744,"o":"m 744 368 q 659 84 744 182 q 413 -14 574 -14 q 172 85 256 -14 q 88 368 88 184 q 174 652 88 557 q 417 747 260 747 q 663 653 583 747 q 744 368 744 559 m 616 368 q 569 585 616 513 q 419 657 523 657 q 265 584 314 657 q 216 368 216 511 q 265 151 216 225 q 412 77 314 77 q 568 149 519 77 q 616 368 616 222 m 416 814 q 275 863 332 814 q 204 990 218 911 l 290 990 q 331 924 302 947 q 416 900 360 900 q 502 924 473 900 q 543 990 531 947 l 629 990 q 556 862 612 909 q 416 814 500 814 z "},"Ŗ":{"ha":833,"x_min":110,"x_max":798,"o":"m 649 0 l 401 390 l 239 390 l 239 0 l 110 0 l 110 915 l 437 915 q 677 849 595 915 q 760 662 760 784 q 697 492 760 561 q 527 405 633 422 l 798 0 l 649 0 m 630 660 q 424 811 630 811 l 239 811 l 239 492 l 429 492 q 578 536 526 492 q 630 660 630 579 m 320 -287 l 320 -264 l 374 -66 l 507 -66 l 507 -92 l 391 -287 l 320 -287 z "},"ŗ":{"ha":833,"x_min":138,"x_max":709,"o":"m 709 623 q 565 635 633 635 q 389 553 456 635 q 321 345 321 471 l 321 0 l 199 0 l 199 475 q 190 597 199 527 q 164 734 181 667 l 280 734 q 313 564 307 640 l 316 564 q 382 676 350 640 q 460 729 415 711 q 569 747 505 747 q 709 736 640 747 l 709 623 m 138 -287 l 138 -264 l 191 -66 l 325 -66 l 325 -92 l 209 -287 l 138 -287 z "},"Ŝ":{"ha":833,"x_min":54,"x_max":765,"o":"m 765 251 q 674 56 765 126 q 414 -14 583 -14 q 54 229 104 -14 l 179 254 q 258 127 198 167 q 417 87 317 87 q 581 130 525 87 q 637 249 637 172 q 615 326 637 296 q 557 375 593 356 q 476 406 521 394 q 385 429 431 418 q 229 480 275 458 q 155 531 182 503 q 113 597 127 560 q 98 685 98 635 q 181 866 98 802 q 417 929 263 929 q 637 879 561 929 q 743 709 713 829 l 615 687 q 550 797 599 763 q 416 831 501 831 q 224 687 224 831 q 242 621 224 646 q 291 579 260 595 q 363 551 322 562 q 451 528 404 541 q 587 489 545 505 q 660 452 628 473 q 715 404 692 432 q 752 339 739 376 q 765 251 765 302 m 644 994 l 644 981 l 572 981 l 424 1074 l 422 1074 l 265 981 l 195 981 l 195 994 l 367 1156 l 478 1156 l 644 994 z "},"ŝ":{"ha":833,"x_min":113,"x_max":719,"o":"m 719 210 q 640 46 719 105 q 421 -14 561 -14 q 209 30 281 -14 q 113 168 136 74 l 221 189 q 276 104 234 131 q 421 77 319 77 q 604 193 604 77 q 571 263 604 237 q 469 307 538 290 q 242 376 290 351 q 168 439 194 401 q 142 533 142 477 q 214 689 142 633 q 422 745 286 745 q 613 700 542 745 q 702 569 684 655 l 592 555 q 544 629 585 604 q 422 654 503 654 q 256 552 256 654 q 284 487 256 511 q 375 448 313 463 l 456 427 q 615 373 566 399 q 691 307 663 347 q 719 210 719 267 m 651 828 l 651 814 l 580 814 l 431 908 l 430 908 l 273 814 l 202 814 l 202 828 l 374 990 l 486 990 l 651 828 z "},"Ŧ":{"ha":833,"x_min":52,"x_max":781,"o":"m 481 809 l 481 522 l 644 522 l 644 420 l 481 420 l 481 0 l 352 0 l 352 420 l 189 420 l 189 522 l 352 522 l 352 809 l 52 809 l 52 915 l 781 915 l 781 809 l 481 809 z "},"ŧ":{"ha":833,"x_min":136,"x_max":696,"o":"m 665 439 l 665 349 l 372 349 l 372 195 q 400 116 372 142 q 495 90 429 90 q 696 113 586 90 l 696 20 q 469 -11 582 -11 q 304 36 359 -11 q 250 182 250 82 l 250 349 l 136 349 l 136 439 l 250 439 l 250 637 l 136 637 l 136 734 l 251 734 l 290 925 l 372 925 l 372 734 l 665 734 l 665 637 l 372 637 l 372 439 l 665 439 z "},"Ũ":{"ha":833,"x_min":96,"x_max":736,"o":"m 736 332 q 659 69 736 151 q 410 -14 581 -14 q 171 66 245 -14 q 96 320 96 146 l 96 915 l 226 915 l 226 338 q 266 145 226 199 q 410 92 305 92 q 563 147 519 92 q 607 347 607 203 l 607 915 l 736 915 l 736 332 m 523 981 q 466 993 494 981 q 410 1021 437 1006 q 357 1049 383 1036 q 307 1061 331 1061 q 280 1055 290 1061 q 263 1036 270 1048 q 249 981 256 1024 l 174 981 q 197 1079 181 1046 q 241 1131 213 1112 q 311 1149 269 1149 q 370 1136 341 1149 q 425 1108 398 1124 q 477 1081 452 1093 q 525 1068 503 1068 q 564 1084 550 1068 q 584 1149 577 1100 l 660 1149 q 615 1018 649 1055 q 523 981 582 981 z "},"ũ":{"ha":833,"x_min":125,"x_max":715,"o":"m 248 734 l 248 269 q 281 122 248 163 q 399 81 314 81 q 538 140 487 81 q 589 309 589 200 l 589 734 l 711 734 l 711 157 q 715 0 711 28 l 600 0 q 599 18 600 3 q 597 53 598 33 q 595 125 596 72 l 593 125 q 495 18 551 50 q 358 -14 440 -14 q 181 46 237 -14 q 125 245 125 106 l 125 734 l 248 734 m 523 814 q 466 827 494 814 q 410 855 437 840 q 357 883 383 870 q 307 895 331 895 q 280 889 290 895 q 263 870 270 882 q 249 814 256 858 l 174 814 q 197 913 181 880 q 241 964 213 946 q 311 983 269 983 q 370 970 341 983 q 425 942 398 958 q 477 915 452 927 q 525 902 503 902 q 564 918 550 902 q 584 983 577 934 l 660 983 q 615 852 649 889 q 523 814 582 814 z "},"Ū":{"ha":833,"x_min":96,"x_max":736,"o":"m 736 332 q 659 69 736 151 q 410 -14 581 -14 q 171 66 245 -14 q 96 320 96 146 l 96 915 l 226 915 l 226 338 q 266 145 226 199 q 410 92 305 92 q 563 147 519 92 q 607 347 607 203 l 607 915 l 736 915 l 736 332 m 604 1019 l 230 1019 l 230 1105 l 604 1105 l 604 1019 z "},"ū":{"ha":833,"x_min":125,"x_max":715,"o":"m 248 734 l 248 269 q 281 122 248 163 q 399 81 314 81 q 538 140 487 81 q 589 309 589 200 l 589 734 l 711 734 l 711 157 q 715 0 711 28 l 600 0 q 599 18 600 3 q 597 53 598 33 q 595 125 596 72 l 593 125 q 495 18 551 50 q 358 -14 440 -14 q 181 46 237 -14 q 125 245 125 106 l 125 734 l 248 734 m 604 838 l 230 838 l 230 924 l 604 924 l 604 838 z "},"Ŭ":{"ha":833,"x_min":96,"x_max":736,"o":"m 736 332 q 659 69 736 151 q 410 -14 581 -14 q 171 66 245 -14 q 96 320 96 146 l 96 915 l 226 915 l 226 338 q 266 145 226 199 q 410 92 305 92 q 563 147 519 92 q 607 347 607 203 l 607 915 l 736 915 l 736 332 m 416 981 q 275 1029 332 981 q 204 1156 218 1077 l 290 1156 q 331 1090 302 1114 q 416 1066 360 1066 q 502 1090 473 1066 q 543 1156 531 1114 l 629 1156 q 556 1028 612 1076 q 416 981 500 981 z "},"ŭ":{"ha":833,"x_min":125,"x_max":715,"o":"m 248 734 l 248 269 q 281 122 248 163 q 399 81 314 81 q 538 140 487 81 q 589 309 589 200 l 589 734 l 711 734 l 711 157 q 715 0 711 28 l 600 0 q 599 18 600 3 q 597 53 598 33 q 595 125 596 72 l 593 125 q 495 18 551 50 q 358 -14 440 -14 q 181 46 237 -14 q 125 245 125 106 l 125 734 l 248 734 m 416 814 q 275 863 332 814 q 204 990 218 911 l 290 990 q 331 924 302 947 q 416 900 360 900 q 502 924 473 900 q 543 990 531 947 l 629 990 q 556 862 612 909 q 416 814 500 814 z "},"Ų":{"ha":833,"x_min":96,"x_max":736,"o":"m 736 332 q 659 69 736 151 q 410 -14 581 -14 q 171 66 245 -14 q 96 320 96 146 l 96 915 l 226 915 l 226 338 q 266 145 226 199 q 410 92 305 92 q 563 147 519 92 q 607 347 607 203 l 607 915 l 736 915 l 736 332 m 576 -271 q 482 -290 534 -290 q 375 -255 411 -290 q 339 -163 339 -220 q 367 -72 339 -117 q 444 0 395 -28 l 534 0 q 463 -67 491 -24 q 435 -154 435 -109 q 451 -199 435 -182 q 498 -215 468 -215 q 576 -199 535 -215 l 576 -271 z "},"ų":{"ha":833,"x_min":125,"x_max":732,"o":"m 248 734 l 248 269 q 281 122 248 163 q 399 81 314 81 q 538 140 487 81 q 589 309 589 200 l 589 734 l 711 734 l 711 157 q 715 0 711 28 l 600 0 q 599 18 600 3 q 597 53 598 33 q 595 125 596 72 l 593 125 q 495 18 551 50 q 358 -14 440 -14 q 181 46 237 -14 q 125 245 125 106 l 125 734 l 248 734 m 732 -271 q 638 -290 690 -290 q 531 -255 567 -290 q 495 -163 495 -220 q 523 -72 495 -117 q 600 0 551 -28 l 690 0 q 619 -67 647 -24 q 591 -154 591 -109 q 607 -199 591 -182 q 654 -215 624 -215 q 732 -199 691 -215 l 732 -271 z "},"Ŵ":{"ha":833,"x_min":0,"x_max":833,"o":"m 690 0 l 549 0 q 473 285 499 187 q 418 513 447 382 q 381 359 398 428 q 284 0 365 291 l 143 0 l 0 915 l 128 915 l 202 349 q 224 114 213 260 q 261 269 246 208 q 358 631 275 330 l 477 631 q 550 361 524 460 q 610 114 577 263 l 634 349 l 705 915 l 833 915 l 690 0 m 638 994 l 638 981 l 567 981 l 418 1074 l 417 1074 l 260 981 l 189 981 l 189 994 l 361 1156 l 473 1156 l 638 994 z "},"ŵ":{"ha":833,"x_min":14,"x_max":819,"o":"m 690 0 l 552 0 l 455 319 l 416 456 l 390 362 l 276 0 l 138 0 l 14 734 l 135 734 l 198 322 q 220 101 220 143 q 260 246 247 210 l 351 534 l 482 534 l 570 245 q 608 101 592 174 q 610 152 608 121 q 617 215 613 182 q 625 276 621 247 q 631 322 629 305 l 700 734 l 819 734 l 690 0 m 638 828 l 638 814 l 567 814 l 418 908 l 417 908 l 260 814 l 189 814 l 189 828 l 361 990 l 473 990 l 638 828 z "},"Ŷ":{"ha":833,"x_min":24,"x_max":808,"o":"m 480 396 l 480 0 l 353 0 l 353 396 l 24 915 l 163 915 l 417 500 l 669 915 l 808 915 l 480 396 m 638 994 l 638 981 l 567 981 l 418 1074 l 417 1074 l 260 981 l 189 981 l 189 994 l 361 1156 l 473 1156 l 638 994 z "},"ŷ":{"ha":833,"x_min":45,"x_max":787,"o":"m 198 -288 q 114 -281 148 -288 l 114 -189 q 171 -193 140 -193 q 272 -153 224 -193 q 351 -26 319 -113 l 363 7 l 45 734 l 175 734 l 354 298 q 420 126 416 146 l 448 201 l 659 734 l 787 734 l 478 0 q 353 -224 418 -159 q 198 -288 288 -288 m 638 828 l 638 814 l 567 814 l 418 908 l 417 908 l 260 814 l 189 814 l 189 828 l 361 990 l 473 990 l 638 828 z "},"ſ":{"ha":833,"x_min":271,"x_max":745,"o":"m 393 0 l 271 0 l 271 751 q 337 948 271 890 q 555 1006 402 1006 q 660 1002 604 1006 q 745 992 717 998 l 745 894 q 663 901 725 897 q 569 905 601 905 q 463 890 498 905 q 410 839 427 874 q 393 741 393 804 l 393 0 z "},"Ǻ":{"ha":833,"x_min":0,"x_max":833,"o":"m 581 821 q 522 713 581 751 l 833 0 l 701 0 l 608 219 l 226 219 l 133 0 l 0 0 l 315 710 q 252 821 252 749 q 297 919 252 882 q 416 956 342 956 q 536 919 492 956 q 581 821 581 881 m 424 686 l 412 686 l 402 658 q 363 550 377 582 l 268 323 l 567 323 l 475 550 q 424 686 431 666 m 356 980 l 356 994 l 510 1156 l 644 1156 l 644 1137 l 440 980 l 356 980 m 498 821 q 476 862 498 846 q 416 878 454 878 q 356 862 379 878 q 334 821 334 846 q 356 780 334 795 q 416 764 379 764 q 476 780 454 764 q 498 821 498 795 z "},"ǻ":{"ha":833,"x_min":87,"x_max":787,"o":"m 574 852 q 556 786 574 817 q 503 736 539 755 q 678 500 678 696 l 678 184 q 692 103 678 130 q 747 75 707 75 q 787 80 764 75 l 787 4 q 692 -7 741 -7 q 594 29 625 -7 q 559 140 563 64 l 555 140 q 451 22 511 58 q 302 -14 391 -14 q 141 45 195 -14 q 87 205 87 103 q 395 445 87 441 l 555 448 l 555 488 q 519 615 555 576 q 404 654 483 654 q 289 626 324 654 q 247 538 254 597 l 119 549 q 311 739 144 707 q 262 788 278 758 q 245 852 245 818 q 291 949 245 912 q 410 987 336 987 q 529 949 485 987 q 574 852 574 911 m 334 79 q 449 111 399 79 q 527 194 499 142 q 555 302 555 246 l 555 362 l 426 359 q 304 342 346 358 q 238 292 262 326 q 215 203 215 258 q 245 113 215 147 q 334 79 275 79 m 345 1015 l 345 1028 l 498 1156 l 632 1156 l 632 1137 l 429 1015 l 345 1015 m 492 852 q 470 892 492 877 q 410 908 448 908 q 350 892 372 908 q 327 852 327 877 q 350 810 327 826 q 410 795 372 795 q 470 810 448 795 q 492 852 492 826 z "},"Ǽ":{"ha":833,"x_min":1,"x_max":810,"o":"m 438 279 l 211 279 l 115 0 l 1 0 l 330 915 l 783 915 l 783 812 l 554 812 l 554 520 l 776 520 l 776 418 l 554 418 l 554 103 l 810 103 l 810 0 l 438 0 l 438 279 m 438 815 l 389 815 q 360 716 386 804 q 245 380 334 628 l 438 380 l 438 815 m 439 981 l 439 994 l 593 1156 l 726 1156 l 726 1137 l 523 981 l 439 981 z "},"ǽ":{"ha":833,"x_min":14,"x_max":819,"o":"m 460 341 l 460 330 q 586 78 464 78 q 667 110 637 78 q 708 191 697 142 l 802 160 q 589 -14 755 -14 q 460 24 507 -14 q 391 144 414 61 q 305 24 355 61 q 189 -14 254 -14 q 57 42 101 -14 q 14 205 14 98 q 237 445 14 441 l 351 448 l 351 488 q 329 617 351 579 q 258 654 307 654 q 185 627 208 654 q 158 538 163 600 l 44 549 q 110 700 57 652 q 258 747 162 747 q 425 653 377 747 q 592 747 483 747 q 762 651 705 747 q 819 357 819 555 l 819 341 l 460 341 m 128 203 q 148 113 128 147 q 205 79 167 79 q 281 110 249 79 q 332 191 314 140 q 351 302 351 242 l 351 362 l 268 359 q 187 342 214 358 q 144 292 159 326 q 128 203 128 258 m 583 657 q 495 598 527 657 q 462 435 464 539 l 707 435 q 671 604 701 551 q 583 657 641 657 m 334 814 l 334 828 l 488 990 l 621 990 l 621 970 l 418 814 l 334 814 z "},"Ǿ":{"ha":833,"x_min":38,"x_max":793,"o":"m 764 462 q 674 110 764 233 q 416 -14 584 -14 q 181 80 268 -14 l 102 -26 l 38 18 l 134 146 q 69 462 69 264 q 157 810 69 690 q 417 929 245 929 q 651 838 564 929 l 730 944 l 793 900 l 699 773 q 764 462 764 658 m 627 462 q 607 650 627 573 l 260 185 q 416 92 313 92 q 577 186 527 92 q 627 462 627 281 m 205 462 q 226 271 205 349 l 573 734 q 417 823 521 823 q 205 462 205 823 m 340 981 l 340 994 l 494 1156 l 628 1156 l 628 1137 l 425 981 l 340 981 z "},"ǿ":{"ha":833,"x_min":75,"x_max":758,"o":"m 758 368 q 669 85 758 183 q 413 -14 581 -14 q 189 59 275 -14 l 136 0 l 85 46 l 142 111 q 75 368 75 207 q 162 650 75 552 q 417 747 249 747 q 644 680 562 747 l 693 735 l 746 689 l 692 628 q 758 368 758 535 m 629 368 q 607 532 629 467 l 262 141 q 412 77 314 77 q 577 149 526 77 q 629 368 629 221 m 203 368 q 226 206 203 269 l 571 597 q 419 657 520 657 q 255 584 308 657 q 203 368 203 511 m 340 814 l 340 828 l 494 990 l 628 990 l 628 970 l 425 814 l 340 814 z "},"·":{"ha":833,"x_min":336,"x_max":496,"o":"m 336 285 l 336 488 l 496 488 l 496 285 l 336 285 z "},"Ẁ":{"ha":833,"x_min":0,"x_max":833,"o":"m 690 0 l 549 0 q 473 285 499 187 q 418 513 447 382 q 381 359 398 428 q 284 0 365 291 l 143 0 l 0 915 l 128 915 l 202 349 q 224 114 213 260 q 261 269 246 208 q 358 631 275 330 l 477 631 q 550 361 524 460 q 610 114 577 263 l 634 349 l 705 915 l 833 915 l 690 0 m 436 981 l 233 1137 l 233 1156 l 366 1156 l 520 994 l 520 981 l 436 981 z "},"ẁ":{"ha":833,"x_min":14,"x_max":819,"o":"m 690 0 l 552 0 l 455 319 l 416 456 l 390 362 l 276 0 l 138 0 l 14 734 l 135 734 l 198 322 q 220 101 220 143 q 260 246 247 210 l 351 534 l 482 534 l 570 245 q 608 101 592 174 q 610 152 608 121 q 617 215 613 182 q 625 276 621 247 q 631 322 629 305 l 700 734 l 819 734 l 690 0 m 395 814 l 191 970 l 191 990 l 325 990 l 479 828 l 479 814 l 395 814 z "},"Ẃ":{"ha":833,"x_min":0,"x_max":833,"o":"m 690 0 l 549 0 q 473 285 499 187 q 418 513 447 382 q 381 359 398 428 q 284 0 365 291 l 143 0 l 0 915 l 128 915 l 202 349 q 224 114 213 260 q 261 269 246 208 q 358 631 275 330 l 477 631 q 550 361 524 460 q 610 114 577 263 l 634 349 l 705 915 l 833 915 l 690 0 m 342 981 l 342 994 l 496 1156 l 630 1156 l 630 1137 l 427 981 l 342 981 z "},"ẃ":{"ha":833,"x_min":14,"x_max":819,"o":"m 690 0 l 552 0 l 455 319 l 416 456 l 390 362 l 276 0 l 138 0 l 14 734 l 135 734 l 198 322 q 220 101 220 143 q 260 246 247 210 l 351 534 l 482 534 l 570 245 q 608 101 592 174 q 610 152 608 121 q 617 215 613 182 q 625 276 621 247 q 631 322 629 305 l 700 734 l 819 734 l 690 0 m 336 814 l 336 828 l 490 990 l 624 990 l 624 970 l 420 814 l 336 814 z "},"Ẅ":{"ha":833,"x_min":0,"x_max":833,"o":"m 690 0 l 549 0 q 473 285 499 187 q 418 513 447 382 q 381 359 398 428 q 284 0 365 291 l 143 0 l 0 915 l 128 915 l 202 349 q 224 114 213 260 q 261 269 246 208 q 358 631 275 330 l 477 631 q 550 361 524 460 q 610 114 577 263 l 634 349 l 705 915 l 833 915 l 690 0 m 495 981 l 495 1105 l 606 1105 l 606 981 l 495 981 m 228 981 l 228 1105 l 340 1105 l 340 981 l 228 981 z "},"ẅ":{"ha":833,"x_min":14,"x_max":819,"o":"m 690 0 l 552 0 l 455 319 l 416 456 l 390 362 l 276 0 l 138 0 l 14 734 l 135 734 l 198 322 q 220 101 220 143 q 260 246 247 210 l 351 534 l 482 534 l 570 245 q 608 101 592 174 q 610 152 608 121 q 617 215 613 182 q 625 276 621 247 q 631 322 629 305 l 700 734 l 819 734 l 690 0 m 495 827 l 495 951 l 606 951 l 606 827 l 495 827 m 228 827 l 228 951 l 340 951 l 340 827 l 228 827 z "},"Ỳ":{"ha":833,"x_min":24,"x_max":808,"o":"m 480 396 l 480 0 l 353 0 l 353 396 l 24 915 l 163 915 l 417 500 l 669 915 l 808 915 l 480 396 m 429 981 l 225 1137 l 225 1156 l 359 1156 l 513 994 l 513 981 l 429 981 z "},"ỳ":{"ha":833,"x_min":45,"x_max":787,"o":"m 198 -288 q 114 -281 148 -288 l 114 -189 q 171 -193 140 -193 q 272 -153 224 -193 q 351 -26 319 -113 l 363 7 l 45 734 l 175 734 l 354 298 q 420 126 416 146 l 448 201 l 659 734 l 787 734 l 478 0 q 353 -224 418 -159 q 198 -288 288 -288 m 436 814 l 233 970 l 233 990 l 366 990 l 520 828 l 520 814 l 436 814 z "},"‛":{"ha":833,"x_min":270,"x_max":564,"o":"m 481 585 l 270 1006 l 450 1006 l 564 585 l 481 585 z "},"‾":{"ha":833,"x_min":-3,"x_max":836,"o":"m -3 985 l -3 1050 l 836 1050 l 836 985 l -3 985 z "},"₤":{"ha":833,"x_min":54,"x_max":764,"o":"m 764 211 q 692 55 752 109 q 535 0 633 0 l 62 0 l 62 104 q 156 183 132 141 q 180 297 180 224 l 180 314 l 54 314 l 54 410 l 180 410 l 180 513 l 54 513 l 54 609 l 180 609 l 180 661 q 250 861 180 793 q 453 929 320 929 q 621 888 553 929 q 711 773 688 847 l 593 734 q 542 803 580 777 q 456 829 505 829 q 340 790 378 829 q 302 666 302 751 l 302 609 l 579 609 l 579 513 l 302 513 l 302 410 l 579 410 l 579 314 l 302 314 l 302 309 q 188 104 302 163 l 515 104 q 653 223 633 104 l 764 211 z "},"℮":{"ha":833,"x_min":64,"x_max":783,"o":"m 425 -23 q 236 26 317 -23 q 110 164 155 75 q 64 360 64 254 q 110 559 64 473 q 239 694 155 646 q 425 743 323 743 q 610 695 528 743 q 738 559 692 647 q 783 360 783 472 l 222 360 l 222 119 q 312 58 256 82 q 425 35 367 35 q 577 71 514 35 q 692 193 640 108 l 741 165 q 600 18 675 60 q 425 -23 526 -23 m 627 418 l 627 606 q 537 664 592 642 q 423 686 482 686 q 222 606 302 686 l 222 418 l 627 418 z "},"⅛":{"ha":833,"x_min":1,"x_max":827,"o":"m 25 399 l 25 472 l 117 472 l 117 820 q 67 774 103 793 q 1 755 31 755 l 1 836 q 70 858 35 836 q 123 915 105 879 l 205 915 l 205 472 l 284 472 l 284 399 l 25 399 m 204 0 l 124 0 l 601 915 l 679 915 l 204 0 m 722 382 q 706 440 722 423 q 656 456 690 456 q 604 436 618 456 q 591 382 591 416 q 608 325 591 345 q 656 305 625 305 q 705 323 688 305 q 722 382 722 340 m 736 150 q 656 237 736 237 q 597 216 616 237 q 578 150 578 195 q 658 60 578 60 q 716 80 697 60 q 736 150 736 100 m 827 144 q 784 31 827 71 q 657 -8 741 -8 q 531 31 574 -8 q 487 144 487 70 q 569 269 487 243 l 569 271 q 500 391 500 304 q 542 488 500 451 q 656 524 584 524 q 771 488 730 524 q 812 390 812 452 q 743 272 812 303 l 743 270 q 807 227 788 257 q 827 144 827 196 z "},"⅜":{"ha":833,"x_min":6,"x_max":827,"o":"m 355 538 q 309 429 355 470 q 181 387 262 387 q 62 425 109 387 q 6 531 16 463 l 98 540 q 126 478 104 499 q 181 458 149 458 q 240 478 218 458 q 262 543 262 498 q 161 624 262 624 l 134 624 l 134 698 l 159 698 q 227 717 205 698 q 248 781 248 736 q 230 834 248 817 q 184 851 212 851 q 131 830 153 851 q 104 770 109 808 l 13 778 q 67 884 22 846 q 184 923 113 923 q 299 886 258 923 q 341 786 341 848 q 318 712 341 741 q 249 666 296 684 l 249 665 q 330 618 304 652 q 355 538 355 585 m 216 0 l 136 0 l 612 915 l 690 915 l 216 0 m 722 382 q 706 440 722 423 q 656 456 690 456 q 604 436 618 456 q 591 382 591 416 q 608 325 591 345 q 656 305 625 305 q 705 323 688 305 q 722 382 722 340 m 736 150 q 656 237 736 237 q 597 216 616 237 q 578 150 578 195 q 658 60 578 60 q 716 80 697 60 q 736 150 736 100 m 827 144 q 784 31 827 71 q 657 -8 741 -8 q 531 31 574 -8 q 487 144 487 70 q 569 269 487 243 l 569 271 q 500 391 500 304 q 542 488 500 451 q 656 524 584 524 q 771 488 730 524 q 812 390 812 452 q 743 272 812 303 l 743 270 q 807 227 788 257 q 827 144 827 196 z "},"⅝":{"ha":833,"x_min":25,"x_max":827,"o":"m 366 566 q 322 439 366 484 q 197 395 277 395 q 25 524 49 395 l 115 534 q 142 482 123 498 q 195 466 161 466 q 275 566 275 466 q 196 659 275 659 q 152 648 169 659 q 121 618 135 638 l 33 618 l 56 915 l 345 915 l 345 838 l 129 838 l 116 692 q 207 732 151 732 q 325 690 283 732 q 366 566 366 647 m 224 0 l 144 0 l 621 915 l 699 915 l 224 0 m 722 382 q 706 440 722 423 q 656 456 690 456 q 604 436 618 456 q 591 382 591 416 q 608 325 591 345 q 656 305 625 305 q 705 323 688 305 q 722 382 722 340 m 736 150 q 656 237 736 237 q 597 216 616 237 q 578 150 578 195 q 658 60 578 60 q 716 80 697 60 q 736 150 736 100 m 827 144 q 784 31 827 71 q 657 -8 741 -8 q 531 31 574 -8 q 487 144 487 70 q 569 269 487 243 l 569 271 q 500 391 500 304 q 542 488 500 451 q 656 524 584 524 q 771 488 730 524 q 812 390 812 452 q 743 272 812 303 l 743 270 q 807 227 788 257 q 827 144 827 196 z "},"⅞":{"ha":833,"x_min":39,"x_max":805,"o":"m 391 846 q 275 667 307 730 q 229 541 243 605 q 214 399 214 477 l 124 399 q 162 607 124 511 q 303 838 201 704 l 39 838 l 39 915 l 391 915 l 391 846 m 168 0 l 87 0 l 564 915 l 642 915 l 168 0 m 700 382 q 684 440 700 423 q 634 456 669 456 q 583 436 596 456 q 569 382 569 416 q 586 325 569 345 q 635 305 604 305 q 683 323 667 305 q 700 382 700 340 m 714 150 q 634 237 714 237 q 575 216 595 237 q 556 150 556 195 q 636 60 556 60 q 695 80 675 60 q 714 150 714 100 m 805 144 q 762 31 805 71 q 635 -8 720 -8 q 509 31 553 -8 q 465 144 465 70 q 547 269 465 243 l 547 271 q 479 391 479 304 q 520 488 479 451 q 634 524 562 524 q 750 488 709 524 q 791 390 791 452 q 722 272 791 303 l 722 270 q 786 227 766 257 q 805 144 805 196 z "},"΄":{"ha":833,"x_min":322,"x_max":509,"o":"m 322 814 l 322 837 l 376 1035 l 509 1035 l 509 1010 l 393 814 l 322 814 z "},"΅":{"ha":833,"x_min":211,"x_max":623,"o":"m 353 814 l 353 837 l 390 1086 l 524 1086 l 524 1061 l 425 814 l 353 814 m 526 827 l 526 951 l 623 951 l 623 827 l 526 827 m 211 827 l 211 951 l 309 951 l 309 827 l 211 827 z "},"Ά":{"ha":833,"x_min":0,"x_max":833,"o":"m 701 0 l 608 259 l 226 259 l 133 0 l 0 0 l 346 915 l 493 915 l 833 0 l 701 0 m 418 817 l 410 791 l 363 647 l 260 360 l 574 360 l 457 699 l 418 817 m 1 695 l 1 718 l 54 916 l 188 916 l 188 890 l 72 695 l 1 695 z "},"Έ":{"ha":833,"x_min":-33,"x_max":827,"o":"m 176 0 l 176 915 l 799 915 l 799 809 l 305 809 l 305 523 l 758 523 l 758 418 l 305 418 l 305 106 l 827 106 l 827 0 l 176 0 m -33 695 l -33 718 l 20 916 l 154 916 l 154 890 l 38 695 l -33 695 z "},"Ή":{"ha":833,"x_min":0,"x_max":766,"o":"m 640 0 l 640 422 l 352 422 l 352 0 l 222 0 l 222 915 l 352 915 l 352 531 l 640 531 l 640 915 l 766 915 l 766 0 l 640 0 m 0 694 l 0 717 l 54 915 l 187 915 l 187 890 l 71 694 l 0 694 z "},"Ί":{"ha":833,"x_min":1,"x_max":781,"o":"m 223 915 l 781 915 l 781 809 l 567 809 l 567 106 l 781 106 l 781 0 l 223 0 l 223 106 l 437 106 l 437 809 l 223 809 l 223 915 m 1 695 l 1 718 l 54 916 l 188 916 l 188 890 l 72 695 l 1 695 z "},"Ό":{"ha":833,"x_min":-33,"x_max":811,"o":"m 811 462 q 721 110 811 233 q 463 -14 631 -14 q 205 108 294 -14 q 117 462 117 229 q 205 810 117 690 q 465 929 293 929 q 722 811 632 929 q 811 462 811 694 m 675 462 q 465 823 675 823 q 253 462 253 823 q 307 185 253 279 q 464 92 360 92 q 625 186 574 92 q 675 462 675 281 m -33 695 l -33 718 l 20 916 l 154 916 l 154 890 l 38 695 l -33 695 z "},"Ύ":{"ha":833,"x_min":0,"x_max":813,"o":"m 573 396 l 573 0 l 446 0 l 446 396 l 205 915 l 342 915 l 510 507 l 677 915 l 813 915 l 573 396 m 0 694 l 0 717 l 54 915 l 187 915 l 187 890 l 71 694 l 0 694 z "},"Ώ":{"ha":833,"x_min":-34,"x_max":800,"o":"m 443 929 q 690 818 597 929 q 783 523 783 707 q 727 276 783 385 q 568 98 671 168 q 664 106 633 106 l 800 106 l 800 0 l 486 0 l 486 152 q 610 300 570 214 q 651 514 651 386 q 597 742 651 660 q 444 823 544 823 q 289 742 343 823 q 235 514 235 661 q 275 300 235 386 q 400 152 316 214 l 400 0 l 86 0 l 86 106 l 222 106 q 317 98 253 106 q 158 276 214 167 q 102 523 102 385 q 145 736 102 643 q 265 879 188 829 q 443 929 342 929 m -34 694 l -34 717 l 20 915 l 153 915 l 153 890 l 37 694 l -34 694 z "},"ΐ":{"ha":833,"x_min":101,"x_max":758,"o":"m 439 235 q 467 125 439 159 q 551 91 494 91 q 694 163 625 91 l 758 81 q 550 -14 671 -14 q 374 46 430 -14 q 317 237 317 106 l 317 637 l 101 637 l 101 734 l 439 734 l 439 235 m 345 814 l 345 837 l 381 1086 l 515 1086 l 515 1061 l 416 814 l 345 814 m 517 827 l 517 951 l 614 951 l 614 827 l 517 827 m 202 827 l 202 951 l 300 951 l 300 827 l 202 827 z "},"Α":{"ha":833,"x_min":0,"x_max":833,"o":"m 701 0 l 608 259 l 226 259 l 133 0 l 0 0 l 346 915 l 493 915 l 833 0 l 701 0 m 418 817 l 410 791 l 363 647 l 260 360 l 574 360 l 457 699 l 418 817 z "},"Β":{"ha":833,"x_min":110,"x_max":781,"o":"m 781 258 q 688 68 781 136 q 430 0 595 0 l 110 0 l 110 915 l 389 915 q 726 693 726 915 q 677 555 726 610 q 544 482 628 499 q 719 410 657 470 q 781 258 781 349 m 595 677 q 544 780 595 749 q 391 811 493 811 l 239 811 l 239 529 l 392 529 q 595 677 595 529 m 650 269 q 590 387 650 347 q 410 428 530 428 l 239 428 l 239 104 l 420 104 q 594 145 538 104 q 650 269 650 186 z "},"Δ":{"ha":833,"x_min":8,"x_max":825,"o":"m 8 0 l 8 98 l 332 915 l 497 915 l 825 100 l 825 0 l 8 0 m 415 823 q 392 754 413 817 q 354 650 370 691 q 138 106 338 609 l 694 106 l 481 635 q 422 802 447 724 l 415 823 z "},"Ε":{"ha":833,"x_min":110,"x_max":761,"o":"m 110 0 l 110 915 l 733 915 l 733 809 l 239 809 l 239 523 l 692 523 l 692 418 l 239 418 l 239 106 l 761 106 l 761 0 l 110 0 z "},"Ζ":{"ha":833,"x_min":50,"x_max":783,"o":"m 783 0 l 50 0 l 50 97 l 604 809 l 99 809 l 99 915 l 751 915 l 751 821 l 197 106 l 783 106 l 783 0 z "},"Η":{"ha":833,"x_min":110,"x_max":723,"o":"m 593 0 l 593 422 l 239 422 l 239 0 l 110 0 l 110 915 l 239 915 l 239 531 l 593 531 l 593 915 l 723 915 l 723 0 l 593 0 z "},"Ι":{"ha":833,"x_min":137,"x_max":695,"o":"m 137 915 l 695 915 l 695 809 l 481 809 l 481 106 l 695 106 l 695 0 l 137 0 l 137 106 l 351 106 l 351 809 l 137 809 l 137 915 z "},"Κ":{"ha":833,"x_min":110,"x_max":832,"o":"m 680 0 l 350 433 l 239 318 l 239 0 l 110 0 l 110 915 l 239 915 l 239 458 l 627 915 l 780 915 l 438 527 l 832 0 l 680 0 z "},"Λ":{"ha":833,"x_min":7,"x_max":826,"o":"m 826 0 l 690 0 l 474 612 q 417 801 441 709 q 360 612 381 670 l 143 0 l 7 0 l 349 915 l 484 915 l 826 0 z "},"Μ":{"ha":833,"x_min":87,"x_max":745,"o":"m 635 0 l 635 589 q 637 725 635 680 l 640 793 q 575 595 596 653 l 464 298 l 371 298 l 258 595 q 193 793 246 627 l 196 589 l 196 0 l 87 0 l 87 915 l 248 915 l 374 583 q 420 427 388 547 l 437 488 l 467 583 l 593 915 l 745 915 l 745 0 l 635 0 z "},"Ν":{"ha":833,"x_min":110,"x_max":723,"o":"m 567 0 l 214 766 q 225 594 225 650 l 225 0 l 110 0 l 110 915 l 260 915 l 618 143 q 606 329 606 241 l 606 915 l 723 915 l 723 0 l 567 0 z "},"Ξ":{"ha":833,"x_min":92,"x_max":742,"o":"m 105 809 l 105 915 l 728 915 l 728 809 l 105 809 m 92 0 l 92 106 l 742 106 l 742 0 l 92 0 m 644 523 l 644 418 l 190 418 l 190 523 l 644 523 z "},"Ο":{"ha":833,"x_min":69,"x_max":764,"o":"m 764 462 q 674 110 764 233 q 416 -14 584 -14 q 158 108 247 -14 q 69 462 69 229 q 157 810 69 690 q 417 929 245 929 q 674 811 585 929 q 764 462 764 694 m 627 462 q 417 823 627 823 q 205 462 205 823 q 259 185 205 279 q 416 92 313 92 q 577 186 527 92 q 627 462 627 281 z "},"Π":{"ha":833,"x_min":111,"x_max":723,"o":"m 111 0 l 111 915 l 723 915 l 723 0 l 593 0 l 593 809 l 240 809 l 240 0 l 111 0 z "},"Ρ":{"ha":833,"x_min":110,"x_max":759,"o":"m 759 641 q 719 490 759 556 q 603 386 678 423 q 430 349 528 349 l 239 349 l 239 0 l 110 0 l 110 915 l 422 915 q 671 843 583 915 q 759 641 759 770 m 629 639 q 406 811 629 811 l 239 811 l 239 451 l 412 451 q 571 500 513 451 q 629 639 629 550 z "},"Σ":{"ha":833,"x_min":73,"x_max":804,"o":"m 73 0 l 73 110 l 438 482 l 85 806 l 85 915 l 762 915 l 762 809 l 231 809 l 541 528 l 541 444 l 209 106 l 804 106 l 804 0 l 73 0 z "},"Τ":{"ha":833,"x_min":52,"x_max":781,"o":"m 481 809 l 481 0 l 352 0 l 352 809 l 52 809 l 52 915 l 781 915 l 781 809 l 481 809 z "},"Υ":{"ha":833,"x_min":24,"x_max":808,"o":"m 480 396 l 480 0 l 353 0 l 353 396 l 24 915 l 163 915 l 417 500 l 669 915 l 808 915 l 480 396 z "},"Χ":{"ha":833,"x_min":24,"x_max":809,"o":"m 416 567 l 642 915 l 781 915 l 486 478 l 809 0 l 670 0 l 416 389 l 163 0 l 24 0 l 347 478 l 52 915 l 191 915 l 416 567 z "},"Ψ":{"ha":833,"x_min":33,"x_max":800,"o":"m 364 0 l 364 269 l 325 269 q 110 364 187 269 q 33 621 33 458 l 33 915 l 142 915 l 142 618 q 191 428 142 495 q 330 361 240 361 l 364 361 l 364 915 l 469 915 l 469 361 l 504 361 q 643 429 594 361 q 691 618 691 497 l 691 915 l 800 915 l 800 621 q 723 364 800 458 q 509 269 646 269 l 469 269 l 469 0 l 364 0 z "},"Ω":{"ha":833,"x_min":40,"x_max":794,"o":"m 417 929 q 681 819 583 929 q 778 523 778 709 q 719 283 778 395 q 549 98 660 172 q 659 106 629 106 l 794 106 l 794 0 l 467 0 l 467 152 q 602 308 557 218 q 646 514 646 397 q 587 745 646 666 q 418 823 529 823 q 246 743 304 823 q 189 514 189 663 q 233 308 189 397 q 368 152 277 218 l 368 0 l 40 0 l 40 106 l 176 106 q 285 98 205 106 q 115 284 174 172 q 56 523 56 395 q 154 820 56 710 q 417 929 251 929 z "},"Ϊ":{"ha":833,"x_min":137,"x_max":695,"o":"m 137 915 l 695 915 l 695 809 l 481 809 l 481 106 l 695 106 l 695 0 l 137 0 l 137 106 l 351 106 l 351 809 l 137 809 l 137 915 m 496 1008 l 496 1133 l 606 1133 l 606 1008 l 496 1008 m 229 1008 l 229 1133 l 340 1133 l 340 1008 l 229 1008 z "},"Ϋ":{"ha":833,"x_min":24,"x_max":808,"o":"m 480 396 l 480 0 l 353 0 l 353 396 l 24 915 l 163 915 l 417 500 l 669 915 l 808 915 l 480 396 m 507 1008 l 507 1133 l 617 1133 l 617 1008 l 507 1008 m 239 1008 l 239 1133 l 351 1133 l 351 1008 l 239 1008 z "},"ά":{"ha":833,"x_min":87,"x_max":792,"o":"m 601 161 q 357 -14 523 -14 q 153 80 218 -14 q 87 363 87 174 q 161 652 87 556 q 376 747 235 747 q 523 702 462 747 q 614 574 583 656 l 615 574 q 665 734 631 655 l 792 734 q 730 558 758 662 q 696 387 701 454 q 719 174 699 279 q 771 0 739 70 l 647 0 q 619 90 631 41 q 604 161 607 138 l 601 161 m 216 368 q 254 149 216 217 q 382 81 293 81 q 520 159 464 81 q 593 370 576 237 q 522 585 574 513 q 390 657 471 657 q 257 589 298 657 q 216 368 216 521 m 363 814 l 363 837 l 416 1035 l 550 1035 l 550 1010 l 434 814 l 363 814 z "},"έ":{"ha":833,"x_min":119,"x_max":739,"o":"m 421 77 q 559 106 494 77 q 667 186 624 134 l 739 119 q 601 20 684 53 q 413 -14 518 -14 q 193 42 268 -14 q 119 200 119 98 q 171 324 119 273 q 304 382 224 375 l 304 384 q 186 439 232 393 q 141 551 141 485 q 220 694 141 642 q 431 747 298 747 q 603 718 532 747 q 720 622 675 689 l 633 562 q 552 633 602 610 q 432 656 503 656 q 305 628 345 656 q 264 549 264 599 q 329 459 264 489 q 555 429 394 429 l 555 338 q 313 304 381 338 q 245 202 245 271 q 290 109 245 140 q 421 77 335 77 m 376 814 l 376 837 l 430 1035 l 564 1035 l 564 1010 l 448 814 l 376 814 z "},"ή":{"ha":833,"x_min":121,"x_max":711,"o":"m 589 -288 l 589 471 q 553 608 589 564 q 439 653 517 653 q 301 592 355 653 q 248 425 248 530 l 248 0 l 125 0 l 125 577 q 121 734 125 705 l 237 734 q 238 715 237 730 q 240 681 239 701 q 242 608 241 662 l 244 608 q 479 747 315 747 q 654 684 596 747 q 711 489 711 621 l 711 -288 l 589 -288 m 376 814 l 376 837 l 430 1035 l 564 1035 l 564 1010 l 448 814 l 376 814 z "},"ί":{"ha":833,"x_min":101,"x_max":758,"o":"m 439 235 q 467 125 439 159 q 551 91 494 91 q 694 163 625 91 l 758 81 q 550 -14 671 -14 q 374 46 430 -14 q 317 237 317 106 l 317 637 l 101 637 l 101 734 l 439 734 l 439 235 m 342 814 l 342 837 l 396 1035 l 530 1035 l 530 1010 l 414 814 l 342 814 z "},"ΰ":{"ha":833,"x_min":111,"x_max":741,"o":"m 741 387 q 656 90 741 193 q 412 -14 571 -14 q 184 60 258 -14 q 111 284 111 133 l 111 734 l 233 734 l 233 280 q 417 81 233 81 q 568 154 520 81 q 615 385 615 227 q 590 577 615 473 q 538 734 566 681 l 665 734 q 721 560 701 654 q 741 387 741 467 m 343 814 l 343 837 l 380 1086 l 513 1086 l 513 1061 l 414 814 l 343 814 m 515 827 l 515 951 l 612 951 l 612 827 l 515 827 m 201 827 l 201 951 l 299 951 l 299 827 l 201 827 z "},"β":{"ha":833,"x_min":117,"x_max":764,"o":"m 764 275 q 684 63 764 140 q 454 -14 604 -14 q 239 50 330 -14 l 235 50 q 239 -87 239 -27 l 239 -288 l 117 -288 l 117 696 q 194 932 117 857 q 425 1006 271 1006 q 629 944 558 1006 q 700 770 700 882 q 549 539 700 598 q 707 450 649 519 q 764 275 764 381 m 583 768 q 542 873 583 835 q 426 911 500 911 q 282 858 326 911 q 239 692 239 806 l 239 139 q 338 93 282 110 q 449 77 394 77 q 596 129 545 77 q 648 273 648 181 q 578 423 648 370 q 374 477 508 477 l 374 573 q 530 630 477 581 q 583 768 583 680 z "},"γ":{"ha":833,"x_min":36,"x_max":792,"o":"m 173 734 l 357 288 q 391 197 366 267 q 418 116 416 128 q 441 178 422 130 q 659 734 459 227 l 792 734 l 496 36 q 425 -288 449 -87 l 295 -288 q 355 7 312 -157 l 36 734 l 173 734 z "},"ζ":{"ha":833,"x_min":125,"x_max":747,"o":"m 254 257 q 293 171 254 204 q 410 121 332 137 l 494 101 q 649 53 598 77 q 723 -5 699 28 q 747 -82 747 -39 q 691 -246 747 -151 l 606 -208 q 632 -159 621 -187 q 643 -113 643 -132 q 597 -53 643 -78 q 431 -4 552 -28 q 250 52 313 20 q 156 133 187 84 q 125 245 125 182 q 238 534 125 373 q 600 910 351 696 l 600 914 q 493 910 551 910 l 180 910 l 180 1006 l 724 1006 l 724 913 q 444 633 542 748 q 300 425 347 517 q 254 257 254 332 z "},"η":{"ha":833,"x_min":121,"x_max":711,"o":"m 589 -288 l 589 471 q 553 608 589 564 q 439 653 517 653 q 301 592 355 653 q 248 425 248 530 l 248 0 l 125 0 l 125 577 q 121 734 125 705 l 237 734 q 238 715 237 730 q 240 681 239 701 q 242 608 241 662 l 244 608 q 479 747 315 747 q 654 684 596 747 q 711 489 711 621 l 711 -288 l 589 -288 z "},"θ":{"ha":833,"x_min":102,"x_max":731,"o":"m 731 497 q 650 113 731 239 q 414 -14 568 -14 q 182 116 262 -14 q 102 497 102 245 q 418 1006 102 1006 q 655 881 580 1006 q 731 497 731 755 m 412 77 q 554 169 509 77 q 602 456 599 262 l 231 456 q 278 173 235 269 q 412 77 322 77 m 420 918 q 279 828 323 918 q 231 545 235 737 l 602 545 q 556 828 599 737 q 420 918 514 918 z "},"ι":{"ha":833,"x_min":101,"x_max":758,"o":"m 439 235 q 467 125 439 159 q 551 91 494 91 q 694 163 625 91 l 758 81 q 550 -14 671 -14 q 374 46 430 -14 q 317 237 317 106 l 317 637 l 101 637 l 101 734 l 439 734 l 439 235 z "},"κ":{"ha":833,"x_min":160,"x_max":763,"o":"m 620 0 l 372 335 l 282 269 l 282 0 l 160 0 l 160 734 l 282 734 l 282 369 l 604 734 l 747 734 l 450 418 l 763 0 l 620 0 z "},"λ":{"ha":833,"x_min":77,"x_max":750,"o":"m 382 654 q 306 848 323 814 q 268 896 288 882 q 214 909 248 909 q 159 901 194 909 l 136 990 q 187 1001 154 996 q 245 1006 220 1006 q 330 987 296 1006 q 392 924 363 968 q 460 774 420 880 l 750 0 l 621 0 l 481 391 q 458 461 474 410 q 437 536 442 512 q 378 390 416 475 l 204 0 l 77 0 l 382 654 z "},"μ":{"ha":833,"x_min":106,"x_max":779,"o":"m 106 -288 l 106 734 l 229 734 l 229 269 q 265 128 229 175 q 382 81 301 81 q 518 140 469 81 q 568 309 568 199 l 568 734 l 690 734 l 690 180 q 702 106 690 130 q 743 82 713 82 q 779 87 760 82 l 779 0 q 703 -14 735 -14 q 609 18 641 -14 q 573 118 576 50 l 571 118 q 368 -14 499 -14 q 286 0 323 -14 q 228 40 249 14 l 228 -288 l 106 -288 z "},"ν":{"ha":833,"x_min":62,"x_max":731,"o":"m 731 574 q 659 302 731 452 q 456 0 587 153 l 340 0 l 62 734 l 191 734 l 415 104 q 563 343 516 230 q 609 568 609 457 q 576 734 609 659 l 696 734 q 731 574 731 668 z "},"ξ":{"ha":833,"x_min":130,"x_max":718,"o":"m 130 240 q 171 384 130 319 q 289 491 212 448 q 476 549 367 534 l 476 551 q 289 607 356 558 q 222 734 222 655 q 272 849 222 806 q 428 910 321 892 l 428 916 l 409 915 l 235 910 l 172 910 l 172 1006 l 669 1006 l 669 914 q 418 852 494 893 q 343 746 343 811 q 410 643 343 680 q 640 595 477 606 l 640 506 q 365 420 470 486 q 259 257 259 355 q 297 169 259 203 q 410 116 335 134 l 492 96 q 633 50 593 71 q 695 -3 673 29 q 718 -82 718 -35 q 662 -243 718 -147 l 576 -205 q 603 -156 592 -184 q 614 -109 614 -128 q 573 -48 614 -72 q 429 -4 533 -24 q 251 51 313 19 q 159 131 189 83 q 130 240 130 178 z "},"ο":{"ha":833,"x_min":88,"x_max":744,"o":"m 744 368 q 659 84 744 182 q 413 -14 574 -14 q 172 85 256 -14 q 88 368 88 184 q 174 652 88 557 q 417 747 260 747 q 663 653 583 747 q 744 368 744 559 m 616 368 q 569 585 616 513 q 419 657 523 657 q 265 584 314 657 q 216 368 216 511 q 265 151 216 225 q 412 77 314 77 q 568 149 519 77 q 616 368 616 222 z "},"ρ":{"ha":833,"x_min":106,"x_max":751,"o":"m 751 350 q 669 87 751 189 q 455 -14 587 -14 q 329 8 382 -14 q 229 83 275 31 l 226 83 q 229 0 229 43 l 229 -288 l 106 -288 l 106 394 q 189 654 106 560 q 415 748 271 748 q 589 699 511 748 q 709 558 666 650 q 751 350 751 467 m 621 355 q 563 577 621 497 q 407 658 505 658 q 229 391 229 658 l 229 176 q 325 102 269 127 q 439 77 381 77 q 573 149 526 77 q 621 355 621 220 z "},"ς":{"ha":833,"x_min":119,"x_max":722,"o":"m 467 652 q 307 557 365 652 q 249 315 249 462 q 270 223 249 260 q 337 160 290 187 q 489 101 385 132 q 569 77 528 90 q 644 43 610 64 q 700 -7 677 23 q 722 -84 722 -38 q 709 -151 722 -114 q 665 -241 697 -188 l 580 -203 q 606 -155 595 -182 q 617 -108 617 -127 q 600 -67 617 -85 q 546 -35 582 -50 q 425 1 510 -20 q 237 72 297 34 q 148 166 177 109 q 119 311 119 224 q 166 536 119 430 q 290 695 213 642 q 467 747 367 747 q 606 721 543 747 q 711 644 669 694 l 634 567 q 467 652 556 652 z "},"υ":{"ha":833,"x_min":111,"x_max":741,"o":"m 741 387 q 656 90 741 193 q 412 -14 571 -14 q 184 60 258 -14 q 111 284 111 133 l 111 734 l 233 734 l 233 280 q 417 81 233 81 q 568 154 520 81 q 615 385 615 227 q 590 577 615 473 q 538 734 566 681 l 665 734 q 721 560 701 654 q 741 387 741 467 z "},"χ":{"ha":833,"x_min":39,"x_max":791,"o":"m 425 162 l 179 -288 l 52 -288 l 370 272 l 241 505 q 170 615 201 577 q 103 653 138 653 q 62 643 82 653 l 39 732 q 126 749 77 749 q 229 711 187 749 q 329 568 271 674 l 439 368 l 638 734 l 765 734 l 495 261 l 791 -288 l 662 -288 l 425 162 z "},"ψ":{"ha":833,"x_min":60,"x_max":771,"o":"m 469 77 q 621 129 578 79 q 663 296 663 179 l 663 734 l 771 734 l 771 297 q 701 60 771 132 q 469 -14 630 -12 l 469 -288 l 361 -288 l 361 -14 q 130 60 201 -12 q 60 297 60 132 l 60 734 l 169 734 l 169 296 q 211 130 169 180 q 361 77 252 81 l 361 909 l 469 909 l 469 77 z "},"ω":{"ha":833,"x_min":36,"x_max":798,"o":"m 471 304 q 503 138 471 200 q 583 77 534 77 q 657 148 631 77 q 682 347 682 218 q 647 559 682 479 q 547 657 612 640 l 568 748 q 736 617 673 726 q 798 351 798 507 q 743 84 798 182 q 592 -14 688 -14 q 479 36 524 -14 q 418 168 435 86 l 416 168 q 354 36 399 85 q 242 -14 309 -14 q 91 84 146 -14 q 36 351 36 182 q 98 616 36 507 q 267 748 160 726 l 288 657 q 187 561 222 640 q 152 347 152 482 q 177 148 152 219 q 251 77 203 77 q 333 139 302 77 q 363 304 363 201 l 363 475 l 471 475 l 471 304 z "},"ϊ":{"ha":833,"x_min":101,"x_max":758,"o":"m 439 235 q 467 125 439 159 q 551 91 494 91 q 694 163 625 91 l 758 81 q 550 -14 671 -14 q 374 46 430 -14 q 317 237 317 106 l 317 637 l 101 637 l 101 734 l 439 734 l 439 235 m 475 827 l 475 951 l 586 951 l 586 827 l 475 827 m 208 827 l 208 951 l 320 951 l 320 827 l 208 827 z "},"ϋ":{"ha":833,"x_min":111,"x_max":741,"o":"m 741 387 q 656 90 741 193 q 412 -14 571 -14 q 184 60 258 -14 q 111 284 111 133 l 111 734 l 233 734 l 233 280 q 417 81 233 81 q 568 154 520 81 q 615 385 615 227 q 590 577 615 473 q 538 734 566 681 l 665 734 q 721 560 701 654 q 741 387 741 467 m 475 827 l 475 951 l 586 951 l 586 827 l 475 827 m 208 827 l 208 951 l 320 951 l 320 827 l 208 827 z "},"ό":{"ha":833,"x_min":88,"x_max":744,"o":"m 744 368 q 659 84 744 182 q 413 -14 574 -14 q 172 85 256 -14 q 88 368 88 184 q 174 652 88 557 q 417 747 260 747 q 663 653 583 747 q 744 368 744 559 m 616 368 q 569 585 616 513 q 419 657 523 657 q 265 584 314 657 q 216 368 216 511 q 265 151 216 225 q 412 77 314 77 q 568 149 519 77 q 616 368 616 222 m 363 814 l 363 837 l 416 1035 l 550 1035 l 550 1010 l 434 814 l 363 814 z "},"ύ":{"ha":833,"x_min":111,"x_max":741,"o":"m 741 387 q 656 90 741 193 q 412 -14 571 -14 q 184 60 258 -14 q 111 284 111 133 l 111 734 l 233 734 l 233 280 q 417 81 233 81 q 568 154 520 81 q 615 385 615 227 q 590 577 615 473 q 538 734 566 681 l 665 734 q 721 560 701 654 q 741 387 741 467 m 336 814 l 336 837 l 389 1035 l 523 1035 l 523 1010 l 407 814 l 336 814 z "},"ώ":{"ha":833,"x_min":36,"x_max":798,"o":"m 471 304 q 503 138 471 200 q 583 77 534 77 q 657 148 631 77 q 682 347 682 218 q 647 559 682 479 q 547 657 612 640 l 568 748 q 736 617 673 726 q 798 351 798 507 q 743 84 798 182 q 592 -14 688 -14 q 479 36 524 -14 q 418 168 435 86 l 416 168 q 354 36 399 85 q 242 -14 309 -14 q 91 84 146 -14 q 36 351 36 182 q 98 616 36 507 q 267 748 160 726 l 288 657 q 187 561 222 640 q 152 347 152 482 q 177 148 152 219 q 251 77 203 77 q 333 139 302 77 q 363 304 363 201 l 363 475 l 471 475 l 471 304 m 353 814 l 353 837 l 406 1035 l 540 1035 l 540 1010 l 424 814 l 353 814 z "},"Ё":{"ha":833,"x_min":110,"x_max":761,"o":"m 110 0 l 110 915 l 733 915 l 733 809 l 239 809 l 239 523 l 692 523 l 692 418 l 239 418 l 239 106 l 761 106 l 761 0 l 110 0 m 508 980 l 508 1105 l 618 1105 l 618 980 l 508 980 m 241 980 l 241 1105 l 353 1105 l 353 980 l 241 980 z "},"Ђ":{"ha":833,"x_min":0,"x_max":788,"o":"m 589 -14 q 492 14 536 -14 q 426 83 448 41 l 494 160 q 536 108 514 125 q 589 91 558 91 q 639 125 618 91 q 659 235 659 160 l 659 370 q 632 489 659 452 q 540 526 605 526 q 328 492 462 526 l 328 0 l 199 0 l 199 809 l 0 809 l 0 915 l 558 915 l 558 809 l 328 809 l 328 591 q 461 623 416 615 q 545 631 507 631 q 728 571 669 631 q 788 383 788 511 l 788 231 q 736 51 788 115 q 589 -14 684 -14 z "},"Ѓ":{"ha":833,"x_min":152,"x_max":756,"o":"m 281 0 l 152 0 l 152 915 l 756 915 l 756 809 l 281 809 l 281 0 m 354 981 l 354 994 l 508 1156 l 642 1156 l 642 1137 l 438 981 l 354 981 z "},"Є":{"ha":833,"x_min":77,"x_max":774,"o":"m 214 413 q 448 92 228 92 q 572 138 517 92 q 667 283 628 184 l 774 239 q 447 -14 673 -14 q 173 109 269 -14 q 77 462 77 232 q 440 929 77 929 q 756 702 670 929 l 642 658 q 564 779 617 734 q 441 823 511 823 q 276 746 332 823 q 214 511 220 669 l 503 511 l 503 413 l 214 413 z "},"Ѕ":{"ha":833,"x_min":54,"x_max":765,"o":"m 765 251 q 674 56 765 126 q 414 -14 583 -14 q 54 229 104 -14 l 179 254 q 258 127 198 167 q 417 87 317 87 q 581 130 525 87 q 637 249 637 172 q 615 326 637 296 q 557 375 593 356 q 476 406 521 394 q 385 429 431 418 q 229 480 275 458 q 155 531 182 503 q 113 597 127 560 q 98 685 98 635 q 181 866 98 802 q 417 929 263 929 q 637 879 561 929 q 743 709 713 829 l 615 687 q 550 797 599 763 q 416 831 501 831 q 224 687 224 831 q 242 621 224 646 q 291 579 260 595 q 363 551 322 562 q 451 528 404 541 q 587 489 545 505 q 660 452 628 473 q 715 404 692 432 q 752 339 739 376 q 765 251 765 302 z "},"І":{"ha":833,"x_min":137,"x_max":695,"o":"m 137 915 l 695 915 l 695 809 l 481 809 l 481 106 l 695 106 l 695 0 l 137 0 l 137 106 l 351 106 l 351 809 l 137 809 l 137 915 z "},"Ї":{"ha":833,"x_min":137,"x_max":695,"o":"m 137 915 l 695 915 l 695 809 l 481 809 l 481 106 l 695 106 l 695 0 l 137 0 l 137 106 l 351 106 l 351 809 l 137 809 l 137 915 m 495 980 l 495 1105 l 606 1105 l 606 980 l 495 980 m 228 980 l 228 1105 l 340 1105 l 340 980 l 228 980 z "},"Ј":{"ha":833,"x_min":119,"x_max":669,"o":"m 669 285 q 597 65 669 143 q 397 -14 526 -14 q 212 47 281 -14 q 119 237 143 107 l 246 258 q 298 135 258 178 q 398 92 338 92 q 540 282 540 92 l 540 809 l 329 809 l 329 915 l 669 915 l 669 285 z "},"Љ":{"ha":833,"x_min":0,"x_max":814,"o":"m 814 267 q 745 75 814 149 q 567 0 676 0 l 414 0 l 414 820 l 292 820 l 272 530 q 236 189 257 300 q 175 33 214 77 q 55 -11 136 -11 q 0 -4 19 -11 l 0 85 q 35 81 13 81 q 93 103 74 81 q 126 179 113 125 q 150 327 139 233 q 197 915 161 420 l 530 915 l 530 524 l 559 524 q 745 455 675 524 q 814 267 814 385 m 705 265 q 665 384 705 338 q 564 429 625 429 l 530 429 l 530 96 l 569 96 q 667 142 630 96 q 705 265 705 188 z "},"Њ":{"ha":833,"x_min":48,"x_max":814,"o":"m 496 915 l 496 524 l 559 524 q 745 455 675 524 q 814 267 814 385 q 745 75 814 149 q 567 0 676 0 l 380 0 l 380 429 l 157 429 l 157 0 l 48 0 l 48 915 l 157 915 l 157 524 l 380 524 l 380 915 l 496 915 m 705 265 q 665 384 705 338 q 564 429 625 429 l 496 429 l 496 96 l 569 96 q 667 142 630 96 q 705 265 705 188 z "},"Ћ":{"ha":833,"x_min":0,"x_max":788,"o":"m 659 0 l 659 370 q 632 489 659 452 q 540 526 605 526 q 328 492 462 526 l 328 0 l 199 0 l 199 809 l 0 809 l 0 915 l 558 915 l 558 809 l 328 809 l 328 591 q 461 623 416 615 q 545 631 507 631 q 728 571 669 631 q 788 383 788 511 l 788 0 l 659 0 z "},"Ќ":{"ha":833,"x_min":114,"x_max":801,"o":"m 114 915 l 243 915 l 243 515 q 360 550 307 515 q 463 658 414 584 l 633 915 l 770 915 l 570 623 q 517 554 542 583 q 456 498 493 526 l 801 0 l 650 0 l 361 439 q 302 421 336 429 q 243 413 267 413 l 243 0 l 114 0 l 114 915 m 332 981 l 332 994 l 486 1156 l 619 1156 l 619 1137 l 416 981 l 332 981 z "},"Ў":{"ha":833,"x_min":14,"x_max":818,"o":"m 184 -14 q 97 -1 142 -14 q 20 34 51 12 l 75 132 q 187 92 138 92 q 233 98 213 92 q 271 123 252 105 q 308 171 289 141 q 378 298 328 201 l 14 915 l 159 915 l 442 414 l 679 915 l 818 915 l 457 216 q 368 69 404 113 q 289 6 331 26 q 184 -14 246 -14 m 426 980 q 177 1156 183 980 l 288 1156 q 323 1080 292 1104 q 426 1055 354 1055 q 529 1080 497 1055 q 564 1156 560 1104 l 675 1156 q 426 980 669 980 z "},"Џ":{"ha":833,"x_min":106,"x_max":727,"o":"m 355 -288 l 355 0 l 106 0 l 106 915 l 235 915 l 235 109 l 597 109 l 597 915 l 727 915 l 727 0 l 477 0 l 477 -288 l 355 -288 z "},"А":{"ha":833,"x_min":0,"x_max":833,"o":"m 701 0 l 608 259 l 226 259 l 133 0 l 0 0 l 346 915 l 493 915 l 833 0 l 701 0 m 418 817 l 410 791 l 363 647 l 260 360 l 574 360 l 457 699 l 418 817 z "},"Б":{"ha":833,"x_min":110,"x_max":795,"o":"m 795 267 q 708 71 795 142 q 466 0 622 0 l 110 0 l 110 915 l 732 915 l 732 809 l 239 809 l 239 531 l 458 531 q 708 462 622 531 q 795 267 795 393 m 665 262 q 609 384 665 345 q 442 422 553 422 l 239 422 l 239 102 l 448 102 q 612 140 559 102 q 665 262 665 178 z "},"В":{"ha":833,"x_min":110,"x_max":781,"o":"m 781 258 q 688 68 781 136 q 430 0 595 0 l 110 0 l 110 915 l 389 915 q 726 693 726 915 q 677 555 726 610 q 544 482 628 499 q 719 410 657 470 q 781 258 781 349 m 595 677 q 544 780 595 749 q 391 811 493 811 l 239 811 l 239 529 l 392 529 q 595 677 595 529 m 650 269 q 590 387 650 347 q 410 428 530 428 l 239 428 l 239 104 l 420 104 q 594 145 538 104 q 650 269 650 186 z "},"Г":{"ha":833,"x_min":152,"x_max":756,"o":"m 281 0 l 152 0 l 152 915 l 756 915 l 756 809 l 281 809 l 281 0 z "},"Д":{"ha":833,"x_min":3,"x_max":813,"o":"m 694 102 l 813 102 l 813 -277 l 705 -277 l 705 0 l 112 0 l 112 -277 l 3 -277 l 3 102 l 84 102 q 183 292 147 180 q 239 569 218 404 l 285 915 l 694 915 l 694 102 m 582 813 l 382 813 l 349 557 q 296 287 326 392 q 216 102 266 181 l 582 102 l 582 813 z "},"Е":{"ha":833,"x_min":110,"x_max":761,"o":"m 110 0 l 110 915 l 733 915 l 733 809 l 239 809 l 239 523 l 692 523 l 692 418 l 239 418 l 239 106 l 761 106 l 761 0 l 110 0 z "},"Ж":{"ha":833,"x_min":0,"x_max":833,"o":"m 362 0 l 362 412 l 345 416 l 293 429 l 125 0 l 0 0 l 213 488 q 142 595 172 529 l 6 915 l 123 915 l 224 653 q 284 550 252 583 q 362 506 316 517 l 362 915 l 471 915 l 471 506 q 549 550 517 517 q 609 653 581 583 l 709 915 l 827 915 l 690 595 q 619 488 663 532 l 833 0 l 707 0 l 540 429 l 529 426 l 471 412 l 471 0 l 362 0 z "}}}
